<svg width="24" height="24" viewBox="0 0 24 24" fill="none" xmlns="http://www.w3.org/2000/svg">
<path d="M11.9999 23.25C11.6867 23.2473 11.3774 23.1791 11.092 23.05C10.8066 22.9208 10.5513 22.7335 10.3424 22.5C7.60493 19.5 2.99993 13.7925 2.99993 10.02C2.96585 7.59775 3.89452 5.261 5.58198 3.52291C7.26944 1.78483 9.57773 0.787519 11.9999 0.75C14.4221 0.787519 16.7304 1.78483 18.4179 3.52291C20.1053 5.261 21.034 7.59775 20.9999 10.02C20.9999 13.77 16.3949 19.4625 13.6574 22.5075C13.4479 22.7397 13.1923 22.9256 12.9069 23.0534C12.6215 23.1813 12.3126 23.2482 11.9999 23.25ZM11.9999 2.25C9.97619 2.28943 8.05056 3.12931 6.64481 4.58566C5.23907 6.04201 4.46779 7.99613 4.49993 10.02C4.49993 12.375 7.10243 16.665 11.4599 21.5025C11.5299 21.5751 11.6138 21.6328 11.7066 21.6723C11.7993 21.7117 11.8991 21.732 11.9999 21.732C12.1007 21.732 12.2005 21.7117 12.2933 21.6723C12.3861 21.6328 12.47 21.5751 12.5399 21.5025C16.8974 16.665 19.4999 12.375 19.4999 10.02C19.5321 7.99613 18.7608 6.04201 17.355 4.58566C15.9493 3.12931 14.0237 2.28943 11.9999 2.25V2.25Z" fill="#A2BE96"/>
<path d="M12 14.25C11.11 14.25 10.24 13.9861 9.49994 13.4916C8.75991 12.9971 8.18314 12.2943 7.84254 11.4721C7.50195 10.6498 7.41283 9.74501 7.58647 8.8721C7.7601 7.99918 8.18869 7.19736 8.81802 6.56802C9.44736 5.93869 10.2492 5.5101 11.1221 5.33647C11.995 5.16283 12.8998 5.25195 13.7221 5.59254C14.5443 5.93314 15.2471 6.50991 15.7416 7.24994C16.2361 7.98996 16.5 8.85999 16.5 9.75C16.5 10.9435 16.0259 12.0881 15.182 12.932C14.3381 13.7759 13.1935 14.25 12 14.25ZM12 6.75C11.4067 6.75 10.8266 6.92595 10.3333 7.25559C9.83994 7.58524 9.45543 8.05377 9.22836 8.60195C9.0013 9.15013 8.94189 9.75333 9.05765 10.3353C9.1734 10.9172 9.45912 11.4518 9.87868 11.8713C10.2982 12.2909 10.8328 12.5766 11.4147 12.6924C11.9967 12.8081 12.5999 12.7487 13.1481 12.5216C13.6962 12.2946 14.1648 11.9101 14.4944 11.4167C14.8241 10.9234 15 10.3433 15 9.75C15 8.95435 14.6839 8.19129 14.1213 7.62868C13.5587 7.06607 12.7957 6.75 12 6.75V6.75Z" fill="#A2BE96"/>
</svg>
