<svg width="28" height="29" viewBox="0 0 28 29" fill="none" xmlns="http://www.w3.org/2000/svg">
<path d="M23.3333 4H4.66663C2.73375 4 1.16663 5.56712 1.16663 7.5V21.5C1.16663 23.4329 2.73375 25 4.66663 25H23.3333C25.2662 25 26.8333 23.4329 26.8333 21.5V7.5C26.8333 5.56712 25.2662 4 23.3333 4ZM23.3333 6.33333C23.4672 6.33333 23.5938 6.36046 23.7133 6.40188L14 14.1725L4.28658 6.40188C4.40646 6.36046 4.53275 6.33333 4.66663 6.33333H23.3333ZM23.3333 22.6667H4.66663C4.02204 22.6667 3.49996 22.1446 3.49996 21.5V8.76087L13.2711 16.5775C13.484 16.7482 13.7421 16.8333 14 16.8333C14.2578 16.8333 14.5159 16.7482 14.7288 16.5775L24.5 8.76087V21.5C24.5 22.1446 23.9779 22.6667 23.3333 22.6667Z" fill="#0072AA"/>
</svg>
