<svg width="28" height="29" viewBox="0 0 28 29" fill="none" xmlns="http://www.w3.org/2000/svg">
<path d="M25.6667 20.2398V23.7398C25.668 24.0647 25.6014 24.3863 25.4713 24.684C25.3411 24.9817 25.1502 25.249 24.9108 25.4686C24.6713 25.6883 24.3887 25.8555 24.0809 25.9596C23.7731 26.0637 23.4469 26.1024 23.1233 26.0731C19.5333 25.683 16.0848 24.4563 13.055 22.4915C10.2361 20.7002 7.84623 18.3103 6.055 15.4915C4.08331 12.4479 2.85629 8.98261 2.47334 5.37645C2.44418 5.05383 2.48252 4.72867 2.58592 4.42168C2.68932 4.11469 2.8555 3.83259 3.0739 3.59335C3.29229 3.3541 3.55811 3.16295 3.85443 3.03206C4.15074 2.90118 4.47107 2.83343 4.795 2.83312H8.295C8.8612 2.82755 9.4101 3.02805 9.83939 3.39724C10.2687 3.76644 10.5491 4.27914 10.6283 4.83979C10.7761 5.95986 11.05 7.05964 11.445 8.11812C11.602 8.5357 11.6359 8.98952 11.5429 9.42581C11.4498 9.86211 11.2337 10.2626 10.92 10.5798L9.43834 12.0615C11.0992 14.9823 13.5175 17.4006 16.4383 19.0615L17.92 17.5798C18.2372 17.2661 18.6377 17.0499 19.074 16.9569C19.5103 16.8638 19.9641 16.8978 20.3817 17.0548C21.4402 17.4498 22.5399 17.7237 23.66 17.8715C24.2267 17.9514 24.7443 18.2369 25.1143 18.6735C25.4843 19.1102 25.6809 19.6676 25.6667 20.2398Z" stroke="#0072AA" stroke-width="2" stroke-linecap="round" stroke-linejoin="round"/>
</svg>
