<svg width="32" height="32" viewBox="0 0 32 32" fill="none" xmlns="http://www.w3.org/2000/svg">
<rect width="32" height="32" fill="white"/>
<path d="M16 29.0001C15.8684 29.0009 15.7379 28.9756 15.6161 28.9259C15.4943 28.8761 15.3834 28.8028 15.29 28.7101L8.22001 21.7101C7.19927 20.6961 6.38918 19.4902 5.83638 18.1618C5.28358 16.8335 4.99899 15.4089 4.99899 13.9701C4.99899 12.5313 5.28358 11.1067 5.83638 9.77837C6.38918 8.45001 7.19927 7.24411 8.22001 6.2301C10.292 4.18308 13.0873 3.03516 16 3.03516C18.9127 3.03516 21.708 4.18308 23.78 6.2301C24.8007 7.24411 25.6108 8.45001 26.1636 9.77837C26.7164 11.1067 27.001 12.5313 27.001 13.9701C27.001 15.4089 26.7164 16.8335 26.1636 18.1618C25.6108 19.4902 24.8007 20.6961 23.78 21.7101L16.71 28.7101C16.6166 28.8028 16.5058 28.8761 16.3839 28.9259C16.2621 28.9756 16.1316 29.0009 16 29.0001ZM16 5.0001C13.6133 4.99424 11.3219 5.93667 9.63001 7.6201C8.79673 8.44818 8.13543 9.43288 7.68417 10.5175C7.2329 11.6022 7.00059 12.7653 7.00059 13.9401C7.00059 15.1149 7.2329 16.278 7.68417 17.3627C8.13543 18.4473 8.79673 19.432 9.63001 20.2601L16 26.5901L22.37 20.2601C23.2033 19.432 23.8646 18.4473 24.3158 17.3627C24.7671 16.278 24.9994 15.1149 24.9994 13.9401C24.9994 12.7653 24.7671 11.6022 24.3158 10.5175C23.8646 9.43288 23.2033 8.44818 22.37 7.6201C20.6781 5.93667 18.3867 4.99424 16 5.0001Z" fill="#0072AA"/>
<path d="M16 19C15.0111 19 14.0444 18.7068 13.2222 18.1574C12.3999 17.6079 11.759 16.8271 11.3806 15.9134C11.0022 14.9998 10.9031 13.9945 11.0961 13.0246C11.289 12.0546 11.7652 11.1637 12.4645 10.4645C13.1637 9.76521 14.0546 9.289 15.0246 9.09608C15.9945 8.90315 16.9998 9.00217 17.9134 9.3806C18.8271 9.75904 19.6079 10.3999 20.1574 11.2222C20.7068 12.0444 21 13.0111 21 14C21 15.3261 20.4732 16.5979 19.5355 17.5355C18.5979 18.4732 17.3261 19 16 19ZM16 11C15.4067 11 14.8266 11.1759 14.3333 11.5056C13.8399 11.8352 13.4554 12.3038 13.2284 12.852C13.0013 13.4001 12.9419 14.0033 13.0576 14.5853C13.1734 15.1672 13.4591 15.7018 13.8787 16.1213C14.2982 16.5409 14.8328 16.8266 15.4147 16.9424C15.9967 17.0581 16.5999 16.9987 17.1481 16.7716C17.6962 16.5446 18.1648 16.1601 18.4944 15.6667C18.8241 15.1734 19 14.5933 19 14C19 13.2044 18.6839 12.4413 18.1213 11.8787C17.5587 11.3161 16.7957 11 16 11Z" fill="#0072AA"/>
</svg>
