<svg width="24" height="24" viewBox="0 0 24 24" aria-hidden="true" class="_2aedl" fill="#9e9e9e"><path d="M12.5 5.697c1.105 0 2.052.824 2.052 1.948 0 1.05-.947 1.948-2.052 1.948s-2.052-.899-2.052-1.948.947-1.948 2.052-1.948zm0 6.593c2.684 0 4.894-2.097 4.894-4.645C17.394 5.098 15.184 3 12.5 3S7.606 5.098 7.606 7.645c-.079 2.548 2.131 4.645 4.894 4.645zm1.973 3.746a9.305 9.305 0 002.842-1.123c.71-.375.868-1.274.474-1.873-.395-.6-1.342-.825-1.974-.45a6.562 6.562 0 01-6.63 0c-.71-.375-1.579-.225-1.974.45-.394.599-.236 1.498.474 1.873.868.524 1.894.899 2.842 1.123L7.764 18.66a1.352 1.352 0 000 1.948c.316.3.631.374 1.026.374s.71-.15 1.026-.374l2.684-2.548 2.684 2.548c.552.524 1.5.524 2.052 0a1.352 1.352 0 000-1.948l-2.763-2.623z"></path></svg>