<svg width="24" height="24" viewBox="0 0 24 24" aria-hidden="true" class="_2aedl" fill="#9e9e9e"><path d="M12.581 17.995s.42 0 .588-.257c.168-.172.168-.514.168-.514s0-1.714.756-1.971c.756-.257 1.764 1.628 2.772 2.313.756.514 1.428.429 1.428.429h2.771s1.428-.086.756-1.286c-.084-.085-.42-.856-2.1-2.398-1.763-1.628-1.511-1.371.588-4.199 1.26-1.713 1.764-2.741 1.68-3.255-.168-.429-1.092-.343-1.092-.343h-3.191s-.252 0-.42.086c-.168.085-.252.342-.252.342s-.504 1.371-1.176 2.485c-1.428 2.399-1.932 2.485-2.184 2.399-.504-.343-.42-1.37-.42-2.142 0-2.313.336-3.256-.672-3.513C12.245 6.086 11.993 6 11.07 6c-1.092 0-2.1 0-2.604.257-.336.171-.672.6-.504.6.168 0 .672.085.924.428.336.429.336 1.457.336 1.457s.168 2.741-.42 3.084c-.42.257-1.008-.257-2.268-2.399-.672-1.114-1.092-2.313-1.092-2.313s-.084-.257-.252-.343C5.022 6.6 4.686 6.6 4.686 6.6H1.663s-.42 0-.588.171c-.168.171 0 .514 0 .514s2.351 5.483 5.04 8.31c2.435 2.571 5.207 2.4 5.207 2.4h1.26z"></path></svg>