<svg width="25" height="24" viewBox="0 0 25 24" fill="none" xmlns="http://www.w3.org/2000/svg">
<path d="M12.5892 12L12.4896 21.6385" stroke="#0072AA" stroke-width="1.5" stroke-linecap="round" stroke-linejoin="round"/>
<path d="M21.1146 16.4372V7.56242C21.1146 7.4296 21.0793 7.29916 21.0125 7.18444C20.9455 7.06973 20.8493 6.97485 20.7337 6.90948L12.8587 2.45841C12.746 2.39477 12.6189 2.36133 12.4896 2.36133C12.3603 2.36133 12.2332 2.39477 12.1206 2.45841L4.24559 6.90948C4.12996 6.97485 4.03376 7.06973 3.96683 7.18444C3.89989 7.29916 3.86462 7.4296 3.86462 7.56242V16.4372C3.86462 16.5701 3.89989 16.7005 3.96683 16.8152C4.03376 16.9299 4.12996 17.0247 4.24559 17.0901L12.1206 21.5412C12.2332 21.6049 12.3603 21.6383 12.4896 21.6383C12.6189 21.6383 12.746 21.6049 12.8587 21.5412L20.7337 17.0901C20.8493 17.0247 20.9455 16.9299 21.0125 16.8152C21.0793 16.7005 21.1146 16.5701 21.1146 16.4372Z" stroke="#0072AA" stroke-width="1.5" stroke-linecap="round" stroke-linejoin="round"/>
<path d="M21.0118 7.18365L12.589 11.9999L3.96777 7.18262" stroke="#0072AA" stroke-width="1.5" stroke-linecap="round" stroke-linejoin="round"/>
<path d="M17.0962 13.9226V9.42268L8.39819 4.5625" stroke="#0072AA" stroke-width="1.5" stroke-linecap="round" stroke-linejoin="round"/>
</svg>
