<svg width="24" height="25" viewBox="0 0 24 25" fill="none" xmlns="http://www.w3.org/2000/svg">
<path d="M10 19.4993C10 18.7037 10.3161 17.9406 10.8787 17.378C11.4413 16.8154 12.2044 16.4993 13 16.4993C13.7957 16.4993 14.5587 16.8154 15.1213 17.378C15.6839 17.9406 16 18.7037 16 19.4993C16 20.295 15.6839 21.0581 15.1213 21.6207C14.5587 22.1833 13.7957 22.4993 13 22.4993C12.2044 22.4993 11.4413 22.1833 10.8787 21.6207C10.3161 21.0581 10 20.295 10 19.4993ZM5 8.69935L5.5 8.19935C5.60506 8.12055 5.72461 8.06322 5.85182 8.03063C5.97903 7.99804 6.11142 7.99082 6.24142 8.0094C6.37142 8.02797 6.4965 8.07196 6.60949 8.13887C6.72249 8.20578 6.82121 8.29429 6.9 8.39935C7.2 8.79935 7.2 9.39935 6.8 9.79935L6.2 10.1993C5.3 10.9993 5.2 12.3993 5.9 13.3993C6.07471 13.6197 6.29188 13.8027 6.53864 13.9375C6.78541 14.0723 7.05673 14.1562 7.33652 14.1842C7.61631 14.2121 7.89887 14.1836 8.16744 14.1004C8.43602 14.0171 8.68513 13.8807 8.9 13.6993L13.9 9.69935C14.317 9.36318 14.7972 9.11418 15.3122 8.96711C15.8272 8.82004 16.3665 8.7779 16.8981 8.84319C17.4297 8.90847 17.9428 9.07985 18.4069 9.34717C18.8711 9.61448 19.2768 9.97228 19.6 10.3993C20.2828 11.2878 20.6009 12.4033 20.4894 13.5183C20.3779 14.6333 19.8452 15.6637 19 16.3993L18 17.2993C17.8003 17.4698 17.5415 17.5549 17.2795 17.5362C17.0176 17.5175 16.7735 17.3965 16.6 17.1993C16.4995 17.0986 16.4217 16.9775 16.3717 16.8443C16.3218 16.7111 16.3008 16.5687 16.3103 16.4267C16.3198 16.2847 16.3594 16.1464 16.4266 16.021C16.4938 15.8955 16.587 15.7859 16.7 15.6993L17.7 14.7993C18.7 13.9993 18.8 12.5993 18.1 11.5993C17.9253 11.379 17.7081 11.196 17.4614 11.0612C17.2146 10.9264 16.9433 10.8425 16.6635 10.8145C16.3837 10.7866 16.1011 10.815 15.8326 10.8983C15.564 10.9816 15.3149 11.118 15.1 11.2993L10.1 15.2993C9.68304 15.6355 9.20281 15.8845 8.68779 16.0316C8.17278 16.1786 7.63348 16.2208 7.10188 16.1555C6.57027 16.0902 6.05719 15.9188 5.59307 15.6515C5.12895 15.3842 4.72324 15.0264 4.4 14.5993C3.71721 13.7109 3.39912 12.5954 3.51062 11.4804C3.62211 10.3654 4.1548 9.33502 5 8.59935V8.69935ZM9.8 9.19935L6.3 5.69935C6.16857 5.5793 6.07155 5.42635 6.01899 5.25628C5.96642 5.08622 5.9602 4.9052 6.00097 4.73193C6.04174 4.55865 6.12802 4.3994 6.25091 4.27062C6.37379 4.14184 6.52883 4.04819 6.7 3.99935L11.7 2.49935C11.8817 2.42661 12.0808 2.4088 12.2726 2.44813C12.4643 2.48747 12.6403 2.58222 12.7787 2.72063C12.9171 2.85904 13.0119 3.03503 13.0512 3.22679C13.0906 3.41854 13.0727 3.61762 13 3.79935L11.5 8.79935C11.4512 8.97052 11.3575 9.12555 11.2287 9.24844C11.0999 9.37133 10.9407 9.45761 10.7674 9.49838C10.5941 9.53915 10.4131 9.53293 10.2431 9.48036C10.073 9.42779 9.92005 9.33078 9.8 9.19935Z" fill="black" fill-opacity="0.5"/>
</svg>
