<svg width="60" height="60" viewBox="0 0 60 60" fill="none" xmlns="http://www.w3.org/2000/svg">
<rect width="60" height="60" rx="30" fill="#0072AA" fill-opacity="0.1"/>
<g clip-path="url(#clip0_1796_6339)">
<path fill-rule="evenodd" clip-rule="evenodd" d="M27.9761 28.0229C27.7676 28.2315 27.7676 28.5685 27.9761 28.7771L31.1761 31.9771C31.2801 32.0811 31.4166 32.1333 31.5532 32.1333C31.6897 32.1333 31.8262 32.0811 31.9302 31.9771C32.1388 31.7685 32.1388 31.4315 31.9302 31.2229L28.7302 28.0229C28.5217 27.8144 28.1846 27.8144 27.9761 28.0229ZM26.5969 30.1563C26.3884 29.9477 26.0513 29.9477 25.8428 30.1563C25.6342 30.3648 25.6342 30.7019 25.8428 30.9104L29.0428 34.1104C29.1468 34.2144 29.2833 34.2667 29.4198 34.2667C29.5564 34.2667 29.6929 34.2144 29.7969 34.1104C30.0054 33.9019 30.0054 33.5648 29.7969 33.3563L26.5969 30.1563ZM24.4636 32.2896C24.255 32.0811 23.918 32.0811 23.7094 32.2896C23.5009 32.4981 23.5009 32.8352 23.7094 33.0437L26.9094 36.2437C27.0134 36.3477 27.15 36.4 27.2865 36.4C27.423 36.4 27.5596 36.3477 27.6636 36.2437C27.8721 36.0352 27.8721 35.6981 27.6636 35.4896L24.4636 32.2896ZM34.5324 31.0667L28.8865 25.4208L21.1073 33.2L26.7532 38.8459L34.5324 31.0667ZM29.2636 24.2896L35.6636 30.6896C35.8721 30.8981 35.8721 31.2352 35.6636 31.4437L27.1302 39.9771C27.0262 40.0811 26.8897 40.1333 26.7532 40.1333C26.6166 40.1333 26.4801 40.0811 26.3761 39.9771L19.9761 33.5771C19.7676 33.3685 19.7676 33.0315 19.9761 32.8229L28.5094 24.2896C28.718 24.0811 29.055 24.0811 29.2636 24.2896ZM41.6732 33.5067C41.4182 33.3568 41.0918 33.4427 40.943 33.6971L34.83 44.1237C34.3884 44.888 33.4076 45.1509 32.6673 44.7243L31.4764 43.9525C31.23 43.792 30.8993 43.8629 30.7393 44.1099C30.5788 44.3573 30.6492 44.6875 30.8966 44.8475L32.1105 45.6341C32.5292 45.8757 32.9873 45.9904 33.4396 45.9904C34.3617 45.9904 35.2593 45.5131 35.7516 44.6603L41.863 34.2363C42.0118 33.9824 41.927 33.656 41.6732 33.5067ZM45.9532 16.6667V25.2C45.9532 26.8501 45.4284 28.0795 44.1969 29.3104L28.358 45.1717C27.854 45.6757 27.1841 45.9525 26.4716 45.9525C25.759 45.9525 25.0897 45.6757 24.5868 45.1717L14.7814 35.3669C14.2774 34.8629 14.0001 34.1931 14.0001 33.4805C14.0001 32.768 14.2774 32.0987 14.7814 31.5952L28.6342 17.7611C25.0118 16.9376 22.7638 16.8821 22.1057 17.0747C22.3836 17.3589 23.2492 17.9627 25.3382 18.7861C25.6124 18.8944 25.7468 19.2037 25.639 19.4779C25.5308 19.752 25.2209 19.8848 24.9473 19.7787C20.623 18.0741 20.8758 17.1291 20.9713 16.7733C21.1692 16.032 22.2257 15.7851 24.39 15.9744C26.1526 16.1285 28.4278 16.5632 30.7964 17.1973C33.1649 17.832 35.3516 18.5931 36.9548 19.3413C38.9254 20.2603 39.7153 21.0011 39.5164 21.7429C39.3244 22.4587 38.3265 22.5461 37.9985 22.5749C37.983 22.5765 37.967 22.5771 37.9516 22.5771C37.678 22.5771 37.4454 22.3675 37.4209 22.0901C37.3948 21.7968 37.6118 21.5381 37.9057 21.5125C38.1329 21.4928 38.2838 21.4619 38.3814 21.4341C38.1532 21.1957 37.5756 20.824 36.6518 20.3813C36.4582 20.7077 36.3532 21.0827 36.3532 21.4667C36.3532 22.6432 37.31 23.6 38.4865 23.6C39.663 23.6 40.6198 22.6432 40.6198 21.4667C40.6198 20.2901 39.663 19.3333 38.4865 19.3333C38.1916 19.3333 37.9532 19.0949 37.9532 18.8C37.9532 18.5051 38.1916 18.2667 38.4865 18.2667C40.2513 18.2667 41.6865 19.7019 41.6865 21.4667C41.6865 23.2315 40.2513 24.6667 38.4865 24.6667C36.7217 24.6667 35.2865 23.2315 35.2865 21.4667C35.2865 20.9317 35.4273 20.4107 35.6785 19.9456C34.4022 19.4096 32.6902 18.8096 30.5206 18.2277C30.2918 18.1664 30.0716 18.1104 29.8513 18.0544L15.5356 32.3499C15.2332 32.6517 15.0668 33.0539 15.0668 33.4805C15.0668 33.9083 15.2332 34.3099 15.5356 34.6123L25.3409 44.4176C25.9452 45.0219 26.999 45.0219 27.6033 44.4176L43.4422 28.5563C44.4817 27.5173 44.8865 26.576 44.8865 25.2V16.6667C44.8865 15.7845 44.1686 15.0667 43.2865 15.0667H34.7532C33.3772 15.0667 32.4358 15.4715 31.3969 16.5104C31.1884 16.7189 30.8513 16.7189 30.6428 16.5104C30.4342 16.3019 30.4342 15.9648 30.6428 15.7563C31.8737 14.5248 33.103 14 34.7532 14H43.2865C44.7569 14 45.9532 15.1963 45.9532 16.6667Z" fill="#0072AA"/>
</g>
<defs>
<clipPath id="clip0_1796_6339">
<rect width="32" height="32" fill="white" transform="translate(14 14)"/>
</clipPath>
</defs>
</svg>
