<svg width="48" height="48" viewBox="0 0 48 48" fill="none" xmlns="http://www.w3.org/2000/svg">
<rect width="48" height="48" rx="24" fill="#0072AA"/>
<path d="M32 15H16C14.3432 15 13 16.3433 13 18V30C13 31.6567 14.3432 33 16 33H32C33.6567 33 35 31.6567 35 30V18C35 16.3433 33.6567 15 32 15ZM32 17C32.1147 17 32.2232 17.0233 32.3257 17.0588L24 23.7192L15.6742 17.0588C15.777 17.0233 15.8852 17 16 17H32ZM32 31H16C15.4475 31 15 30.5525 15 30V19.0807L23.3752 25.7808C23.5577 25.927 23.779 26 24 26C24.221 26 24.4422 25.927 24.6247 25.7808L33 19.0807V30C33 30.5525 32.5525 31 32 31Z" fill="white"/>
</svg>
