<svg width="24" height="24" viewBox="0 0 24 24" aria-hidden="true" class="_2aedl" fill="#9e9e9e"><path d="M7.193 15.825v-2.92h1.362v-.855H4.809v.855h1.192v5.77h1.192v-2.85zm10.726-.213c0-.072 0-.713.085-.855a.525.525 0 01.511-.356c.255 0 .34.07.426.213.085.072.085.143.085.57v.428h-.596c-.426.071-.51.071-.51 0zm1.022 3.135c.51-.143.936-.428 1.021-.855 0-.072.085-.285.085-.5v-.355h-1.021v.285c0 .356-.085.427-.17.57-.17.142-.426.142-.682 0-.255-.143-.255-.357-.255-1.07v-.498h2.214v-.712c0-.855 0-.926-.17-1.283-.341-.57-1.193-.854-1.959-.64-.51.142-.851.498-1.021.925-.085.143-.085.285-.085 1.496 0 1.497 0 1.568.17 1.853.34.641 1.192.926 1.873.784zm-4.257-.855l.17-.143c.086-.142.086-.214 0-1.496 0-1.354 0-1.425-.085-1.496-.17-.214-.425-.214-.766-.071l-.085.07V17.75l.085.071c.255.143.51.143.681.072zm.681.855a.96.96 0 00.426-.357c.17-.356.17-.356.17-2.137 0-1.496 0-1.639-.085-1.852-.17-.5-.426-.713-.936-.713-.256 0-.511.143-.767.356-.085.072-.255.143-.255.143V12.05h-1.022v6.697h1.022v-.214-.214s.17.071.255.143c.426.284.767.427 1.192.285zm-5.448 0c.17-.072.425-.214.68-.357l.171-.142v.57h1.022V13.83h-1.021v3.847l-.256.213c-.17.143-.256.214-.34.214-.171.072-.256 0-.341-.071-.085-.071-.085-.142-.085-2.137v-1.995H8.725v2.137c0 2.351 0 2.422.17 2.636.17.143.596.214 1.022.072zm.425 2.066H8.64c-1.958-.072-3.32-.143-3.66-.143-.426-.071-.852-.285-1.107-.57-.426-.427-.596-.926-.681-1.71-.256-1.78-.256-3.918 0-5.628.085-.784.425-1.282.85-1.71.256-.213.512-.356.852-.427.766-.143 6.47-.285 9.875-.214 2.043.071 4.172.143 4.768.143.766.07 1.277.427 1.617.997.256.499.34.855.51 1.924.086.854.086 1.424.086 2.422 0 1.21-.085 2.28-.255 2.92-.17.642-.511 1.212-.937 1.497-.34.213-.68.356-1.277.356h-.51c-.341 0-2.129.071-3.065.071-1.447.072-4.001.072-5.364.072zM7.617 9.77V7.49c0-.356 0-.641-.34-1.354-.085-.213-.256-.712-.426-.997C6 2.86 6 3.002 6.085 3.002h1.277s.17.57.426 1.21c.255.713.425 1.212.425 1.283 0 0 .17-.356.256-.855.34-1.068.51-1.638.51-1.638H10.256v.071c0 .071-.425 1.14-.851 2.28-.085.142-.17.427-.255.712-.086.285-.17.57-.256.713l-.085.213v1.354c0 1.282 0 1.354-.085 1.354 0 .142-1.107.07-1.107.07zm7.492.071c-.256 0-.426-.142-.596-.285-.17-.214-.17-.214-.17-2.636V4.712H15.534v2.066c0 2.208 0 2.137.17 2.208.17 0 .341 0 .511-.214l.17-.142V4.783h1.193V9.77H16.47s-.085-.071-.085-.214v-.214l-.17.143c-.341.285-.767.427-1.107.356zm-2.895-.926c.17-.143.17-.143.17-1.567V5.923c-.085-.214-.17-.285-.34-.357-.255-.07-.426.072-.51.285-.086.143-.086 2.708 0 2.85.084.143.17.285.255.285.17 0 .34-.071.425-.071zm-.51.926c-.511-.071-1.022-.285-1.192-.641-.256-.356-.256-.57-.256-2.066 0-1.211 0-1.283.085-1.425.17-.427.426-.712.767-.855.595-.214 1.191-.214 1.702.071.34.214.511.428.681.855.085.143.085.285.085 1.496 0 1.496 0 1.568-.17 1.853-.17.285-.596.57-.936.64-.256.072-.596.072-.767.072z"></path></svg>