<svg width="24" height="24" viewBox="0 0 24 24" fill="none" xmlns="http://www.w3.org/2000/svg">
<path d="M19.5518 4.35206C17.5351 2.33062 14.8494 1.21875 11.9952 1.21875C6.10407 1.21875 1.31026 6.01261 1.31026 11.9037C1.31026 13.7855 1.80123 15.6241 2.73498 17.2462L1.2189 22.7812L6.88384 21.2939C8.44328 22.1458 10.2 22.5935 11.9904 22.5935H11.9953C17.8817 22.5935 22.7813 17.7996 22.7813 11.9085C22.7812 9.05437 21.5684 6.37355 19.5518 4.35206Z" fill="#2CB742"/>
<path d="M11.9951 20.7931C10.3972 20.7931 8.83293 20.3648 7.47083 19.5562L7.14838 19.3637L3.78885 20.2444L4.68411 16.9667L4.47233 16.6298C3.58194 15.2148 3.11502 13.5832 3.11502 11.9034C3.11502 7.00856 7.10024 3.02344 11.9999 3.02344C14.3727 3.02344 16.6011 3.94753 18.2761 5.62725C19.951 7.30702 20.9811 9.5355 20.9763 11.9083C20.9763 16.8081 16.8899 20.7931 11.9951 20.7931Z" fill="white"/>
<path d="M16.8659 14.1412C16.6012 14.0066 15.2873 13.3614 15.0418 13.2749C14.7963 13.1834 14.6183 13.1402 14.4402 13.4097C14.2621 13.6792 13.7519 14.2759 13.593 14.4589C13.439 14.637 13.2802 14.6611 13.0155 14.5263C11.4464 13.7419 10.4165 13.1258 9.38166 11.3497C9.1073 10.878 9.65607 10.9117 10.1662 9.8914C10.2529 9.71323 10.2096 9.55925 10.1421 9.42448C10.0748 9.28972 9.54047 7.97576 9.31908 7.44148C9.10252 6.92169 8.88113 6.99387 8.71744 6.98427C8.56346 6.97461 8.38528 6.97461 8.2073 6.97461C8.02917 6.97461 7.74042 7.04202 7.49494 7.30672C7.2495 7.57625 6.56119 8.22125 6.56119 9.5352C6.56119 10.8492 7.51894 12.1198 7.64892 12.2979C7.78364 12.4759 9.53086 15.1713 12.2116 16.3312C13.9059 17.0628 14.5701 17.1253 15.4172 17.0002C15.9322 16.9232 16.996 16.3552 17.2173 15.7295C17.4387 15.1039 17.4387 14.5697 17.3713 14.459C17.3087 14.3385 17.1306 14.2712 16.8659 14.1412Z" fill="#2CB742"/>
</svg>
