<svg width="24" height="24" viewBox="0 0 24 24" fill="none" xmlns="http://www.w3.org/2000/svg">
<path d="M19.9178 3.31835C19.3831 2.82574 17.2187 1.255 12.393 1.234C12.393 1.234 6.7041 0.892941 3.93332 3.43633C2.39212 4.97744 1.84893 7.23874 1.78996 10.039C1.73099 12.8393 1.65941 18.0859 6.71671 19.5093H6.72088L6.71671 21.6821C6.71671 21.6821 6.68305 22.5622 7.26412 22.739C7.96316 22.958 8.3758 22.2885 9.04532 21.5684C9.4117 21.1726 9.91696 20.5915 10.3002 20.1493C13.7615 20.4399 16.4187 19.7746 16.7218 19.6778C17.4209 19.4504 21.3749 18.945 22.0149 13.6983C22.6802 8.28302 21.6949 4.86377 19.9178 3.31835Z" fill="#834995"/>
<path d="M20.5033 13.3031C19.96 17.6823 16.7555 17.9603 16.166 18.1498C15.9134 18.2298 13.5763 18.8109 10.6413 18.6215C10.6413 18.6215 8.45167 21.2617 7.7695 21.9481C7.54633 22.1712 7.30211 22.1502 7.30633 21.708C7.30633 21.4176 7.32316 18.0993 7.32316 18.0993C7.31894 18.0993 7.31894 18.0993 7.32316 18.0993C3.03644 16.9118 3.28909 12.4441 3.33541 10.107C3.38172 7.77 3.82389 5.85403 5.12926 4.56553C7.47475 2.439 12.3047 2.75485 12.3047 2.75485C16.385 2.77168 18.3389 4.00121 18.7937 4.41389C20.2969 5.70244 21.0633 8.78485 20.5033 13.3031Z" fill="white"/>
<path d="M14.6501 9.89913C14.6669 10.2612 14.1237 10.2866 14.1069 9.92435C14.0606 8.99796 13.6268 8.54744 12.7341 8.49691C12.372 8.47582 12.4057 7.93263 12.7636 7.95372C13.9385 8.01686 14.5912 8.6906 14.6501 9.89913Z" fill="#834995"/>
<path d="M15.5046 10.3755C15.5466 8.59004 14.4308 7.19204 12.3127 7.03628C11.9547 7.01101 11.9927 6.46778 12.3506 6.49304C14.793 6.66995 16.0941 8.35008 16.0478 10.3881C16.0436 10.7502 15.4961 10.7334 15.5046 10.3755Z" fill="#834995"/>
<path d="M17.4839 10.9397C17.4881 11.3018 16.9407 11.306 16.9407 10.9439C16.9154 7.51202 14.6289 5.64236 11.8539 5.62131C11.496 5.61709 11.496 5.07812 11.8539 5.07812C14.9574 5.09917 17.4544 7.24248 17.4839 10.9397Z" fill="#834995"/>
<path d="M17.0083 15.0706V15.079C16.5536 15.8791 15.703 16.7635 14.8271 16.4813L14.8187 16.4686C13.9302 16.2202 11.8374 15.1422 10.5152 14.0895C9.833 13.5504 9.20975 12.9146 8.72971 12.304C8.29602 11.7608 7.85812 11.1165 7.43282 10.3418C6.53592 8.72053 6.33801 7.99626 6.33801 7.99626C6.05587 7.1204 6.93595 6.26976 7.74018 5.81503H7.74866C8.13604 5.61285 8.50658 5.68026 8.75502 5.97918C8.75502 5.97918 9.27721 6.60234 9.50033 6.90984C9.71089 7.19615 9.99303 7.65511 10.1404 7.91198C10.3973 8.37094 10.2372 8.83837 9.9846 9.03202L9.47929 9.43631C9.22246 9.64261 9.25611 10.0258 9.25611 10.0258C9.25611 10.0258 10.0056 12.8598 12.8059 13.5757C12.8059 13.5757 13.1892 13.6094 13.3954 13.3525L13.7997 12.8472C13.9933 12.5945 14.4608 12.4345 14.9198 12.6914C15.5388 13.0409 16.3262 13.5841 16.8484 14.0768C17.1431 14.3168 17.2105 14.6832 17.0083 15.0706Z" fill="#834995"/>
</svg>
