<svg width="60" height="60" viewBox="0 0 60 60" fill="none" xmlns="http://www.w3.org/2000/svg">
<rect width="60" height="60" rx="30" fill="#0072AA" fill-opacity="0.1"/>
<path fill-rule="evenodd" clip-rule="evenodd" d="M14.423 16.0496C14.2737 16.1091 14.1014 16.2708 14.0451 16.4039C13.9849 16.5463 13.985 44.0532 14.0452 44.1952C14.1059 44.3385 14.2377 44.4561 14.423 44.5326C14.5755 44.5955 14.7839 44.5987 18.7259 44.5994C22.8665 44.6002 22.8688 44.6002 23.0441 44.5243C23.1499 44.4785 23.2624 44.3906 23.3271 44.3032L23.4346 44.158L23.4464 30.3737C23.4544 20.8891 23.4451 16.5492 23.4163 16.4601C23.3599 16.2851 23.2378 16.1542 23.0519 16.0695C22.9008 16.0005 22.8 15.9989 18.7202 16.0003C15.3195 16.0014 14.5208 16.0106 14.423 16.0496ZM21.9928 30.2995V43.2936L18.7186 43.3028L15.4443 43.312V30.2995V17.2871L18.7186 17.2963L21.9928 17.3054V30.2995ZM28.9156 17.6475C28.8241 17.688 28.704 17.7806 28.6488 17.8534C28.5936 17.9261 27.7268 19.2337 26.7225 20.7592L24.8965 23.5329V24.8025C24.8965 25.5007 24.9113 26.0567 24.9292 26.038C24.9473 26.0193 25.0653 25.8469 25.1914 25.655C25.3176 25.463 25.4373 25.3059 25.4574 25.3059C25.4951 25.3059 30.9787 28.1888 31.0375 28.2396C31.0556 28.2553 30.9272 28.4836 30.7521 28.7469C30.577 29.0102 29.8349 30.1358 29.103 31.2481C28.371 32.3605 27.7675 33.2751 27.7618 33.2806C27.7561 33.286 27.1374 32.9678 26.387 32.5735C25.6366 32.1791 24.9943 31.8468 24.9596 31.8348C24.9035 31.8156 24.8965 31.8943 24.8965 32.5504V33.2875L25.0467 33.3735C25.1293 33.4208 25.606 33.6734 26.106 33.9347C26.8488 34.3229 27.0089 34.4202 26.9809 34.4667C26.962 34.498 26.4853 35.2234 25.9216 36.0789L24.8965 37.6343V38.9038C24.8965 39.6021 24.9038 40.1667 24.9126 40.1585C24.9351 40.1376 26.2688 38.116 30.5548 31.6061C31.7668 29.7653 33.2942 27.4457 33.9489 26.4514C34.6037 25.4572 35.5181 24.0686 35.9809 23.3658C36.4436 22.6629 36.8342 22.0309 36.8488 21.9613C36.8864 21.7825 36.8087 21.5617 36.6593 21.4225C36.589 21.3571 35.7565 20.897 34.8093 20.4002C33.8621 19.9035 32.3241 19.0951 31.3916 18.604C30.4591 18.1128 29.621 17.6805 29.5292 17.6432C29.3121 17.5551 29.1215 17.5564 28.9156 17.6475ZM35.1091 22.0967C35.1094 22.1133 34.3681 23.2533 33.4617 24.63C31.8697 27.0479 31.8109 27.1313 31.7295 27.0843C31.6832 27.0576 30.4377 26.4023 28.9618 25.6281C27.4859 24.8539 26.2566 24.2029 26.23 24.1815C26.1932 24.1519 26.4698 23.7056 27.3855 22.3169C28.0476 21.3128 28.7791 20.2014 29.0112 19.847C29.2432 19.4926 29.4493 19.1842 29.4692 19.1617C29.4945 19.1329 30.3392 19.5591 32.3069 20.5935C33.8478 21.4036 35.1088 22.08 35.1091 22.0967ZM39.2551 24.5149C39.1669 24.5515 38.314 25.0076 37.3596 25.5286L35.6244 26.4756L34.8632 27.6299C34.4445 28.2648 34.1086 28.7903 34.1168 28.7976C34.1307 28.81 34.6632 28.5226 38.0335 26.6837C38.9622 26.177 39.3068 26.0059 39.3395 26.0354C39.3717 26.0645 42.6089 30.808 42.7045 30.9662C42.712 30.9785 42.4525 31.1332 42.128 31.3099C41.8035 31.4866 40.5688 32.159 39.3843 32.8041C38.1998 33.4491 37.2022 33.9791 37.1676 33.9817C37.1083 33.9863 36.6134 33.2785 34.4384 30.0786C34.1149 29.6028 33.8378 29.2203 33.8226 29.2287C33.7496 29.269 33.0217 30.4384 33.0371 30.4905C33.0469 30.5233 33.4838 31.1783 34.0081 31.9462C35.7686 34.5244 35.8791 34.6914 35.8448 34.7207C35.7862 34.7706 30.3416 37.7273 30.3082 37.7273C30.2909 37.7273 30.0471 37.389 29.7666 36.9756C29.486 36.5621 29.244 36.2239 29.2287 36.2239C29.1941 36.2239 28.4454 37.3626 28.4297 37.4391C28.4234 37.4696 28.555 37.6943 28.7221 37.9385C28.8892 38.1826 29.0182 38.4 29.0089 38.4217C28.9995 38.4434 28.0778 38.959 26.9605 39.5676C25.8433 40.1761 24.9214 40.692 24.912 40.714C24.9025 40.736 24.8997 41.0806 24.9057 41.4797L24.9166 42.2053L25.6976 41.7795C30.6662 39.0707 32.9649 37.8184 36.6517 35.8119C37.7091 35.2365 39.8088 34.0937 41.3177 33.2725C42.8267 32.4513 44.1173 31.7413 44.1858 31.6948C44.4469 31.5173 44.5166 31.1742 44.3497 30.8873C44.1645 30.5688 40.1812 24.7479 40.0802 24.6482C39.8738 24.4445 39.5504 24.3923 39.2551 24.5149ZM37.6821 36.7734L36.5497 37.3922L36.5511 40.3521L36.5524 43.312L33.2778 43.3028L30.0031 43.2936L29.9831 42.1384L29.9631 40.9832L29.2521 41.3678L28.5412 41.7524V42.532V43.3115H26.7189H24.8965V43.9559V44.6002H35.151C44.2885 44.6002 45.4216 44.5942 45.553 44.5452C45.7516 44.471 45.8409 44.3947 45.9284 44.2244C45.9983 44.0884 46.002 43.8949 46.0029 40.384C46.0036 37.1367 45.9963 36.6709 45.9422 36.5551C45.8627 36.3851 45.7784 36.3038 45.5948 36.2201C45.4525 36.1551 45.3065 36.1523 42.1304 36.1534L38.8145 36.1546L37.6821 36.7734ZM44.5521 40.3673L44.5419 43.2936H41.2777H38.0135L38.0032 40.3673L37.9929 37.4409H41.2777H44.5624L44.5521 40.3673ZM18.288 39.4842C17.4616 39.8181 17.4238 40.8736 18.225 41.2425C18.4238 41.334 18.7952 41.3655 19.018 41.3097C19.2765 41.2449 19.5331 41.0595 19.6698 40.8388C19.7733 40.6716 19.7899 40.6076 19.7899 40.3762C19.7899 40.1459 19.7732 40.0807 19.6718 39.9172C19.5368 39.6993 19.3319 39.54 19.0876 39.463C18.848 39.3874 18.5049 39.3965 18.288 39.4842Z" fill="#0072AA"/>
</svg>
