<svg width="48" height="48" viewBox="0 0 48 48" fill="none" xmlns="http://www.w3.org/2000/svg">
<rect width="48" height="48" rx="24" fill="#25D266"/>
<path d="M29.498 26.382C29.197 26.232 27.731 25.515 27.458 25.416C27.185 25.315 26.985 25.266 26.785 25.566C26.588 25.861 26.014 26.53 25.841 26.728C25.666 26.923 25.492 26.938 25.195 26.803C24.895 26.653 23.932 26.338 22.792 25.318C21.904 24.523 21.308 23.548 21.132 23.248C20.958 22.948 21.113 22.783 21.262 22.633C21.398 22.498 21.563 22.288 21.713 22.11C21.859 21.929 21.907 21.809 22.01 21.614C22.11 21.404 22.059 21.239 21.985 21.09C21.91 20.94 21.313 19.47 21.063 18.884C20.823 18.3 20.576 18.374 20.391 18.374C20.219 18.359 20.02 18.359 19.82 18.359C19.62 18.359 19.297 18.433 19.023 18.718C18.75 19.018 17.978 19.738 17.978 21.193C17.978 22.648 19.048 24.058 19.197 24.268C19.346 24.463 21.302 27.463 24.297 28.753C25.011 29.053 25.567 29.233 26.001 29.382C26.715 29.609 27.366 29.577 27.881 29.503C28.455 29.412 29.648 28.782 29.897 28.077C30.152 27.372 30.152 26.787 30.077 26.652C30.003 26.517 29.807 26.442 29.507 26.307L29.498 26.382ZM24.061 33.75H24.045C22.275 33.75 20.521 33.27 18.99 32.37L18.63 32.156L14.88 33.131L15.885 29.486L15.646 29.111C14.656 27.535 14.13 25.72 14.13 23.851C14.13 18.406 18.585 13.966 24.072 13.966C26.726 13.966 29.217 15.001 31.093 16.876C32.968 18.735 34.002 21.226 34.002 23.866C33.998 29.31 29.542 33.751 24.067 33.751L24.061 33.75ZM32.52 15.449C30.24 13.245 27.24 12 24.045 12C17.463 12 12.104 17.334 12.101 23.893C12.101 25.989 12.65 28.033 13.696 29.838L12 36L18.335 34.348C20.081 35.291 22.045 35.792 24.045 35.795H24.051C30.636 35.795 35.997 30.459 36 23.899C36 20.723 34.76 17.734 32.505 15.488" fill="white"/>
</svg>
