<svg width="25" height="24" viewBox="0 0 25 24" fill="none" xmlns="http://www.w3.org/2000/svg">
<path fill-rule="evenodd" clip-rule="evenodd" d="M12.3801 1C9.22306 1 6.85606 3.887 7.47506 6.98L7.93006 9.254C8.14183 10.3098 8.71271 11.2597 9.54566 11.9422C10.3786 12.6246 11.4222 12.9976 12.4991 12.9976C13.5759 12.9976 14.6195 12.6246 15.4524 11.9422C16.2854 11.2597 16.8563 10.3098 17.0681 9.254L17.5231 6.981C18.1421 3.887 15.7761 1 12.6201 1H12.3781H12.3801ZM9.43606 6.588C9.34903 6.1526 9.35974 5.70331 9.4674 5.27255C9.57507 4.84179 9.77701 4.4403 10.0586 4.09705C10.3403 3.7538 10.6946 3.47734 11.0961 3.28763C11.4975 3.09791 11.936 2.99968 12.3801 3H12.6221C13.0658 3.00012 13.504 3.09868 13.9051 3.28859C14.3062 3.4785 14.6601 3.75501 14.9414 4.09821C15.2227 4.44141 15.4244 4.84274 15.5319 5.27328C15.6394 5.70382 15.65 6.15285 15.5631 6.588L15.1091 8.862C14.9881 9.46461 14.6622 10.0067 14.1868 10.3963C13.7113 10.7858 13.1157 10.9986 12.5011 10.9986C11.8864 10.9986 11.2908 10.7858 10.8153 10.3963C10.3399 10.0067 10.014 9.46461 9.89306 8.862L9.43806 6.588H9.43606Z" fill="#0072AA"/>
<path d="M7.71397 14.9772C7.97309 14.9204 8.19905 14.763 8.34214 14.5397C8.48523 14.3163 8.53373 14.0453 8.47697 13.7862C8.42022 13.5271 8.26285 13.3011 8.03949 13.158C7.81614 13.0149 7.54509 12.9664 7.28597 13.0232C5.06297 13.5092 3.82397 14.5192 3.16297 15.5312C2.89848 15.9322 2.70468 16.3756 2.58997 16.8422C2.54076 17.0476 2.51063 17.2572 2.49997 17.4682C2.49097 17.9782 2.49997 18.4892 2.49997 19.0002C2.49997 19.7958 2.81604 20.5589 3.37865 21.1215C3.94126 21.6841 4.70432 22.0002 5.49997 22.0002H19.5C20.2956 22.0002 21.0587 21.6841 21.6213 21.1215C22.1839 20.5589 22.5 19.7958 22.5 19.0002C22.5 18.4902 22.507 17.9792 22.5 17.4682L22.498 17.4202C22.4851 17.2254 22.4556 17.032 22.41 16.8422C22.2952 16.376 22.1014 15.9329 21.837 15.5322C21.177 14.5192 19.937 13.5092 17.714 13.0232C17.4549 12.9664 17.1838 13.0149 16.9604 13.158C16.7371 13.3011 16.5797 13.5271 16.523 13.7862C16.4662 14.0453 16.5147 14.3163 16.6578 14.5397C16.8009 14.763 17.0269 14.9204 17.286 14.9772C19.063 15.3662 19.824 16.1062 20.163 16.6252C20.341 16.8972 20.425 17.1432 20.465 17.3102C20.4815 17.3769 20.4932 17.4448 20.5 17.5132V19.0002C20.5 19.2654 20.3946 19.5197 20.2071 19.7073C20.0195 19.8948 19.7652 20.0002 19.5 20.0002H5.49997C5.23476 20.0002 4.9804 19.8948 4.79287 19.7073C4.60533 19.5197 4.49997 19.2654 4.49997 19.0002V17.5162L4.50197 17.4912C4.50597 17.4562 4.51497 17.3942 4.53497 17.3112C4.57497 17.1432 4.65897 16.8972 4.83697 16.6252C5.17697 16.1052 5.93697 15.3652 7.71397 14.9772Z" fill="#0072AA"/>
</svg>
