<svg width="60" height="60" viewBox="0 0 60 60" fill="none" xmlns="http://www.w3.org/2000/svg">
<rect width="60" height="60" rx="30" fill="#0072AA" fill-opacity="0.1"/>
<path fill-rule="evenodd" clip-rule="evenodd" d="M12.4735 14.1004C12.732 14.2236 13.0074 14.3556 13.2921 14.4929C14.677 15.1605 15.8484 15.743 15.8951 15.7872C15.9697 15.8579 9.51879 31.4444 9.34121 31.6222C9.30603 31.6575 8.28252 31.2062 7.00003 30.593C7.0253 30.9755 7.05991 31.3554 7.10365 31.7325C8.38278 32.3506 9.5012 32.8618 9.63856 32.8618C9.77473 32.8618 9.92336 32.679 10.1026 32.291C10.2083 32.0622 10.2431 31.9004 10.3382 31.8481C10.5212 31.7474 10.927 32.0517 12.489 33.0627C13.5371 33.7412 14.0323 34.1241 14.0046 34.2346C13.982 34.3249 13.9412 34.6951 13.914 35.0573C13.8531 35.8711 14.079 36.5834 14.5983 37.2139C15.1832 37.9241 15.6705 38.1488 16.6395 38.1549L17.4687 38.16L17.5367 38.6814C17.7239 40.1172 18.6551 41.0395 20.0264 41.1474L20.7137 41.2016L20.771 41.811C20.8764 42.9297 21.5081 43.8784 22.4289 44.3005C22.9052 44.5189 23.956 44.5261 24.4181 44.3143L24.7682 44.1538L24.8386 44.5652C25.068 45.9066 26.0395 46.853 27.2937 46.9567C27.9842 47.0138 28.5189 46.8453 29.1086 46.3846L29.5374 46.0496L30.0122 46.4471C30.5597 46.9056 31.3578 47.1363 32.0193 47.0275C33.0902 46.8514 34.0922 45.7611 34.2067 44.6477C34.236 44.3619 34.2914 44.1067 34.3298 44.0806C34.3683 44.0547 34.5839 44.0806 34.809 44.1386C35.3632 44.2809 36.1631 44.0921 36.757 43.679C37.3709 43.2519 37.8359 42.3805 37.9284 41.4838L37.9962 40.8268L38.337 40.897C38.9623 41.0256 39.8234 40.6531 40.4225 39.9947C40.9314 39.4354 41.051 39.1689 41.2358 38.1829C41.2883 37.9027 41.3258 37.8778 41.5778 37.9552C42.0568 38.1022 43.0845 38.0403 43.4239 37.844C43.5985 37.7429 43.9343 37.4487 44.17 37.1901C44.7535 36.55 44.968 35.818 44.8926 34.7243L44.8351 33.89L46.6132 32.835C47.5911 32.2548 48.4258 31.764 48.468 31.7442C48.5102 31.7242 48.6646 31.9677 48.8111 32.285C48.9927 32.6779 49.1415 32.8618 49.278 32.8618C49.4519 32.8618 51.1953 32.044 52.8481 31.2263C52.8829 30.8552 52.9088 30.4816 52.9258 30.1057C52.7255 30.2034 52.5051 30.3104 52.2626 30.4277C50.8228 31.124 49.6136 31.662 49.5753 31.6231C49.4334 31.4792 42.9409 15.8703 42.9973 15.8086C43.0446 15.7566 45.6391 14.4789 47.1297 13.762C46.8987 13.5027 46.6619 13.2486 46.4195 13C44.5045 13.9373 41.9526 15.2468 41.9011 15.3522C41.8313 15.4954 41.8916 15.7609 42.1184 16.3096C42.4814 17.1879 42.4651 17.2359 41.6785 17.6071C41.21 17.8282 41.0321 17.8518 40.3206 17.7867C38.9572 17.6619 36.6438 17.1845 35.2704 16.7443C32.7277 15.9296 32.4792 15.8771 31.8158 16.0142C31.4856 16.0825 30.7881 16.3078 30.2657 16.5149L29.3161 16.8915L28.4471 16.4342C27.0326 15.6897 26.8523 15.702 23.6129 16.7644C21.7473 17.3763 20.4093 17.6442 18.5606 17.7761C17.5915 17.8452 17.565 17.8402 17.0213 17.4905C16.7142 17.2931 16.4905 17.0748 16.5186 17C16.5467 16.9259 16.6845 16.5836 16.825 16.2392C16.9931 15.8277 17.0539 15.5343 17.0027 15.3836C16.9459 15.2166 16.0649 14.7388 13.7727 13.6318C13.5638 13.5309 13.3583 13.4318 13.1585 13.3357C12.9246 13.5854 12.6962 13.8404 12.4735 14.1004ZM50.9879 19.7457C51.1032 20.0211 51.2112 20.2787 51.3077 20.5087C51.3193 20.5361 51.3308 20.5636 51.3423 20.591C51.2296 20.3064 51.1114 20.0246 50.9879 19.7457ZM27.9516 17.3808C27.9803 17.3298 27.8165 17.2057 27.5873 17.1051C27.0576 16.8726 26.4583 16.8851 25.67 17.145C22.3045 18.2548 21.6965 18.4134 19.9684 18.6327C17.5786 18.9359 17.5082 18.9321 16.7351 18.4579C16.3768 18.2381 16.0625 18.0971 16.0368 18.1448C15.6623 18.8416 10.7845 30.7524 10.8462 30.8192C10.9686 30.9513 14.5143 33.2033 14.6 33.2033C14.6392 33.2033 15.3711 32.4341 16.2267 31.494C17.918 29.6356 18.2633 29.3949 19.2305 29.4003C19.9381 29.4043 20.4805 29.6229 20.959 30.0971C21.4926 30.6259 21.7336 31.0846 21.8729 31.8371L21.9891 32.4633L22.6742 32.4244C23.5476 32.375 24.1593 32.6218 24.738 33.2566C25.2094 33.7737 25.5143 34.5657 25.5143 35.2729V35.7081L26.1111 35.7092C27.4832 35.7117 28.5716 36.7787 28.7815 38.3267L28.8509 38.8391L29.4773 38.7999C30.5074 38.7353 31.5794 39.3677 32.0182 40.2987C32.2928 40.8812 34.3056 42.9189 34.7829 43.0974C35.8357 43.4914 37.0401 42.5088 37.0325 41.2621C37.028 40.5377 36.6919 40.0188 35.2911 38.5747C34.5427 37.8031 33.899 37.0634 33.8607 36.9309C33.8106 36.7579 33.8565 36.6318 34.0233 36.4837C34.151 36.3701 34.3037 36.2774 34.3625 36.2774C34.4214 36.2774 35.1322 36.9933 35.9422 37.8682C37.833 39.911 38.3894 40.2127 39.3124 39.6961C39.8057 39.4201 40.1136 39.0051 40.2562 38.4241C40.4809 37.5087 40.3623 37.2831 38.6687 35.4041C37.2795 33.863 37.1191 33.6453 37.1791 33.3832C37.2312 33.1553 37.3112 33.0895 37.536 33.0895C37.7682 33.0895 38.1556 33.4368 39.4939 34.8452C40.4115 35.8108 41.3526 36.7074 41.5852 36.8376C42.4829 37.34 43.3938 36.987 43.8837 35.9472C44.0609 35.5714 44.0453 34.6783 43.8547 34.2762C43.6853 33.9189 42.0014 32.1569 40.3268 30.5847C38.0507 28.4478 34.8776 26.0115 32.4681 24.5513C31.9258 24.2226 31.2953 23.8345 31.067 23.689L30.6518 23.4246L29.935 23.7567C29.5408 23.9394 29.1036 24.2055 28.9636 24.3481C28.8235 24.4907 28.4585 25.1794 28.1523 25.8784C27.2002 28.0526 26.0615 29.1073 24.5662 29.2C22.8786 29.3046 21.6116 28.1631 21.8363 26.7404C22.0011 25.6967 22.7218 22.3597 22.9621 21.5279C23.5395 19.5292 24.3889 18.7502 27.0442 17.7846C27.5144 17.6136 27.9228 17.4319 27.9516 17.3808ZM39.5122 18.6922C37.7134 18.4447 36.448 18.1567 34.509 17.5533C32.8459 17.0357 32.2622 16.9145 31.8554 17.0025C31.38 17.1055 26.0825 19.2272 25.5081 19.5449C24.3606 20.1793 23.9964 20.8914 23.3852 23.6966C22.7449 26.6358 22.6658 27.1379 22.7944 27.4475C22.9684 27.8666 23.6773 28.217 24.3643 28.2234C25.5757 28.2348 26.4303 27.4113 27.3864 25.3113C27.7336 24.5484 28.1132 23.8129 28.2296 23.677C28.5551 23.2969 29.9711 22.5842 30.5172 22.5256C30.9499 22.4791 31.0972 22.531 31.8146 22.9828C32.2596 23.2631 33.0208 23.7408 33.506 24.0444C36.6308 25.9996 40.3316 29.0636 43.1948 32.0663L44.2051 33.1258L44.5898 32.8944C44.8014 32.767 45.6868 32.2427 46.5573 31.7293C47.4277 31.2158 48.14 30.7732 48.14 30.7459C48.14 30.699 42.9729 18.3163 42.8863 18.1558C42.8638 18.114 42.5676 18.2321 42.2281 18.4182C41.3794 18.8834 41.1038 18.9112 39.5122 18.6922ZM20.944 32.8191C21.1814 31.8892 20.787 30.98 19.9699 30.5728C19.5024 30.34 19.2064 30.3212 18.6694 30.4903C18.2316 30.6282 15.2376 33.8191 14.9737 34.4293C14.7402 34.969 14.8123 35.8932 15.1255 36.3757C15.5892 37.0902 16.5071 37.3713 17.2555 37.0283C17.4473 36.9403 18.325 36.0782 19.2056 35.1125C20.5899 33.5945 20.8254 33.2838 20.944 32.8191ZM24.5322 35.7871C24.677 34.9313 24.4415 34.2369 23.8393 33.7435C23.3557 33.3476 22.4829 33.295 21.9337 33.6289C21.8195 33.6984 21.0183 34.5404 20.1531 35.5001C18.842 36.9546 18.5602 37.3273 18.4602 37.7386C18.247 38.6157 18.5645 39.4615 19.2702 39.8965C19.7458 40.1898 20.5035 40.231 20.9269 39.9866C21.081 39.8977 21.9387 39.0139 22.833 38.0226C24.1951 36.5128 24.4708 36.1502 24.5322 35.7871ZM27.8674 38.3687C27.7821 37.7917 27.3658 37.1456 26.935 36.9213C26.4446 36.6661 25.6465 36.6785 25.2549 36.9476C24.7658 37.2837 21.9083 40.5122 21.785 40.8682C21.2828 42.3171 22.5218 43.8405 23.8797 43.4439C24.2452 43.3371 24.6009 43.0104 25.955 41.5376C27.7163 39.6219 27.9866 39.174 27.8674 38.3687ZM31.3942 41.4295C31.3107 40.8646 30.8909 40.2178 30.4638 39.9954C29.9719 39.7394 29.1748 39.7525 28.7836 40.023C28.2914 40.3633 25.9515 43.0174 25.8309 43.3721C25.5517 44.1934 25.8117 45.0943 26.4815 45.6265C26.8219 45.8971 26.999 45.9549 27.4863 45.9549C28.2281 45.9549 28.4656 45.7735 30.0408 44.005C31.2684 42.6267 31.5049 42.1769 31.3942 41.4295ZM32.7913 45.5133C33.5292 44.7039 33.5378 43.6398 32.8137 42.7605C32.6103 42.5136 32.4091 42.3116 32.3663 42.3116C32.3236 42.3116 32.2073 42.5456 32.1077 42.8317C31.9869 43.1785 31.6346 43.6808 31.0497 44.34L30.1728 45.3282L30.4642 45.5844C31.1999 46.231 32.1639 46.2015 32.7913 45.5133Z" fill="#0072AA"/>
</svg>
