<svg width="200" height="251" viewBox="0 0 200 251" fill="none" xmlns="http://www.w3.org/2000/svg">
<g filter="url(#filter0_d_158_12375)">
<path fill-rule="evenodd" clip-rule="evenodd" d="M25.5 207.324V33.076C25.5 28.6175 29.1176 24.9999 33.5761 24.9999H104.178L164.63 85.4519V207.324C164.63 211.782 161.012 215.4 156.553 215.4H33.5761C29.1176 215.4 25.5 211.782 25.5 207.324Z" fill="white"/>
<path d="M26 33.076V207.324C26 211.506 29.3937 214.9 33.5761 214.9H156.553C160.736 214.9 164.13 211.506 164.13 207.324V85.659L103.97 25.4999H33.5761C29.3937 25.4999 26 28.8936 26 33.076Z" stroke="black" stroke-opacity="0.1"/>
<path fill-rule="evenodd" clip-rule="evenodd" d="M104.178 24.9999L164.63 85.4519H112.254C107.795 85.4519 104.178 81.8343 104.178 77.3758V24.9999Z" fill="#F0F0F0"/>
</g>
<defs>
<filter id="filter0_d_158_12375" x="0.5" y="0" width="199.13" height="250.4" filterUnits="userSpaceOnUse" color-interpolation-filters="sRGB">
<feFlood flood-opacity="0" result="BackgroundImageFix"/>
<feColorMatrix in="SourceAlpha" type="matrix" values="0 0 0 0 0 0 0 0 0 0 0 0 0 0 0 0 0 0 127 0" result="hardAlpha"/>
<feOffset dx="5" dy="5"/>
<feGaussianBlur stdDeviation="15"/>
<feComposite in2="hardAlpha" operator="out"/>
<feColorMatrix type="matrix" values="0 0 0 0 0 0 0 0 0 0 0 0 0 0 0 0 0 0 0.05 0"/>
<feBlend mode="normal" in2="BackgroundImageFix" result="effect1_dropShadow_158_12375"/>
<feBlend mode="normal" in="SourceGraphic" in2="effect1_dropShadow_158_12375" result="shape"/>
</filter>
</defs>
</svg>
