<svg width="60" height="60" viewBox="0 0 60 60" fill="none" xmlns="http://www.w3.org/2000/svg">
<rect width="60" height="60" rx="30" fill="#0072AA" fill-opacity="0.1"/>
<path fill-rule="evenodd" clip-rule="evenodd" d="M30.0647 16.1026C29.9769 16.1539 29.7078 16.547 29.4664 16.9757C29.0039 17.7979 28.9678 17.8183 27.6911 17.983C27.0328 18.0679 26.5953 18.3013 26.5953 18.5677C26.5953 18.6377 26.9404 19.0201 27.3624 19.4171L28.1293 20.139L27.9908 20.9463C27.8104 21.9979 27.912 22.3649 28.384 22.3649C28.5821 22.3649 28.939 22.2748 29.1773 22.1647C29.4153 22.0546 29.6265 21.983 29.6465 22.0057C29.6664 22.0283 28.2835 23.6412 26.5735 25.5899C24.5994 27.8398 23.4645 29.2386 23.4645 29.422C23.4645 29.8122 23.6757 29.9395 24.6385 30.1297C25.0885 30.2186 25.4568 30.3395 25.4568 30.3987C25.4568 30.4577 24.4118 31.6363 23.1347 33.0176C20.4372 35.9353 20.2804 36.1327 20.397 36.4612C20.4755 36.6822 21.5621 37.2005 22.4343 37.433C22.7284 37.5114 22.588 37.6828 20.7977 39.4302C17.5674 42.5832 17.5296 42.6498 18.7099 43.102C23.4747 44.9274 35.4897 45.1261 41.0176 43.4708C42.4153 43.0524 42.8187 42.8187 42.8187 42.4277C42.8187 42.2865 42.0054 41.3853 40.9331 40.3383C39.8961 39.3258 38.8407 38.2804 38.5881 38.0151L38.1287 37.5327L39.0017 37.2482C39.8342 36.9769 40.5418 36.5138 40.5418 36.2401C40.5418 36.1428 36.7335 31.9254 35.4574 30.6094C35.2679 30.4141 35.3367 30.3726 36.2581 30.1274C37.0927 29.9053 37.2813 29.8049 37.3544 29.5445C37.403 29.3715 37.3805 29.1591 37.3043 29.0726C37.2282 28.9861 35.868 27.4271 34.2815 25.6082C32.695 23.7894 31.3253 22.2209 31.2376 22.1226C31.1188 21.9895 31.1941 21.9977 31.5335 22.1544C32.1076 22.4197 32.6979 22.4249 32.809 22.1658C32.8561 22.0563 32.8294 21.5555 32.7498 21.0529L32.6051 20.139L33.3862 19.4224C33.9935 18.8654 34.1466 18.6473 34.0742 18.4431C34.0229 18.2987 33.8721 18.1521 33.7392 18.1175C33.5284 18.0626 31.8817 17.7859 31.7656 17.7859C31.742 17.7859 31.5213 17.4283 31.2752 16.991C30.7338 16.0288 30.4928 15.8519 30.0647 16.1026ZM31.4636 18.886C31.7603 18.9285 32.0031 19.0032 32.0031 19.0519C32.0031 19.1007 31.8382 19.2793 31.6364 19.4486C31.3145 19.7189 31.281 19.8234 31.3619 20.3054L31.4539 20.8543L31.024 20.6557C30.7876 20.5464 30.4918 20.457 30.3665 20.457C30.2413 20.457 29.9454 20.5464 29.7091 20.6557L29.2791 20.8543L29.3712 20.3054C29.4521 19.8234 29.4186 19.7189 29.0967 19.4486C28.8949 19.2793 28.73 19.1007 28.73 19.0519C28.73 19.0032 28.9756 18.9281 29.2757 18.8851C29.7112 18.8229 29.8754 18.7176 30.0886 18.3638L30.3559 17.9203L30.6399 18.3647C30.8632 18.7137 31.0398 18.8255 31.4636 18.886ZM33.1318 26.1161C34.7786 28.0012 35.6263 29.07 35.5171 29.1236C35.4237 29.1691 34.8031 29.3108 34.1378 29.4384C32.4635 29.7594 28.607 29.7612 26.813 29.4418C26.1109 29.3168 25.451 29.1718 25.3465 29.1195C25.2092 29.0508 25.8732 28.2061 27.743 26.0707C29.1656 24.4462 30.3852 23.1337 30.4532 23.1543C30.5212 23.1748 31.7266 24.5077 33.1318 26.1161ZM30.5089 30.8231C31.3698 30.8231 32.4853 30.7945 32.9878 30.7595L33.9011 30.6959L36.3654 33.3626C37.7207 34.8293 38.7788 36.0746 38.7166 36.1302C38.4699 36.3508 35.7046 36.8745 34.08 37.0085C31.9072 37.1875 26.82 37.0774 25.1011 36.8139C23.7223 36.6026 22.329 36.2688 22.1343 36.1031C22.0681 36.0468 23.1248 34.7923 24.4824 33.3153L26.9511 30.6299L27.9473 30.7266C28.4952 30.7796 29.6479 30.8231 30.5089 30.8231ZM27.0934 38.1403C27.7978 38.2045 29.3668 38.2575 30.58 38.2583C32.5211 38.2593 33.5994 38.198 36.1301 37.9428L36.7705 37.8782L38.9052 39.9921C40.0792 41.1547 41.0593 42.1524 41.0831 42.209C41.1423 42.3496 39.7691 42.6961 38.0453 42.9754C33.137 43.7709 25.0631 43.5839 20.8932 42.5783C20.2656 42.427 19.7719 42.2503 19.796 42.1857C19.82 42.1211 20.7991 41.1197 21.9716 39.9603L24.1035 37.8525L24.958 37.9381C25.4281 37.9852 26.389 38.0762 27.0934 38.1403Z" fill="#0072AA"/>
</svg>
