<svg width="149" height="149" viewBox="0 0 149 149" fill="none" xmlns="http://www.w3.org/2000/svg">
<path d="M138.703 87.6984C138.122 87.5276 137.706 87.2335 137.455 86.8158C137.205 86.4007 137.132 85.8939 137.24 85.2952C137.315 84.877 137.485 84.5255 137.751 84.2402C138.018 83.9575 138.358 83.7626 138.771 83.6555C139.188 83.5488 139.643 83.5382 140.135 83.6238L140.867 83.7547C141.368 83.8442 141.796 84.0114 142.151 84.2562C142.507 84.5009 142.761 84.8059 142.911 85.171C143.063 85.5392 143.102 85.9375 143.025 86.3658C142.917 86.9697 142.668 87.4166 142.278 87.7064C141.89 87.9992 141.402 88.1225 140.817 88.0764L140.903 87.5963C141.882 87.649 142.453 87.2146 142.619 86.2932C142.71 85.7822 142.592 85.3403 142.264 84.9674C141.937 84.5971 141.436 84.3518 140.762 84.2312L140.072 84.108C139.422 83.9916 138.877 84.046 138.437 84.271C137.997 84.4985 137.732 84.8639 137.643 85.3671C137.553 85.8653 137.605 86.2621 137.797 86.5574C137.992 86.8532 138.323 87.0735 138.789 87.2183L138.703 87.6984Z" fill="white"/>
<path d="M141.243 93.6275L141.114 94.094L135.593 92.5753L135.722 92.1089L140.447 93.4086L136.586 88.9656L136.715 88.4954L142.236 90.0139L142.107 90.4842L137.386 89.1856L141.243 93.6275Z" fill="white"/>
<path d="M135.172 99.0994C134.632 98.8261 134.274 98.4616 134.105 98.0056C133.933 97.552 133.954 97.0404 134.168 96.471C134.317 96.0734 134.548 95.7584 134.862 95.5261C135.175 95.2965 135.546 95.1663 135.971 95.1357C136.399 95.106 136.849 95.1778 137.319 95.3514L138.014 95.6124C138.491 95.7911 138.881 96.033 139.187 96.338C139.492 96.6431 139.687 96.9889 139.769 97.3752C139.852 97.7649 139.817 98.1634 139.664 98.571C139.448 99.1454 139.123 99.5397 138.687 99.7541C138.252 99.972 137.751 100.005 137.183 99.8537L137.354 99.3972C138.307 99.6259 138.948 99.3021 139.277 98.4259C139.46 97.9399 139.424 97.4839 139.169 97.0579C138.914 96.6344 138.465 96.3024 137.825 96.0621L137.169 95.8162C136.551 95.584 136.005 95.5389 135.531 95.6805C135.057 95.8247 134.731 96.136 134.551 96.6146C134.372 97.0885 134.352 97.488 134.488 97.8132C134.626 98.1394 134.911 98.4159 135.344 98.6428L135.172 99.0994Z" fill="white"/>
<path d="M136.269 105.169L137.1 103.391L132.287 101.141L132.492 100.703L137.304 102.953L138.134 101.179L138.508 101.354L136.642 105.344L136.269 105.169Z" fill="white"/>
<path d="M131.676 108.171L133.004 105.845L130.976 104.687L129.449 107.361L129.094 107.158L130.86 104.064L135.833 106.904L134.076 109.981L133.717 109.776L135.234 107.119L133.359 106.048L132.031 108.374L131.676 108.171Z" fill="white"/>
<path d="M132.661 112.293L127.319 111.087L130.21 115.742L129.836 116.268L125.169 112.95L125.449 112.556L127.481 114.001L129.542 115.514L126.661 110.851L126.878 110.546L132.208 111.73L130.13 110.301L128.085 108.848L128.365 108.453L133.033 111.771L132.661 112.293Z" fill="white"/>
<path d="M124.09 117.467L125.788 121.104L125.414 121.534L123.252 116.716L123.14 116.431C122.949 115.896 123.031 115.425 123.385 115.018C123.49 114.897 123.582 114.814 123.661 114.768L123.929 115.058C123.879 115.088 123.8 115.165 123.691 115.289C123.478 115.535 123.432 115.841 123.554 116.208L123.623 116.398L123.846 116.921L128.445 118.052L128.081 118.47L124.09 117.467Z" fill="white"/>
<path d="M117.473 124.913L118.076 124.407L116.349 122.349L116.72 122.039L120.401 126.425L120.03 126.736L118.341 124.723L117.757 125.214L117.75 128.649L117.283 129.041L117.274 125.373L113.469 124.766L113.93 124.379L117.473 124.913Z" fill="white"/>
<path d="M110.83 129.778C110.528 129.346 110.337 128.914 110.259 128.483C110.179 128.052 110.216 127.652 110.37 127.282C110.523 126.912 110.782 126.6 111.145 126.346C111.693 125.963 112.272 125.848 112.883 126.003C113.495 126.16 114.034 126.572 114.5 127.238L114.838 127.721C115.138 128.149 115.327 128.579 115.407 129.013C115.486 129.451 115.448 129.854 115.294 130.225C115.142 130.597 114.885 130.909 114.524 131.162C114.164 131.414 113.785 131.55 113.388 131.568C112.989 131.588 112.603 131.492 112.231 131.279C111.858 131.066 111.522 130.753 111.222 130.338L110.83 129.778ZM111.582 130.009C111.978 130.574 112.415 130.928 112.895 131.069C113.374 131.21 113.836 131.125 114.281 130.814C114.717 130.508 114.952 130.104 114.987 129.6C115.02 129.099 114.836 128.561 114.433 127.986L114.09 127.496C113.701 126.94 113.263 126.588 112.777 126.442C112.292 126.298 111.829 126.381 111.386 126.691C110.937 127.005 110.699 127.41 110.672 127.906C110.646 128.404 110.834 128.94 111.235 129.513L111.582 130.009Z" fill="white"/>
<path d="M103.856 130.945L104.281 130.706L105.625 133.1L108.478 131.498L107.134 129.105L107.556 128.868L110.359 133.861L109.937 134.098L108.678 131.855L105.825 133.457L107.084 135.699L106.658 135.938L103.856 130.945Z" fill="white"/>
<path d="M100.549 138.365L102.339 137.559L100.16 132.714L100.601 132.515L102.78 137.361L104.566 136.558L104.735 136.935L100.718 138.74L100.549 138.365Z" fill="white"/>
<path d="M97.5522 136.328L96.7741 134.13L97.23 133.969L99.1406 139.366L97.3017 140.017C96.7408 140.216 96.2476 140.229 95.8223 140.057C95.3947 139.886 95.092 139.549 94.9144 139.048C94.735 138.541 94.7534 138.094 94.9693 137.706C95.1837 137.32 95.5873 137.024 96.1805 136.814L97.5522 136.328ZM97.6887 136.714L96.3058 137.204C95.8634 137.359 95.5633 137.585 95.4053 137.876C95.2473 138.169 95.2348 138.503 95.3678 138.879C95.4999 139.252 95.721 139.507 96.0312 139.645C96.3398 139.786 96.7075 139.784 97.1343 139.639L98.5469 139.138L97.6887 136.714Z" fill="white"/>
<path d="M88.979 139.163C88.8471 138.653 88.82 138.182 88.8978 137.75C88.973 137.319 89.1475 136.957 89.4211 136.664C89.6946 136.371 90.0458 136.17 90.4748 136.058C91.1219 135.891 91.7046 135.986 92.2227 136.346C92.7413 136.707 93.1026 137.28 93.3062 138.068L93.454 138.638C93.5847 139.143 93.6114 139.613 93.5343 140.048C93.4552 140.486 93.2789 140.851 93.0054 141.143C92.7325 141.439 92.3828 141.641 91.9565 141.751C91.53 141.863 91.1278 141.856 90.7497 141.735C90.369 141.614 90.0414 141.389 89.7664 141.06C89.4915 140.73 89.2863 140.318 89.1506 139.825L88.979 139.163ZM89.6031 139.644C89.7758 140.311 90.0622 140.794 90.462 141.095C90.8619 141.394 91.3246 141.476 91.85 141.341C92.3652 141.208 92.7271 140.911 92.9357 140.451C93.1424 139.993 93.1577 139.425 92.9818 138.745L92.8319 138.166C92.6619 137.508 92.3746 137.026 91.9702 136.719C91.5664 136.416 91.103 136.331 90.5802 136.465C90.0497 136.603 89.685 136.899 89.4859 137.354C89.2875 137.812 89.2759 138.379 89.4513 139.057L89.6031 139.644Z" fill="white"/>
<path d="M82.968 143.458L82.0896 137.8L82.5676 137.726L83.3827 142.976L85.7726 142.605L85.5416 140.244C85.4634 139.4 85.4492 138.778 85.4989 138.381C85.5464 137.986 85.6566 137.688 85.8296 137.485C86.0004 137.287 86.255 137.158 86.5936 137.1L86.7957 137.069L86.8584 137.473L86.7036 137.502C86.4388 137.555 86.251 137.671 86.1404 137.848C86.0299 138.024 85.9652 138.291 85.9465 138.649C85.9257 139.01 85.9511 139.559 86.0227 140.294L86.2906 142.942L82.968 143.458Z" fill="white"/>
<path d="M76.839 138.233L76.9828 140.561L78.6274 140.46L79.7318 138.054L80.2538 138.022L79.0597 140.567C79.4366 140.672 79.7298 140.848 79.9394 141.096C80.1491 141.343 80.2655 141.653 80.2886 142.028C80.322 142.566 80.178 142.998 79.8565 143.323C79.5326 143.651 79.0606 143.833 78.4404 143.871L76.7055 143.978L76.3523 138.264L76.839 138.233ZM79.8061 142.061C79.7828 141.684 79.6463 141.389 79.3966 141.173C79.1442 140.957 78.81 140.863 78.3939 140.888L77.0083 140.973L77.1667 143.537L78.4306 143.459C78.8964 143.429 79.2492 143.294 79.4889 143.051C79.7263 142.809 79.8319 142.48 79.8061 142.061Z" fill="white"/>
<path d="M67.8831 140.712L68.6661 140.787L68.9245 138.115L69.406 138.161L68.8549 143.86L68.3734 143.813L68.6262 141.198L67.8668 141.126L65.4102 143.527L64.8035 143.468L67.4153 140.892L65.1824 137.752L65.7812 137.81L67.8831 140.712Z" fill="white"/>
<path d="M61.0299 138.652L63.5888 139.11L64.4519 137.634L64.9514 137.724L61.8101 142.978L61.3572 142.898L60.2324 136.88L60.7279 136.968L61.0299 138.652ZM63.3689 139.491L61.1082 139.085L61.6895 142.358L63.3689 139.491Z" fill="white"/>
<path d="M54.1099 141.214L55.5655 135.677L56.0372 135.801L55.3753 138.319C55.933 138.311 56.4516 138.37 56.9308 138.496C57.5597 138.661 57.988 138.919 58.2159 139.269C58.4437 139.618 58.4875 140.076 58.3472 140.641L57.9323 142.22L57.4606 142.095L57.8686 140.543C57.984 140.095 57.9597 139.738 57.7957 139.476C57.6283 139.214 57.305 139.021 56.8258 138.895C56.3415 138.767 55.823 138.71 55.2703 138.718L54.5814 141.339L54.1099 141.214Z" fill="white"/>
<path d="M50.5306 136.872L53.0585 137.757L53.8297 135.551L50.9231 134.535L51.058 134.148L54.4213 135.324L52.5311 140.73L49.1864 139.559L49.3228 139.17L52.2108 140.181L52.9236 138.142L50.3956 137.259L50.5306 136.872Z" fill="white"/>
<path d="M45.1964 133.59C45.4996 133.065 45.8835 132.73 46.3485 132.585C46.811 132.439 47.3205 132.489 47.8771 132.734C48.2657 132.905 48.5672 133.154 48.7814 133.481C48.9933 133.806 49.1026 134.182 49.1092 134.61C49.1148 135.038 49.0179 135.483 48.8183 135.943L48.5187 136.622C48.3136 137.088 48.0501 137.465 47.7283 137.752C47.4067 138.041 47.0506 138.214 46.6604 138.275C46.2665 138.336 45.8705 138.279 45.4723 138.104C44.9109 137.856 44.5353 137.509 44.3458 137.061C44.1526 136.615 44.1476 136.113 44.3306 135.555L44.7768 135.751C44.4949 136.691 44.7823 137.348 45.6387 137.726C46.1138 137.935 46.5711 137.924 47.0107 137.695C47.4478 137.462 47.8044 137.034 48.0803 136.407L48.3626 135.767C48.629 135.163 48.7047 134.621 48.5898 134.14C48.4725 133.659 48.18 133.315 47.7121 133.108C47.2491 132.904 46.8514 132.861 46.519 132.978C46.1856 133.098 45.8935 133.367 45.6427 133.787L45.1964 133.59Z" fill="white"/>
<path d="M39.0547 134.327L40.7834 135.254L43.2978 130.575L43.724 130.804L41.2094 135.484L42.9346 136.41L42.7393 136.774L38.8593 134.689L39.0547 134.327Z" fill="white"/>
<path d="M40.5219 129.014L37.4128 133.823L35.9928 132.904C35.4776 132.571 35.1558 132.212 35.0275 131.826C34.8978 131.443 34.9668 131.044 35.2343 130.63C35.3953 130.381 35.6037 130.208 35.8599 130.112C36.1122 130.016 36.3819 130.004 36.6688 130.077C36.429 129.835 36.2934 129.552 36.2619 129.229C36.2283 128.904 36.3019 128.602 36.4827 128.323C36.7575 127.898 37.11 127.654 37.5403 127.592C37.9671 127.531 38.4249 127.658 38.9137 127.974L40.5219 129.014ZM38.6209 131.063L39.8936 129.095L38.675 128.307C38.3272 128.082 37.995 127.992 37.6786 128.038C37.3586 128.084 37.0967 128.264 36.8932 128.579C36.701 128.876 36.6473 129.174 36.7322 129.472C36.8135 129.771 37.0258 130.032 37.3693 130.254L38.6209 131.063ZM38.4009 131.404L37.2913 130.686C36.9481 130.473 36.6348 130.383 36.3517 130.416C36.0648 130.449 35.8268 130.612 35.6374 130.905C35.4381 131.213 35.3884 131.502 35.4882 131.773C35.5843 132.044 35.8272 132.306 36.2169 132.558L37.2308 133.213L38.4009 131.404Z" fill="white"/>
<path d="M32.8265 125.584L34.8888 127.166L36.3336 126.252L36.736 126.561L31.5314 129.785L31.1664 129.505L32.9326 123.643L33.332 123.95L32.8265 125.584ZM34.5189 127.403L32.6968 126.005L31.7095 129.178L34.5189 127.403Z" fill="white"/>
<path d="M25.2979 116.812L24.8829 116.366L26.2017 115.145L26.5311 115.499L25.5144 116.445L28.4548 119.607L29.4714 118.662L29.8008 119.016L28.4846 120.24L28.2249 119.96C27.8041 119.954 27.3197 120.084 26.7721 120.35C26.2208 120.615 25.6782 120.971 25.1445 121.418L23.56 122.751L21.4042 120.433L25.2979 116.812ZM27.8419 119.548L25.6273 117.167L22.036 120.506L23.5463 122.13L24.8008 121.071C25.3233 120.632 25.8518 120.278 26.3865 120.01C26.9195 119.74 27.4047 119.586 27.8419 119.548Z" fill="#79797B"/>
<path d="M17.0836 115.058L21.6393 111.589L21.9323 111.974L17.7053 115.192L19.1704 117.117L21.1351 115.789C21.8405 115.317 22.38 115.009 22.7533 114.863C23.1229 114.717 23.4377 114.671 23.6977 114.727C23.954 114.782 24.1882 114.945 24.4006 115.215L24.5244 115.378L24.199 115.626L24.1006 115.503C23.9266 115.296 23.7357 115.186 23.5279 115.173C23.3201 115.16 23.0544 115.23 22.7303 115.385C22.4026 115.539 21.9331 115.822 21.3215 116.235L19.1206 117.733L17.0836 115.058Z" fill="#79797B"/>
<path d="M18.749 107.215L16.7768 108.459L17.6563 109.853L20.2959 109.666L20.575 110.108L17.7699 110.283C17.8585 110.664 17.8449 111.006 17.729 111.309C17.613 111.612 17.3965 111.863 17.0794 112.063C16.6227 112.351 16.1748 112.432 15.7357 112.307C15.293 112.18 14.9059 111.854 14.5742 111.328L13.6465 109.858L18.4887 106.802L18.749 107.215ZM16.8179 111.656C17.1372 111.455 17.3315 111.193 17.4006 110.87C17.4684 110.545 17.3911 110.206 17.1685 109.854L16.4277 108.68L14.2559 110.05L14.9318 111.121C15.1809 111.516 15.4698 111.76 15.7984 111.853C16.1234 111.946 16.4633 111.88 16.8179 111.656Z" fill="#79797B"/>
<path d="M9.14508 99.8616L10.3104 102.588L12.2161 101.774L11.6582 100.468C11.5047 100.109 11.4321 99.7723 11.4403 99.4581C11.4461 99.1447 11.5318 98.8716 11.6972 98.6383C11.8593 98.4036 12.0922 98.2215 12.3959 98.0917C12.8612 97.8927 13.2941 97.8917 13.6947 98.0883C14.0928 98.2859 14.4093 98.6596 14.6442 99.2093L15.3875 100.949L10.1223 103.199L8.76538 100.024L9.14508 99.8616ZM12.5958 101.612L14.8198 100.661L14.2634 99.3593C14.0893 98.9517 13.8533 98.6763 13.5553 98.5328C13.2549 98.3904 12.9299 98.3937 12.5804 98.5431C12.2477 98.6854 12.0311 98.909 11.9306 99.2143C11.8277 99.5206 11.8593 99.8748 12.0256 100.277L12.5958 101.612Z" fill="#79797B"/>
<path d="M9.8248 94.14L10.6803 96.6778L12.8939 95.9316L11.9103 93.0138L12.2978 92.8831L13.436 96.2594L8.01001 98.0884L6.87817 94.7308L7.26947 94.5988L8.24679 97.4982L10.2927 96.8085L9.43723 94.2706L9.8248 94.14Z" fill="#79797B"/>
<path d="M6.99799 89.4333C6.64958 89.5206 6.4065 89.7153 6.26872 90.0175C6.13094 90.3197 6.12039 90.7034 6.23706 91.1687C6.33779 91.5706 6.52782 91.8757 6.8071 92.084C7.08639 92.2924 7.39006 92.3555 7.71811 92.2732L7.83574 92.7425C7.54075 92.8164 7.25746 92.8022 6.98588 92.7C6.71174 92.5986 6.47381 92.4203 6.27207 92.1655C6.06715 91.9087 5.92196 91.6099 5.83654 91.2692C5.68606 90.6691 5.70162 90.165 5.8832 89.7574C6.06479 89.3497 6.40098 89.0843 6.89179 88.9612C7.17407 88.8905 7.44847 88.9176 7.71498 89.0427C7.98149 89.1678 8.20642 89.3695 8.38973 89.648C8.40193 88.8772 8.7577 88.4041 9.45704 88.2288C9.93767 88.1084 10.3673 88.1939 10.7458 88.4855C11.1237 88.7746 11.3895 89.2255 11.5431 89.8384C11.6362 90.2097 11.6511 90.5654 11.5877 90.9057C11.5218 91.2466 11.3888 91.5246 11.1887 91.7396C10.986 91.9553 10.7269 92.1027 10.4116 92.1818L10.294 91.7126C10.65 91.6233 10.909 91.411 11.0709 91.0758C11.2303 90.7413 11.2567 90.3617 11.1502 89.937C11.0297 89.4563 10.8298 89.1065 10.5505 88.8873C10.2687 88.6687 9.94851 88.6043 9.58993 88.6942C9.21101 88.7893 8.95903 88.9808 8.83395 89.2689C8.70633 89.5577 8.70311 89.9545 8.82425 90.4593L9.00214 91.1688L8.5978 91.2702L8.42565 90.5836C8.30706 90.1214 8.12849 89.7917 7.8899 89.5948C7.64878 89.3985 7.35146 89.3446 6.99799 89.4333Z" fill="#79797B"/>
<path d="M7.46344 82.6296C7.98417 82.5488 8.45552 82.5684 8.87746 82.6886C9.29901 82.8062 9.64194 83.0156 9.90626 83.3168C10.1706 83.6181 10.3367 83.9876 10.4047 84.4255C10.5073 85.0861 10.3544 85.6564 9.946 86.1363C9.53505 86.6167 8.92801 86.9192 8.12489 87.0439L7.54198 87.1343C7.02642 87.2145 6.55637 87.1945 6.13183 87.0747C5.70431 86.9527 5.35839 86.7412 5.09405 86.4399C4.82714 86.1391 4.6599 85.7711 4.59233 85.3357C4.52475 84.9005 4.57015 84.5008 4.72852 84.1366C4.88649 83.7699 5.1431 83.466 5.49837 83.2252C5.85364 82.9842 6.28328 82.8207 6.78726 82.7345L7.46344 82.6296ZM6.92364 83.2029C6.24228 83.3087 5.73253 83.5456 5.39438 83.9139C5.05621 84.2821 4.92877 84.7344 5.01202 85.2706C5.09368 85.7966 5.35314 86.1861 5.79041 86.4393C6.2247 86.6902 6.78899 86.7617 7.48332 86.6539L8.074 86.5622C8.745 86.4581 9.25326 86.2201 9.59878 85.848C9.94171 85.4764 10.0718 85.0236 9.98891 84.4901C9.90483 83.9486 9.64627 83.5562 9.21319 83.3131C8.77752 83.0703 8.21383 83.0026 7.52211 83.11L6.92364 83.2029Z" fill="#79797B"/>
<path d="M9.48259 76.0408L9.51056 76.5236L4.20646 76.831L4.3939 80.066L9.69801 79.7588L9.72599 80.2416L4.00964 80.5729L3.76624 76.3719L9.48259 76.0408Z" fill="#79797B"/>
<path d="M7.9411 70.3978L7.85081 72.9958L9.43388 73.641L9.41626 74.148L3.76904 71.7836L3.78502 71.3237L9.58274 69.3569L9.56526 69.86L7.9411 70.3978ZM7.44333 72.832L7.52309 70.5367L4.36651 71.5761L7.44333 72.832Z" fill="#79797B"/>
<path d="M8.32754 64.3346C8.91948 64.467 9.3539 64.7334 9.63081 65.1339C9.90802 65.5317 10.0127 66.0328 9.94484 66.6373C9.89747 67.0593 9.74998 67.4213 9.50238 67.7234C9.25508 68.0227 8.92869 68.2394 8.5232 68.3732C8.11511 68.5069 7.66209 68.547 7.16418 68.4937L6.42554 68.4108C5.92009 68.3541 5.48191 68.2152 5.11098 67.9941C4.74007 67.7732 4.46767 67.4854 4.29377 67.1307C4.11756 66.7733 4.05373 66.3783 4.10228 65.9458C4.17071 65.3361 4.39012 64.874 4.76048 64.5595C5.12854 64.242 5.60629 64.0871 6.19373 64.095L6.13932 64.5796C5.15927 64.591 4.61704 65.0618 4.51263 65.9919C4.45473 66.5077 4.60131 66.9411 4.9524 67.2918C5.30378 67.6399 5.81947 67.8521 6.49949 67.9285L7.19513 68.0065C7.85168 68.0802 8.39204 67.9905 8.8162 67.7373C9.24063 67.4816 9.48137 67.0997 9.5384 66.5916C9.59485 66.0888 9.51756 65.6963 9.30651 65.414C9.09288 65.1314 8.74842 64.9332 8.27315 64.8192L8.32754 64.3346Z" fill="#79797B"/>
<path d="M11.1227 59.1859L11.024 59.6635L8.33584 59.1081L7.67377 62.3124L10.362 62.8677L10.2641 63.3414L4.65662 62.1828L4.75449 61.7091L7.27323 62.2295L7.9353 59.0252L5.41656 58.5048L5.51523 58.0273L11.1227 59.1859Z" fill="#79797B"/>
<path d="M10.4075 52.3918C10.9106 52.5489 11.325 52.7742 11.6507 53.0682C11.9772 53.3596 12.1928 53.6987 12.2972 54.0856C12.4017 54.4726 12.3879 54.8774 12.2559 55.3004C12.0568 55.9387 11.6681 56.3831 11.09 56.6339C10.5094 56.8838 9.83117 56.8879 9.05532 56.6457L8.49221 56.47C7.99417 56.3145 7.58103 56.0896 7.25278 55.7948C6.92281 55.4968 6.70559 55.1544 6.60112 54.7675C6.49414 54.3798 6.50627 53.9758 6.63748 53.5554C6.76869 53.1348 6.98564 52.7961 7.28833 52.5391C7.5918 52.2795 7.95608 52.1199 8.38116 52.0603C8.80622 52.0007 9.26395 52.0432 9.75433 52.188L10.4075 52.3918ZM9.6703 52.6685C9.01208 52.4631 8.45004 52.4511 7.9842 52.6326C7.51835 52.814 7.20459 53.1638 7.04292 53.6818C6.88438 54.1899 6.94555 54.6539 7.22646 55.074C7.50564 55.4906 7.9806 55.8036 8.65133 56.0129L9.22194 56.191C9.87015 56.3933 10.4313 56.4037 10.9055 56.2221C11.3771 56.0396 11.6934 55.6906 11.8543 55.175C12.0175 54.6521 11.9583 54.1859 11.6768 53.7767C11.3928 53.3668 10.9167 53.0575 10.2484 52.8489L9.6703 52.6685Z" fill="#79797B"/>
<path d="M13.4782 46.643C14.0102 46.9343 14.3538 47.3107 14.5089 47.7722C14.6648 48.2312 14.6266 48.7417 14.3938 49.3036C14.2313 49.6961 13.9892 50.003 13.6676 50.2246C13.347 50.4437 12.9733 50.5613 12.5466 50.5775C12.1175 50.5928 11.6711 50.5058 11.2075 50.3166L10.5208 50.0321C10.0508 49.8375 9.66834 49.5826 9.37323 49.2674C9.07811 48.9522 8.89616 48.6003 8.82738 48.2114C8.75716 47.819 8.80534 47.4218 8.97187 47.0198C9.20663 46.4529 9.54553 46.0697 9.9886 45.8702C10.4302 45.6671 10.9322 45.6509 11.4944 45.8212L11.3078 46.2718C10.363 46.011 9.71152 46.313 9.35337 47.1778C9.15472 47.6574 9.17546 48.1143 9.41556 48.5486C9.65668 48.9804 10.0933 49.3273 10.7255 49.5892L11.3723 49.8571C11.9827 50.1099 12.5267 50.1735 13.0044 50.0478C13.4832 49.9198 13.8202 49.6195 14.0159 49.1471C14.2095 48.6797 14.2441 48.2812 14.1196 47.9515C13.9926 47.6207 13.7166 47.3348 13.2916 47.0935L13.4782 46.643Z" fill="#79797B"/>
<path d="M12.5327 40.6333L11.6425 42.3822L16.3774 44.7923L16.1581 45.2233L11.4231 42.8133L10.5348 44.5587L10.1667 44.3715L12.1647 40.446L12.5327 40.6333Z" fill="#79797B"/>
<path d="M15.1263 35.5122L15.3844 35.103L20.2266 38.1591L19.9685 38.5681L15.8247 35.9529L18.2284 41.3252L17.9682 41.7376L13.126 38.6816L13.3862 38.2691L17.5268 40.8823L15.1263 35.5122Z" fill="#79797B"/>
<path d="M20.768 28.0262L21.0789 27.6558L25.4651 31.3365L25.1542 31.707L21.4006 28.5571L23.0586 34.2044L22.7451 34.5778L18.3589 30.8973L18.6723 30.5237L22.423 33.6709L20.768 28.0262Z" fill="#79797B"/>
<path d="M31.8172 25.0414L31.4552 25.3683L29.6155 23.331L27.1872 25.524L29.027 27.5613L28.6679 27.8855L24.8303 23.636L25.1893 23.3117L26.9131 25.2205L29.3414 23.0275L27.6176 21.1187L27.9795 20.792L31.8172 25.0414Z" fill="white"/>
<path d="M35.1984 20.3317L33.1187 21.8914L33.6096 23.5289L33.2037 23.8333L31.5017 17.9524L31.8698 17.6763L37.0389 20.957L36.6362 21.259L35.1984 20.3317ZM32.9905 21.4713L34.8279 20.0933L32.0381 18.2874L32.9905 21.4713Z" fill="white"/>
<path d="M41.0301 17.9309L41.548 17.6093L42.4927 19.1382L42.0817 19.3934L41.3494 18.214L37.6811 20.4918L38.4133 21.6712L38.0023 21.9262L37.0543 20.3995L37.3784 20.1982C37.4652 19.7864 37.4309 19.2861 37.2753 18.6976C37.1205 18.1055 36.8755 17.5047 36.5402 16.895L35.536 15.0838L38.2255 13.4138L41.0301 17.9309ZM37.8561 19.9016L40.6192 18.1861L38.0324 14.0198L36.148 15.1898L36.9463 16.6245C37.2769 17.2216 37.5223 17.8082 37.6827 18.3845C37.8452 18.9594 37.9031 19.4652 37.8561 19.9016Z" fill="white"/>
<path d="M44.6378 13.3607L42.2467 14.5667L43.2986 16.6525L46.048 15.2658L46.2321 15.6311L43.0508 17.2355L40.4724 12.1229L43.6362 10.5273L43.8221 10.896L41.0903 12.2738L42.0624 14.2015L44.4537 12.9955L44.6378 13.3607Z" fill="white"/>
<path d="M50.1551 11.0167L49.5529 11.2478L50.5295 13.7921L50.0779 13.9654L49.1013 11.4211L48.4808 11.6592L47.6437 14.8997L47.0709 15.1196L47.9902 11.599L45.1514 9.72309L45.6984 9.51313L48.3072 11.2836L48.9533 11.0356L48.0261 8.61974L48.4777 8.4464L49.405 10.8623L50.0364 10.6199L50.7908 7.55864L51.3342 7.3501L50.4781 10.64L53.5217 12.6437L52.9527 12.8621L50.1551 11.0167Z" fill="white"/>
<path d="M58.9304 11.1535L58.4587 11.2775L57.761 8.6227L54.5964 9.45453L55.2943 12.1093L54.8265 12.2323L53.3708 6.6945L53.8387 6.57152L54.4925 9.05897L57.6569 8.22714L57.0031 5.7397L57.4747 5.61572L58.9304 11.1535Z" fill="white"/>
<path d="M64.7386 7.47747C64.8214 7.99788 64.8036 8.4693 64.685 8.89171C64.5691 9.3137 64.3609 9.65743 64.0607 9.92291C63.7604 10.1884 63.3916 10.3559 62.9541 10.4256C62.2938 10.5307 61.7229 10.38 61.2414 9.97346C60.7595 9.56434 60.4546 8.95846 60.3269 8.15582L60.2341 7.57326C60.1521 7.05802 60.1702 6.5879 60.2885 6.16292C60.4087 5.73492 60.6191 5.38818 60.9192 5.12271C61.2191 4.85464 61.5864 4.68599 62.0214 4.61675C62.4563 4.54751 62.8562 4.59137 63.2211 4.74834C63.5885 4.9049 63.8933 5.16035 64.1355 5.5147C64.3778 5.86905 64.5429 6.29805 64.6311 6.8017L64.7386 7.47747ZM64.1633 6.93988C64.0549 6.25892 63.8159 5.75008 63.4465 5.41334C63.0769 5.0766 62.6241 4.95087 62.0881 5.03619C61.5626 5.11986 61.174 5.38081 60.9226 5.81905C60.6733 6.25429 60.6039 6.81886 60.7144 7.51276L60.8084 8.1031C60.9151 8.77369 61.1551 9.28103 61.5284 9.62512C61.9014 9.96663 62.3545 10.0949 62.8879 10.01C63.429 9.9239 63.8203 9.66382 64.0619 9.22982C64.303 8.79323 64.3685 8.22928 64.2584 7.53797L64.1633 6.93988Z" fill="white"/>
<path d="M71.1624 7.66689C71.1389 8.273 70.9551 8.74832 70.6111 9.09287C70.2697 9.43724 69.7957 9.63053 69.1889 9.67274C68.7652 9.7022 68.3825 9.62237 68.0409 9.43326C67.7018 9.24397 67.4299 8.96197 67.2252 8.58725C67.0202 8.20992 66.899 7.77156 66.8617 7.2722L66.8101 6.53073C66.7748 6.02332 66.8324 5.56729 66.983 5.1626C67.1336 4.75791 67.3676 4.4381 67.685 4.20313C68.0048 3.96539 68.3819 3.83141 68.816 3.80122C69.4281 3.75864 69.9222 3.89117 70.2983 4.19877C70.677 4.50358 70.9153 4.9456 71.0134 5.52484L70.5269 5.55868C70.3391 4.59672 69.7784 4.1482 68.8447 4.21315C68.3268 4.24916 67.9271 4.47145 67.6453 4.88001C67.3662 5.28838 67.2504 5.83388 67.2979 6.5165L67.3465 7.21483C67.3923 7.87392 67.5779 8.38926 67.9034 8.76083C68.2315 9.13223 68.6506 9.3002 69.1606 9.26472C69.6653 9.22962 70.0375 9.08283 70.2771 8.82439C70.5164 8.56332 70.6495 8.18876 70.6759 7.70073L71.1624 7.66689Z" fill="white"/>
<path d="M76.426 4.13651L74.4636 4.11378L74.4021 9.42642L73.9185 9.42083L73.9799 4.10818L72.0216 4.0855L72.0264 3.67261L76.4307 3.7236L76.426 4.13651Z" fill="white"/>
<path d="M81.9439 4.149L82.4251 4.19742L81.8521 9.8946L81.3709 9.84619L81.8612 4.97072L78.1271 9.51992L77.6418 9.47111L78.2149 3.77393L78.7002 3.82273L78.2102 8.69429L81.9439 4.149Z" fill="white"/>
<path d="M90.8765 8.89833L90.1182 8.68973L89.4058 11.2795L88.9393 11.1513L90.4579 5.63037L90.9244 5.75866L90.2276 8.29159L90.9633 8.49394L93.7947 6.54822L94.3825 6.70988L91.3682 8.8011L93.0307 12.2767L92.4506 12.1171L90.8765 8.89833Z" fill="white"/>
<path d="M97.6766 12.2203L95.2359 11.3254L94.1297 12.6288L93.6534 12.4541L97.6591 7.82422L98.0911 7.98262L98.1543 14.1046L97.6817 13.9313L97.6766 12.2203ZM95.5185 10.9892L97.6747 11.7799L97.6703 8.45658L95.5185 10.9892Z" fill="white"/>
<path d="M103.204 13.4134L102.623 13.1337L101.441 15.5893L101.006 15.3797L102.187 12.9239L101.589 12.6357L98.6562 14.2489L98.1033 13.9828L101.296 12.2373L100.714 8.88477L101.242 9.13888L101.743 12.2517L102.367 12.5518L103.489 10.2201L103.925 10.4299L102.802 12.7616L103.412 13.0549L106.157 11.5043L106.681 11.7567L103.7 13.3901L104.329 16.9793L103.78 16.715L103.204 13.4134Z" fill="white"/>
<path d="M109.557 19.6705L110.073 19.9938L109.116 21.5151L108.706 21.2585L109.443 20.0818L105.783 17.7905L105.046 18.9672L104.636 18.7106L105.59 17.1873L105.913 17.3897C106.321 17.2863 106.755 17.0352 107.215 16.6365C107.679 16.2369 108.11 15.7524 108.51 15.183L109.695 13.4839L112.378 15.1637L109.557 19.6705ZM106.39 17.6881L109.147 19.4138L111.749 15.257L109.869 14.0802L108.932 15.4284C108.541 15.9882 108.123 16.4668 107.676 16.8644C107.231 17.2635 106.802 17.538 106.39 17.6881Z" fill="white"/>
<path d="M116.047 21.7699C115.725 22.1869 115.369 22.4968 114.98 22.6999C114.593 22.9045 114.2 22.9885 113.801 22.9517C113.402 22.915 113.027 22.7611 112.677 22.4901C112.148 22.0812 111.866 21.5622 111.833 20.9329C111.8 20.3016 112.033 19.6643 112.53 19.0214L112.891 18.5546C113.21 18.1419 113.565 17.833 113.955 17.6279C114.349 17.4222 114.746 17.3378 115.145 17.3746C115.546 17.4092 115.92 17.5613 116.269 17.8307C116.617 18.1001 116.859 18.4213 116.995 18.7946C117.133 19.1696 117.155 19.5666 117.063 19.9858C116.971 20.4051 116.772 20.8193 116.465 21.2286L116.047 21.7699ZM116.044 20.9825C116.466 20.437 116.673 19.9143 116.665 19.4144C116.657 18.9145 116.438 18.4987 116.009 18.1667C115.588 17.8412 115.131 17.737 114.64 17.8541C114.152 17.9707 113.693 18.3071 113.264 18.863L112.898 19.3359C112.483 19.8731 112.278 20.3955 112.283 20.9033C112.29 21.4089 112.507 21.8269 112.934 22.1572C113.368 22.4923 113.825 22.5991 114.307 22.4776C114.79 22.3541 115.246 22.0155 115.674 21.4616L116.044 20.9825Z" fill="white"/>
<path d="M122.203 23.5287L120.021 21.5147L116.418 25.4188L116.062 25.0906L119.946 20.8833L122.483 23.2253L122.203 23.5287Z" fill="white"/>
<path d="M124.693 30.1592C124.302 30.5125 123.897 30.7545 123.478 30.8854C123.061 31.0182 122.66 31.0312 122.273 30.9243C121.887 30.8174 121.545 30.5995 121.249 30.2706C120.8 29.7745 120.615 29.2138 120.694 28.5885C120.774 27.9614 121.116 27.3756 121.719 26.8309L122.157 26.4354C122.544 26.0857 122.948 25.8446 123.368 25.712C123.793 25.5795 124.198 25.5668 124.584 25.6736C124.973 25.7787 125.314 25.9949 125.609 26.3217C125.905 26.6486 126.086 27.0077 126.153 27.3991C126.222 27.7924 126.174 28.1872 126.009 28.5836C125.844 28.9798 125.575 29.3522 125.201 29.7007L124.693 30.1592ZM124.83 29.3839C125.342 28.9217 125.638 28.444 125.719 27.9505C125.799 27.4572 125.658 27.0091 125.294 26.6063C124.938 26.2114 124.507 26.028 124.002 26.0561C123.502 26.0844 122.991 26.3341 122.469 26.805L122.025 27.2056C121.522 27.6607 121.227 28.1386 121.142 28.6391C121.059 29.1379 121.199 29.5878 121.561 29.9886C121.928 30.3953 122.359 30.5815 122.855 30.5474C123.352 30.5114 123.861 30.2589 124.38 29.7898L124.83 29.3839Z" fill="white"/>
<path d="M129.353 40.9942L129.096 40.5841L133.599 37.765L131.88 35.0183L127.377 37.8374L127.12 37.4274L131.973 34.3892L134.206 37.9559L129.353 40.9942Z" fill="white"/>
<path d="M132.721 42.2086L130.643 43.2665L130.423 42.8353L135.527 40.238L136.412 41.9764C136.681 42.5067 136.758 42.994 136.644 43.438C136.53 43.8844 136.234 44.2283 135.76 44.4698C135.281 44.7135 134.836 44.7537 134.424 44.59C134.014 44.4278 133.667 44.0661 133.381 43.5053L132.721 42.2086ZM133.086 42.0231L133.751 43.3304C133.964 43.7485 134.226 44.017 134.536 44.1355C134.846 44.2541 135.179 44.2229 135.534 44.0422C135.887 43.8626 136.112 43.6101 136.207 43.2846C136.307 42.9603 136.257 42.596 136.057 42.1917L135.378 40.8565L133.086 42.0231Z" fill="white"/>
<path d="M136.656 50.3374C136.167 50.5335 135.704 50.6206 135.265 50.5986C134.828 50.5792 134.446 50.4524 134.122 50.2186C133.796 49.9846 133.551 49.6622 133.386 49.2509C133.137 48.6303 133.157 48.0404 133.447 47.4806C133.739 46.9201 134.262 46.4884 135.017 46.1858L135.565 45.9663C136.048 45.7721 136.511 45.6854 136.951 45.7065C137.395 45.7289 137.781 45.8571 138.106 46.0909C138.433 46.3238 138.679 46.6446 138.844 47.0535C139.008 47.4622 139.053 47.8619 138.981 48.2525C138.91 48.6454 138.728 48.9992 138.437 49.314C138.144 49.6288 137.763 49.885 137.292 50.0826L136.656 50.3374ZM137.053 49.6571C137.693 49.4005 138.136 49.0547 138.382 48.6196C138.629 48.1846 138.651 47.7153 138.449 47.2116C138.251 46.7176 137.911 46.3966 137.428 46.2486C136.947 46.102 136.382 46.1595 135.73 46.4211L135.175 46.6435C134.544 46.8964 134.103 47.2429 133.85 47.6833C133.6 48.1227 133.575 48.593 133.776 49.0943C133.98 49.6029 134.32 49.9268 134.798 50.066C135.277 50.2044 135.841 50.1432 136.491 49.8826L137.053 49.6571Z" fill="white"/>
<path d="M138.586 55.6384L137.817 53.0729L135.579 53.7435L136.464 56.6932L136.072 56.8105L135.049 53.3975L140.534 51.7539L141.551 55.148L141.155 55.2665L140.277 52.3357L138.209 52.9554L138.978 55.5209L138.586 55.6384Z" fill="white"/>
<path d="M139.373 59.0093L139.208 58.2404L136.582 58.8039L136.48 58.331L142.079 57.1296L142.181 57.6025L139.612 58.1537L139.771 58.8997L142.805 60.5133L142.933 61.1093L139.687 59.4007L137.37 62.4798L137.244 61.8916L139.373 59.0093Z" fill="white"/>
<path d="M143.292 66.5511L143.036 64.6055L137.769 65.2995L137.706 64.8199L142.973 64.1259L142.717 62.1843L143.126 62.1304L143.702 66.4971L143.292 66.5511Z" fill="white"/>
<path d="M139.908 71.6184L139.777 69.0222L138.146 68.5136L138.12 68.0068L143.947 69.8838L143.97 70.3435L138.361 72.7947L138.335 72.292L139.908 71.6184ZM140.197 69.1508L140.312 71.4446L143.37 70.1413L140.197 69.1508Z" fill="white"/>
<path d="M101.484 50.8699L76.6503 40.8196C74.8404 40.0872 72.8169 40.0872 71.0071 40.8196L46.1733 50.8699C43.0574 52.1309 41.1588 55.3131 41.5216 58.6544C43.8926 80.4821 58.6671 110.072 73.8289 110.072C88.9906 110.072 103.765 80.4821 106.136 58.6544C106.499 55.3081 104.605 52.1325 101.484 50.8699ZM98.1913 62.3192C96.5558 78.9472 86.2975 102.321 73.8286 102.321C61.3596 102.321 51.1011 78.9472 49.4657 62.3192C49.2161 59.7796 50.6951 57.3816 53.0792 56.4709L71.806 49.3152C72.4571 49.0664 73.1431 48.9421 73.8286 48.9421C74.5144 48.9421 75.1999 49.0664 75.8514 49.3152L94.5776 56.4709C96.9657 57.3831 98.4414 59.7757 98.1913 62.3192Z" fill="white" fill-opacity="0.5"/>
<path d="M54.8332 61.0611C54.5193 61.1811 54.3231 61.5007 54.3563 61.8383C55.1374 69.7804 58.0269 79.1149 61.8972 86.1995C65.7308 93.217 70.1911 97.4066 73.8286 97.4066V53.8562C73.7362 53.8562 73.6458 53.8728 73.5599 53.9059L54.8332 61.0611Z" fill="white" fill-opacity="0.5"/>
</svg>
