<svg width="48" height="48" viewBox="0 0 48 48" fill="none" xmlns="http://www.w3.org/2000/svg">
<rect width="48" height="48" rx="24" fill="#7460F3"/>
<path d="M23.398 12.002C21.473 12.028 17.331 12.344 15.014 14.467C13.294 16.177 12.693 18.698 12.623 21.82C12.563 24.93 12.493 30.77 18.123 32.361V34.781C18.123 34.781 18.085 35.751 18.725 35.951C19.515 36.201 19.965 35.452 20.715 34.652L22.115 33.072C25.965 33.392 28.915 32.653 29.255 32.543C30.035 32.293 34.436 31.732 35.156 25.891C35.896 19.86 34.796 16.06 32.816 14.34L32.806 14.338C32.206 13.788 29.806 12.038 24.436 12.018C24.436 12.018 24.04 11.993 23.398 12.002ZM23.465 13.699C24.01 13.696 24.345 13.719 24.345 13.719C28.885 13.729 31.056 15.099 31.566 15.559C33.236 16.988 34.094 20.415 33.466 25.451C32.866 30.331 29.296 30.641 28.636 30.851C28.356 30.941 25.756 31.581 22.484 31.371C22.484 31.371 20.045 34.312 19.285 35.072C19.165 35.202 19.025 35.242 18.935 35.222C18.805 35.192 18.765 35.032 18.775 34.812L18.795 30.793C14.024 29.473 14.304 24.491 14.354 21.891C14.414 19.291 14.904 17.159 16.354 15.719C18.311 13.949 21.829 13.709 23.464 13.699H23.465ZM23.825 16.299C23.7856 16.2988 23.7466 16.3065 23.7102 16.3214C23.6739 16.3364 23.6408 16.3584 23.6129 16.3862C23.585 16.414 23.5629 16.447 23.5478 16.4833C23.5327 16.5196 23.525 16.5586 23.525 16.598C23.525 16.6775 23.5566 16.7538 23.6128 16.8101C23.6691 16.8663 23.7454 16.898 23.825 16.898C24.5684 16.8838 25.3073 17.017 25.999 17.2899C26.6907 17.5628 27.3215 17.97 27.855 18.488C28.945 19.548 29.476 20.968 29.496 22.828C29.496 22.8674 29.5037 22.9064 29.5188 22.9428C29.5339 22.9792 29.556 23.0122 29.5838 23.0401C29.6117 23.0679 29.6448 23.09 29.6812 23.1051C29.7176 23.1202 29.7566 23.128 29.796 23.128V23.119C29.8755 23.119 29.9518 23.0873 30.0081 23.0311C30.0644 22.9748 30.096 22.8985 30.096 22.819C30.1331 21.9442 29.9917 21.0711 29.6805 20.2528C29.3694 19.4345 28.8949 18.688 28.286 18.059C27.096 16.899 25.594 16.299 23.824 16.299H23.825ZM19.871 16.989C19.6583 16.9586 19.4416 17.0009 19.256 17.109H19.244C18.834 17.349 18.456 17.649 18.096 18.049C17.826 18.369 17.675 18.688 17.635 18.998C17.6114 19.1798 17.6285 19.3645 17.685 19.539L17.705 19.549C18.0132 20.4551 18.4154 21.3265 18.905 22.149C19.5396 23.3008 20.3193 24.3665 21.225 25.32L21.255 25.36L21.295 25.39L21.325 25.42L21.355 25.45C22.3122 26.3579 23.3807 27.1409 24.535 27.78C25.855 28.5 26.657 28.84 27.137 28.98V28.99C27.277 29.03 27.405 29.05 27.535 29.05C27.9447 29.0201 28.3326 28.8539 28.637 28.578C29.027 28.228 29.337 27.84 29.567 27.43V27.42C29.797 26.99 29.717 26.579 29.387 26.299C28.7219 25.7172 28.0019 25.2014 27.237 24.759C26.727 24.479 26.207 24.649 25.997 24.929L25.547 25.498C25.317 25.778 24.897 25.738 24.897 25.738L24.885 25.748C21.765 24.948 20.935 21.789 20.935 21.789C20.935 21.789 20.895 21.359 21.185 21.139L21.745 20.689C22.015 20.469 22.205 19.949 21.915 19.439C21.4731 18.6737 20.9573 17.9536 20.375 17.289C20.2483 17.1319 20.0695 17.0254 19.871 16.989ZM24.344 17.879C24.2644 17.8792 24.1882 17.9111 24.1321 17.9675C24.0761 18.024 24.0447 18.1004 24.045 18.18C24.0452 18.2595 24.0771 18.3357 24.1335 18.3918C24.19 18.4479 24.2664 18.4792 24.346 18.479C25.3467 18.4963 26.2997 18.9099 26.996 19.629C27.3101 19.9755 27.5516 20.3814 27.7062 20.8228C27.8607 21.2643 27.9253 21.7322 27.896 22.199C27.8962 22.2783 27.928 22.3544 27.9842 22.4104C28.0404 22.4665 28.1166 22.498 28.196 22.498L28.206 22.51C28.2455 22.51 28.2845 22.5022 28.321 22.487C28.3575 22.4719 28.3906 22.4497 28.4185 22.4217C28.4463 22.3938 28.4684 22.3606 28.4834 22.3241C28.4984 22.2876 28.5061 22.2484 28.506 22.209C28.536 21.019 28.166 20.019 27.436 19.219C26.706 18.419 25.686 17.969 24.386 17.879C24.372 17.878 24.358 17.878 24.344 17.879ZM24.834 19.498C24.7939 19.4968 24.7539 19.5035 24.7164 19.5178C24.6789 19.532 24.6445 19.5535 24.6153 19.5811C24.5861 19.6086 24.5626 19.6416 24.5462 19.6782C24.5297 19.7148 24.5207 19.7543 24.5195 19.7945C24.5183 19.8346 24.525 19.8745 24.5393 19.912C24.5535 19.9496 24.5751 19.9839 24.6026 20.0131C24.6301 20.0423 24.6631 20.0658 24.6997 20.0823C24.7364 20.0987 24.7759 20.1078 24.816 20.109C25.806 20.159 26.286 20.659 26.346 21.689C26.3486 21.7668 26.3813 21.8405 26.4373 21.8947C26.4933 21.9488 26.5681 21.979 26.646 21.979H26.656C26.6963 21.9777 26.7359 21.9683 26.7725 21.9514C26.8091 21.9345 26.8419 21.9104 26.8689 21.8806C26.896 21.8507 26.9168 21.8157 26.93 21.7776C26.9433 21.7395 26.9487 21.6992 26.946 21.659C26.876 20.319 26.146 19.568 24.846 19.498C24.842 19.4979 24.838 19.4979 24.834 19.498Z" fill="white"/>
</svg>
