<svg width="24" height="24" viewBox="0 0 24 24" aria-hidden="true" class="_2aedl" fill="#9e9e9e"><path fill-rule="evenodd" clip-rule="evenodd" d="M12 6.859a5.127 5.127 0 100 10.255 5.127 5.127 0 100-10.255zm0 8.47a3.328 3.328 0 11-.001-6.657A3.328 3.328 0 0112 15.33z"></path><path d="M18.538 6.658a1.195 1.195 0 11-2.39 0 1.195 1.195 0 012.39 0z"></path><path fill-rule="evenodd" clip-rule="evenodd" d="M12 2c-2.707 0-3.06.013-4.116.053H7.88c-1.06.054-1.785.215-2.43.47a4.754 4.754 0 00-1.771 1.155c-.55.55-.9 1.114-1.155 1.772-.241.63-.416 1.369-.47 2.43C2 8.94 2 9.288 2 12c0 2.707.013 3.06.053 4.116v.005c.054 1.06.215 1.785.47 2.43.256.657.591 1.22 1.155 1.771.55.55 1.114.9 1.772 1.155.63.241 1.369.416 2.43.47C8.94 22 9.288 22 12 22c2.707 0 3.06-.013 4.116-.053h.005c1.06-.054 1.785-.215 2.43-.47a4.752 4.752 0 001.771-1.155c.55-.55.9-1.114 1.155-1.772.241-.63.416-1.369.47-2.43C22 15.06 22 14.712 22 12c0-2.707-.013-3.06-.053-4.115v-.006c-.054-1.06-.215-1.785-.47-2.43a4.753 4.753 0 00-1.155-1.771c-.55-.55-1.114-.9-1.772-1.155-.63-.241-1.369-.416-2.43-.47h-.02C15.056 2.013 14.707 2 12 2zm0 1.799c2.627 0 2.97.013 3.989.051l.051.002c.98.04 1.504.202 1.853.35.47.187.805.402 1.154.751.349.349.564.685.752 1.154.134.35.295.886.349 1.853.053 1.06.053 1.369.053 4.038V12c0 2.628-.013 2.97-.051 3.99l-.002.05c-.04.98-.202 1.504-.35 1.853-.187.47-.402.805-.751 1.154a3.187 3.187 0 01-1.154.752c-.35.134-.886.295-1.853.349-1.06.053-1.369.053-4.04.053-2.627 0-2.97-.013-3.989-.051l-.051-.002c-.98-.04-1.504-.202-1.853-.35a3.187 3.187 0 01-1.154-.751 3.186 3.186 0 01-.752-1.154c-.134-.35-.295-.886-.349-1.853C3.8 14.98 3.8 14.671 3.8 12c0-2.627.013-2.97.051-3.989l.002-.051c.04-.98.202-1.504.35-1.853.187-.47.402-.805.751-1.154a3.186 3.186 0 011.154-.752c.35-.134.886-.295 1.853-.349l.051-.002C9.031 3.812 9.373 3.8 12 3.8z"></path></svg>