<svg width="58" height="70" viewBox="0 0 58 70" fill="none" xmlns="http://www.w3.org/2000/svg">
<g clip-path="url(#clip0_141_7583)">
<path d="M33.2502 52.6651C32.9205 52.6651 32.5909 52.6651 32.2613 52.6651C31.8867 52.6351 31.5122 52.77 31.1226 52.755C30.4783 52.725 29.8491 52.785 29.2048 52.7999C28.3807 52.8149 27.5417 52.8599 26.7176 52.9048C25.6988 52.9648 24.68 53.0247 23.6611 53.1146C21.7433 53.2644 19.8255 53.4292 17.9227 53.7289C15.5704 54.0885 13.248 54.5979 10.9257 55.1223C10.7159 55.1672 10.5062 55.2422 10.2964 55.2272C10.0117 55.2122 9.83194 55.0624 9.75702 54.7927C9.66713 54.4481 9.74204 54.1035 9.77201 53.7738C9.90685 52.1857 10.1616 50.6124 10.4912 49.0542C10.9257 47.0315 11.4051 45.0388 12.0045 43.0611C12.0045 43.0311 12.0194 43.0161 12.0194 42.9862C12.0494 42.8363 12.0194 42.8064 11.8846 42.8363C11.6449 42.8963 11.4351 43.0311 11.3152 43.2708C11.1804 43.5256 11.0605 43.7952 10.9407 44.0649C10.4762 45.1887 10.0717 46.3273 9.66713 47.466C9.24761 48.6197 8.84307 49.7734 8.45351 50.9421C8.13887 51.886 7.89915 52.8599 7.64444 53.8188C7.52457 54.2683 7.38973 54.7327 7.28485 55.1972C7.2399 55.407 7.2399 55.407 7.44966 55.4369C8.60334 55.5868 9.74204 55.7366 10.8957 55.8864C12.3341 56.0662 13.7874 56.261 15.2258 56.4408C17.0687 56.6805 18.8966 56.9202 20.7395 57.145C21.8782 57.2948 23.0019 57.4446 24.1406 57.5795C24.2305 57.5945 24.3354 57.5795 24.4253 57.6694C24.3953 57.7293 24.3503 57.7143 24.3054 57.7143C22.942 57.7143 21.5785 57.7143 20.2001 57.7143C20.1851 57.7143 20.1701 57.7143 20.1402 57.7143C19.7206 57.7143 19.2861 57.6994 18.8666 57.7143C18.1175 57.7443 17.3833 57.5945 16.6342 57.5046C15.945 57.4297 15.2557 57.3248 14.5815 57.2349C13.8923 57.145 13.2031 57.0551 12.5289 56.9652C11.8546 56.8753 11.1654 56.7854 10.4912 56.6955C9.81695 56.6056 9.14272 56.5157 8.4685 56.4258C7.77928 56.3359 7.09007 56.246 6.38588 56.1561C5.71165 56.0662 5.02243 55.9763 4.3482 55.8864C3.67398 55.7965 2.99975 55.7066 2.32552 55.6167C1.93596 55.5718 1.53142 55.5268 1.14187 55.4669C0.917126 55.4369 0.857194 55.3321 0.857194 55.0773C0.857194 52.8 0.857194 50.5375 0.842212 48.2601C0.797263 35.4498 0.767297 22.6394 0.722349 9.82907C0.722349 7.8813 0.707366 5.91854 0.707366 3.97077C0.707366 3.91084 0.707366 3.83592 0.707366 3.77599C0.6774 3.23661 0.707366 2.68224 0.692383 2.14286C0.692383 2.03798 0.692383 1.9331 0.692383 1.8432C0.692383 1.33378 0.692383 0.809383 0.692383 0.299965C0.692383 0.180102 0.707366 0.0752221 0.857194 0.0302734C0.99204 0.0302734 1.12689 0.0302734 1.24675 0.0302734C1.83108 0.0752221 2.41541 0.150136 3.01473 0.225051C4.90257 0.47976 6.79041 0.719486 8.67826 0.974194C11.1205 1.28883 13.5477 1.60348 15.9899 1.9331C16.4544 1.99303 16.8589 1.91812 17.2934 1.73832C19.1513 0.959212 21.0841 0.419828 23.0918 0.195085C24.7249 0.000307685 26.358 0.105188 27.9612 0.494742C29.9839 0.974194 31.8717 1.76829 33.6098 2.90698C34.299 3.35647 34.9582 3.85091 35.5575 4.40527C35.6624 4.51015 35.7973 4.54012 35.9321 4.5551C38.0297 4.82479 40.1423 5.10947 42.2399 5.37916C44.5323 5.67882 46.8247 5.97847 49.117 6.27813C51.2296 6.54782 53.3272 6.8325 55.4398 7.10219C55.9342 7.16212 56.4437 7.23704 56.9381 7.29697C57.0879 7.31195 57.2078 7.3569 57.2378 7.52171C57.2378 7.61161 57.2378 7.68652 57.2378 7.77642C57.0879 8.19594 56.998 8.63044 56.8782 9.04996C55.8443 12.9605 54.8255 16.871 53.7917 20.7816C52.7729 24.6921 51.739 28.5876 50.7202 32.4982C49.7014 36.3637 48.6975 40.2143 47.6787 44.0799C46.6598 47.9455 45.656 51.7961 44.6372 55.6617C44.2027 57.3547 43.7532 59.0328 43.3037 60.7109C43.2438 60.9207 43.1389 60.9956 42.9291 60.9806C42.5695 60.9356 42.195 60.8757 41.8204 60.8308C41.8953 60.5461 41.9702 60.2614 42.0451 59.9767C42.0901 59.9318 42.15 59.9318 42.2099 59.9318C42.4646 59.9468 42.5246 59.9018 42.5845 59.6621C42.7044 59.1827 42.8392 58.7182 42.9591 58.2387C43.2737 57.0251 43.6033 55.8115 43.918 54.6129C43.9479 54.493 43.9479 54.3732 43.918 54.2533C43.3636 52.1707 42.8392 50.0881 42.3298 48.0054C41.9253 46.3274 41.5057 44.6343 41.1012 42.9562C40.9364 42.267 40.7566 41.5928 40.5768 40.9035C40.5019 40.5739 40.3221 40.3492 40.0374 40.1844C39.8576 40.0795 39.6628 39.9896 39.4531 39.9446C39.1834 39.8847 39.0935 39.9746 39.1235 40.2443C39.1984 40.7088 39.2733 41.1732 39.3482 41.6227C39.5729 42.9262 39.7827 44.2148 39.9325 45.5333C40.0374 46.4322 40.1273 47.3312 40.2022 48.2302C40.2771 48.9943 40.3221 49.7584 40.367 50.5226C40.397 50.8821 40.382 51.2567 40.412 51.6163C40.442 51.9459 40.5169 52.0658 40.8465 52.1257C41.1911 52.1857 41.5207 52.2306 41.8503 52.3355C41.9402 52.3654 42.0301 52.3804 42.1051 52.4254C42.195 52.4703 42.2699 52.5153 42.2549 52.6202C42.2399 52.725 42.165 52.77 42.0751 52.785C41.8953 52.8299 41.7005 52.8299 41.5207 52.7999C41.266 52.77 41.0113 52.77 40.7566 52.77C40.6817 52.77 40.6068 52.77 40.5318 52.725C39.9925 52.725 39.4381 52.725 38.8987 52.725C38.8837 52.74 38.8538 52.755 38.8388 52.77C38.1945 52.785 37.5652 52.8299 36.921 52.725C36.891 52.725 36.876 52.7101 36.8461 52.7101C36.3666 52.7101 35.8872 52.6801 35.4077 52.725C34.7634 52.785 34.1342 52.74 33.4899 52.755C33.4 52.7101 33.3251 52.7101 33.2502 52.6651Z" fill="#242220"/>
<path d="M0.647397 1.81299C0.647397 2.45726 0.647397 3.10152 0.647397 3.76077H0.632415H0.617432C0.617432 3.11651 0.617432 2.47224 0.617432 1.81299C0.632415 1.79801 0.647397 1.79801 0.647397 1.81299Z" fill="#EDEDEC"/>
<path d="M0.647397 1.81329H0.632415H0.617432C0.617432 1.28889 0.617432 0.764488 0.617432 0.225104C0.632415 0.210121 0.632415 0.210121 0.647397 0.225104C0.647397 0.749505 0.647397 1.28889 0.647397 1.81329Z" fill="#D5D5D4"/>
<path d="M0.647444 0.224885H0.617478C0.602495 0.0900395 0.587513 -0.0448064 0.797273 0.0151251C0.737341 0.0750566 0.662427 0.134988 0.647444 0.224885Z" fill="#F6F6F5"/>
<path d="M20.1251 57.699C20.4248 57.699 20.7245 57.6841 21.0241 57.6841C22.0729 57.6841 23.1217 57.6841 24.1705 57.6841C24.2305 57.6841 24.2904 57.6841 24.3503 57.6841C24.3503 57.6691 24.3503 57.6691 24.3503 57.6541C23.6611 57.5642 22.9569 57.4743 22.2677 57.3844C21.6684 57.3095 21.0691 57.2196 20.4847 57.1447C19.8854 57.0698 19.2711 56.9948 18.6718 56.9199C17.9826 56.83 17.2934 56.7401 16.6042 56.6502C15.9899 56.5753 15.3906 56.5004 14.7763 56.4255C14.2668 56.3656 13.7724 56.2906 13.263 56.2307C12.7536 56.1708 12.2292 56.0959 11.7198 56.0359C11.1354 55.961 10.5361 55.8861 9.95177 55.8112C9.44236 55.7513 8.93294 55.6764 8.42352 55.6164C8.03397 55.5715 7.62943 55.5115 7.23987 55.4666C7.12001 55.4516 7.16496 55.3917 7.17994 55.3317C7.35974 54.6425 7.53953 53.9533 7.71933 53.2641C8.004 52.1853 8.31864 51.1066 8.67823 50.0578C9.38242 48.0501 10.0866 46.0274 10.8807 44.0496C11.0156 43.705 11.1504 43.3604 11.3901 43.0608C11.54 42.866 11.7797 42.806 12.0044 42.7611C12.1393 42.7311 12.1093 42.866 12.0793 42.9559C12.0044 43.2256 11.9145 43.4803 11.8396 43.75C11.3452 45.3981 10.9556 47.0762 10.5811 48.7543C10.3413 49.833 10.1615 50.9268 9.99672 52.0205C9.89184 52.7996 9.81693 53.5787 9.757 54.3579C9.74201 54.5227 9.757 54.6875 9.80194 54.8373C9.86188 55.122 10.1316 55.2568 10.4912 55.1819C11.4051 54.9871 12.3041 54.7774 13.218 54.5826C14.5965 54.2829 15.9749 53.9983 17.3683 53.7735C18.2972 53.6087 19.2412 53.5038 20.1851 53.399C21.0691 53.3091 21.9381 53.2192 22.8221 53.1442C23.6311 53.0843 24.4252 53.0244 25.2343 52.9644C25.8636 52.9195 26.4929 52.8895 27.1371 52.8596C28.111 52.8146 29.0699 52.7697 30.0438 52.7397C30.4933 52.7247 30.9278 52.7247 31.3773 52.7097C31.6769 52.7097 31.9766 52.6348 32.2763 52.6798C32.1264 52.6798 31.9916 52.6948 31.8418 52.6948C31.7519 52.6948 31.7219 52.7247 31.7219 52.8146C31.7219 52.9195 31.7219 53.0244 31.7219 53.1143C31.7069 54.9422 31.6919 56.7701 31.6769 58.613C31.602 58.6879 31.4971 58.6579 31.4073 58.643C31.0477 58.0137 30.5083 57.729 29.7891 57.729C26.7176 57.744 23.6311 57.744 20.5596 57.744C20.3948 57.714 20.26 57.744 20.1251 57.699Z" fill="#9B2D35"/>
<path d="M10.3714 64.217C10.6411 64.0072 10.8958 63.8124 11.1355 63.6177C12.3192 62.7037 13.5178 61.7898 14.7014 60.8908C14.8513 60.7709 15.0161 60.666 14.9711 60.4413C14.9262 60.2166 14.7314 60.1267 14.5366 60.0817C14.3568 60.0517 14.3418 59.9768 14.4018 59.827C14.4617 59.6772 14.4467 59.4674 14.5516 59.3775C14.6565 59.2876 14.8662 59.3475 15.0161 59.3475C16.6342 59.3475 18.2524 59.3475 19.8705 59.3326C20.0204 59.3326 20.0503 59.3625 20.0204 59.5124C19.9604 59.827 19.8855 60.0517 19.481 60.0967C19.1064 60.1267 18.8067 60.4113 18.5071 60.6511C17.0987 61.7748 15.7053 62.8985 14.2969 64.0222C14.177 64.1121 14.1621 64.172 14.252 64.3219C15.0311 65.5205 15.8102 66.7191 16.6192 67.9028C16.9039 68.3373 17.2485 68.6969 17.728 68.9216C17.8778 68.9965 18.0276 69.0265 18.1924 69.0415C18.2823 69.0415 18.2973 69.0864 18.2674 69.1613V69.1763C18.2224 69.3711 18.2224 69.6258 18.0876 69.7457C17.9527 69.8655 17.698 69.7906 17.5032 69.7906C16.6192 69.7756 15.7353 69.8206 14.8513 69.7457C13.9073 69.6558 13.1282 69.2962 12.5589 68.5171C11.7648 67.4383 10.9258 66.3745 10.2365 65.2208C10.2216 65.1909 10.1916 65.1459 10.1466 65.086C10.0567 65.4306 9.98183 65.7303 9.89194 66.0449C9.69716 66.7491 9.50238 67.4533 9.3076 68.1725C9.21771 68.5171 9.35255 68.7718 9.74211 68.9516C10.0118 69.0714 10.0118 69.0714 9.93688 69.3561C9.832 69.7756 9.832 69.7756 9.3975 69.7756C7.76437 69.7756 6.13123 69.7756 4.51308 69.7756C4.33329 69.7756 4.30332 69.7307 4.36326 69.5809C4.37824 69.5509 4.37824 69.5209 4.37824 69.491C4.42319 69.2063 4.4981 69.0265 4.85769 68.9666C5.32216 68.9066 5.56189 68.5021 5.74168 68.0976C6.05632 67.4083 6.20615 66.6592 6.40093 65.94C6.83543 64.3818 7.25495 62.8236 7.68945 61.2504C7.71942 61.1605 7.7344 61.0706 7.74938 60.9957C7.8243 60.5162 7.62952 60.2166 7.13509 60.0667C7.01522 60.0368 6.97028 60.0068 7.01522 59.8719C7.07516 59.7071 7.06017 59.4824 7.16505 59.3625C7.28492 59.2576 7.50966 59.3326 7.68945 59.3326C9.20272 59.3326 10.716 59.3326 12.2293 59.3176C12.4091 59.3176 12.439 59.3625 12.3791 59.5124C12.3791 59.5273 12.3791 59.5423 12.3791 59.5423C12.3341 59.812 12.2592 60.0368 11.9146 60.1117C11.585 60.1866 11.4052 60.4862 11.3153 60.8159C11.0157 61.9096 10.716 62.9884 10.4163 64.0672C10.3864 64.1421 10.3714 64.1571 10.3714 64.217Z" fill="#242220"/>
<path d="M24.1556 63.4828C25.3692 63.4828 26.5678 63.4828 27.7964 63.4828C27.5866 64.3368 27.3769 65.1608 27.1671 66.0149C26.7026 65.5204 26.1183 65.4605 25.504 65.4605C24.9047 65.4605 24.3054 65.4605 23.7061 65.4605C23.6162 65.4605 23.5562 65.4755 23.5263 65.5804C23.3165 66.3894 23.0918 67.1835 22.882 67.9926C22.7621 68.472 22.927 68.8017 23.3914 68.9965C23.5113 69.0414 23.5263 69.1013 23.4963 69.2062C23.4514 69.356 23.4214 69.5059 23.3914 69.6557C23.3764 69.7606 23.3315 69.7905 23.2266 69.7905C21.7433 69.7905 20.275 69.7756 18.7917 69.7905C18.6718 69.7905 18.6419 69.7756 18.6718 69.6407C19.0164 68.3971 19.361 67.1386 19.7056 65.895C20.1401 64.3218 20.5746 62.7486 21.0091 61.1754C21.174 60.5761 20.9792 60.2465 20.3949 60.0816C20.305 60.0517 20.305 60.0217 20.3199 59.9468C20.4248 59.3774 20.4248 59.3774 21.0091 59.3774C23.3465 59.3774 25.6688 59.3774 28.0061 59.3774C28.6055 59.3774 29.1898 59.3774 29.7891 59.3774C29.909 59.3774 29.9539 59.3924 29.924 59.5423C29.7142 60.3813 29.5044 61.2054 29.2947 62.0444C29.2797 62.1193 29.2647 62.2092 29.1448 62.1792C29.055 62.1493 28.9351 62.2542 28.8752 62.0744C28.7703 61.7447 28.4856 61.6099 28.171 61.535C28.0511 61.505 27.9163 61.505 27.7964 61.505C26.8225 61.505 25.8486 61.505 24.8897 61.505C24.7998 61.505 24.7399 61.505 24.7099 61.6249C24.5601 62.2242 24.3953 62.8235 24.2305 63.4228C24.1705 63.4078 24.1705 63.4378 24.1556 63.4828Z" fill="#242220"/>
<path d="M39.0786 67.4379C38.9287 68.0522 38.7639 68.6215 38.674 69.2059C38.6141 69.5505 38.4643 69.6404 38.1496 69.7003C36.8162 69.925 35.4827 70.0599 34.1192 69.985C32.8906 69.9101 31.707 69.6553 30.6432 68.9811C28.8003 67.8124 28.1261 65.6699 28.9951 63.6472C29.5345 62.3887 30.4484 61.4447 31.5871 60.7256C32.8157 59.9464 34.1792 59.5269 35.6175 59.3471C37.1308 59.1524 38.6141 59.2273 40.0824 59.6168C40.3821 59.7067 40.3821 59.6917 40.3072 60.0064C40.1124 60.7106 39.9176 61.4148 39.7228 62.119C39.6779 62.2838 39.3782 62.3737 39.2733 62.2388C38.719 61.5496 37.9848 61.2949 37.1458 61.2649C36.0071 61.22 34.9283 61.3848 33.9394 61.9991C32.7558 62.7333 32.1864 64.0218 32.4561 65.3553C32.6509 66.3291 33.2502 67.0034 34.1043 67.4529C35.0781 67.9473 36.112 68.0222 37.1608 67.8724C37.805 67.7975 38.4193 67.6327 39.0786 67.4379Z" fill="#242220"/>
<path d="M40.5169 52.695C40.9664 52.665 41.4009 52.71 41.8504 52.725C41.9403 52.725 42.0152 52.725 42.1051 52.695C42.165 52.665 42.24 52.6501 42.24 52.5751C42.24 52.5002 42.18 52.4553 42.1201 52.4403C41.8804 52.3354 41.6257 52.2755 41.356 52.2305C41.1612 52.1856 40.9514 52.1706 40.7566 52.1257C40.487 52.0807 40.3821 51.9608 40.3671 51.6912C40.3371 51.1368 40.3221 50.5974 40.2922 50.043C40.2472 49.3239 40.2023 48.6197 40.1274 47.9005C40.0674 47.3611 40.0375 46.8217 39.9775 46.2823C39.9176 45.713 39.8427 45.1586 39.7828 44.5893C39.6779 43.7053 39.5131 42.8213 39.3782 41.9373C39.2883 41.3829 39.1984 40.8286 39.1085 40.2742C39.0636 39.9895 39.0935 39.8847 39.2733 39.8397C39.3483 39.8247 39.4082 39.8397 39.4681 39.8547C39.9026 39.9745 40.3221 40.1394 40.5469 40.5589C40.6817 40.8136 40.7117 41.0983 40.7866 41.368C41.1762 42.9412 41.5657 44.5144 41.9553 46.0876C42.4647 48.1552 42.9591 50.2228 43.4985 52.2755C43.6783 52.9497 43.8431 53.609 44.0229 54.2832C44.0379 54.3581 44.0379 54.433 44.0229 54.5079C43.5734 56.216 43.124 57.939 42.6745 59.6471C42.5996 59.9467 42.5246 59.9917 42.21 59.9467C42.1651 59.9467 42.1201 59.9467 42.0602 59.9467C42.1051 59.4822 42.0152 59.0477 41.7156 58.6882C41.5957 58.5533 41.4758 58.4185 41.311 58.3286C41.1912 58.2686 41.1462 58.1787 41.1312 58.0439C41.0263 57.0101 40.9065 55.9912 40.7866 54.9574C40.6668 54.2083 40.5918 53.4591 40.5169 52.695Z" fill="#9B2D35"/>
<path d="M33.2502 52.6649C34.4638 52.6649 35.6774 52.6499 36.891 52.6649C37.5503 52.6798 38.1946 52.6798 38.8538 52.6948C38.8987 52.7548 38.8538 52.8147 38.8838 52.8746C38.8838 52.9495 38.8838 53.0095 38.8987 53.0844C38.9287 53.1593 38.8987 53.2342 38.9287 53.3091C38.9287 53.384 38.9287 53.444 38.9437 53.5189C38.9587 53.5788 38.9587 53.6388 38.9287 53.6987C38.8987 53.7736 38.9137 53.8335 38.9737 53.8785C38.9737 53.8935 38.9737 53.9234 38.9737 53.9384C39.0036 54.0283 38.9737 54.1182 39.0036 54.1931C39.0036 54.2531 39.0036 54.328 39.0186 54.3879C39.0486 54.4628 39.0186 54.5377 39.0486 54.6126C39.0486 54.6726 39.0486 54.7475 39.0636 54.8074C39.0935 54.8823 39.0636 54.9573 39.0935 55.0322C39.0935 55.1071 39.0935 55.167 39.1085 55.2419C39.1235 55.3019 39.1235 55.3618 39.0935 55.4217C39.0636 55.4966 39.0785 55.5566 39.1385 55.6165C39.1385 55.6315 39.1385 55.6615 39.1385 55.6764C39.1535 55.7364 39.1535 55.7963 39.1385 55.8562C39.1085 55.9162 39.1235 55.9761 39.1684 56.021C39.1684 56.051 39.1684 56.081 39.1684 56.1109C39.1834 56.1709 39.1834 56.2308 39.1684 56.2907C39.1385 56.3507 39.1535 56.4106 39.1984 56.4555C39.1984 56.4855 39.1984 56.5155 39.1984 56.5454C39.2134 56.6054 39.2134 56.6653 39.1834 56.7252C39.1535 56.8002 39.1684 56.8601 39.2284 56.905C39.2284 56.92 39.2284 56.95 39.2284 56.965C39.2434 57.0249 39.2434 57.0848 39.2134 57.1448C39.1834 57.2197 39.1984 57.2796 39.2583 57.3246C39.2583 57.3395 39.2583 57.3695 39.2583 57.3845C39.2883 57.5343 39.2583 57.6392 39.1085 57.6841C38.9737 57.6991 38.8538 57.6692 38.719 57.6392C38.659 57.6092 38.5841 57.6392 38.5242 57.6092C38.4642 57.6092 38.4043 57.6092 38.3594 57.5942C38.2695 57.5643 38.1796 57.6092 38.0897 57.5643C38.0297 57.5643 37.9848 57.5643 37.9249 57.5643C37.8649 57.5044 37.79 57.5193 37.7151 57.5343C37.5952 57.5493 37.4454 57.6392 37.3555 57.4594C37.3555 57.3995 37.3555 57.3246 37.3405 57.2646C37.3106 57.1897 37.3405 57.1148 37.3106 57.0399C37.3106 56.98 37.3106 56.905 37.2956 56.8451C37.2656 56.7702 37.2956 56.6953 37.2656 56.6204C37.2656 56.5604 37.2656 56.5005 37.2506 56.4555C37.2207 56.3956 37.2357 56.3357 37.2506 56.2758C37.2806 56.2158 37.2656 56.1559 37.2207 56.1109C37.2207 56.081 37.2207 56.051 37.2207 56.021C37.2057 55.9611 37.2057 55.9012 37.2357 55.8412C37.2656 55.7663 37.2506 55.7064 37.1907 55.6615C37.1907 55.6465 37.1907 55.6165 37.1907 55.6015C37.1607 55.5266 37.1907 55.4517 37.1607 55.3768C37.1607 55.3168 37.1607 55.2569 37.1458 55.212C37.1158 55.137 37.1458 55.0621 37.1158 54.9872C37.1158 54.9273 37.1158 54.8524 37.1008 54.7924C37.0858 54.7475 37.0858 54.6876 37.1158 54.6426C37.1607 54.5677 37.1308 54.5078 37.0708 54.4478C37.0708 54.4328 37.0708 54.4029 37.0708 54.3879C37.0109 54.298 37.1607 54.1781 37.0409 54.0882C37.0409 54.0583 37.0409 54.0283 37.0409 53.9983C37.0109 53.9234 37.0409 53.8485 37.0109 53.7736C37.0109 53.7137 37.0109 53.6687 36.9959 53.6088C36.966 53.5339 36.9959 53.459 36.966 53.384C36.966 53.3241 36.966 53.2642 36.951 53.2192C36.921 53.1443 36.951 53.0694 36.921 52.9945C36.921 52.9795 36.921 52.9645 36.921 52.9645C36.891 52.7098 36.891 52.7098 36.6363 52.7098C36.2318 52.7098 35.8273 52.7098 35.4377 52.7098C35.3178 52.7098 35.2879 52.7398 35.2879 52.8596C35.3778 54.268 35.4827 55.6615 35.5726 57.0698C35.5875 57.2496 35.5875 57.4145 35.6175 57.5942C35.6325 57.6841 35.6175 57.7141 35.5126 57.7291C34.8534 57.804 34.1791 57.9239 33.5349 58.1187C33.415 58.1486 33.43 58.0887 33.415 58.0138C33.3851 57.0848 33.3401 56.1409 33.3101 55.212C33.2802 54.4179 33.2502 53.6238 33.2352 52.8447C33.2652 52.7548 33.2502 52.7098 33.2502 52.6649Z" fill="#9B2D35"/>
<path d="M40.6367 59.7669C40.6367 59.4822 40.8315 59.2725 41.1162 59.2725C41.4008 59.2725 41.6256 59.4822 41.6256 59.7669C41.6256 60.0366 41.4008 60.2613 41.1312 60.2613C40.8465 60.2464 40.6367 60.0366 40.6367 59.7669Z" fill="#333130"/>
<path d="M31.3923 58.6279C31.4672 58.568 31.5721 58.613 31.662 58.598C31.722 58.6429 31.8568 58.598 31.8568 58.6579C31.8718 58.7478 31.7369 58.7478 31.677 58.7927C31.6171 58.8227 31.5571 58.8527 31.4972 58.8826C31.4523 58.7927 31.4223 58.7028 31.3923 58.6279Z" fill="#292624"/>
<path d="M37.3405 57.5046C37.4454 57.6245 37.5802 57.6095 37.6851 57.5346C37.805 57.4597 37.8649 57.4747 37.9099 57.6095C37.76 57.6095 37.5952 57.6095 37.4454 57.6095C37.3705 57.6095 37.3255 57.5945 37.3405 57.5046Z" fill="#9B2D35"/>
<path d="M39.0935 57.7293C39.1534 57.6244 39.2583 57.5645 39.2433 57.4297C39.2583 57.4746 39.2733 57.5346 39.2733 57.5795C39.2883 57.7892 39.2883 57.7892 39.0935 57.7293Z" fill="#9B2D35"/>
<path d="M39.1984 56.9351C39.0786 56.9052 39.0336 56.8303 39.1235 56.7254C39.1684 56.6654 39.1684 56.6205 39.1684 56.5605C39.2134 56.6804 39.1984 56.8153 39.1984 56.9351Z" fill="#9B2D35"/>
<path d="M38.9587 53.8785C38.8388 53.8485 38.7939 53.7736 38.8838 53.6687C38.9287 53.6238 38.9137 53.5638 38.9287 53.5039C38.9587 53.6238 38.9587 53.7586 38.9587 53.8785Z" fill="#9B2D35"/>
<path d="M37.1906 55.6768C37.3105 55.7067 37.3555 55.7816 37.2655 55.8865C37.2206 55.9315 37.2356 55.9914 37.2206 56.0513C37.1756 55.9315 37.1906 55.7966 37.1906 55.6768Z" fill="#9B2D35"/>
<path d="M39.0935 55.6465C38.9736 55.6166 38.9286 55.5417 39.0185 55.4368C39.0635 55.3918 39.0485 55.3319 39.0635 55.272C39.1085 55.3918 39.0935 55.5117 39.0935 55.6465Z" fill="#9B2D35"/>
<path d="M39.2434 57.3697C39.1235 57.3397 39.0785 57.2648 39.1684 57.1599C39.2134 57.1 39.2134 57.055 39.2134 56.9951C39.2434 57.115 39.2434 57.2498 39.2434 57.3697Z" fill="#9B2D35"/>
<path d="M37.0858 54.4478C37.2056 54.4777 37.2656 54.5526 37.1607 54.6575C37.1307 54.7025 37.1157 54.7324 37.1157 54.7924C37.0708 54.6875 37.0858 54.5676 37.0858 54.4478Z" fill="#9B2D35"/>
<path d="M39.1684 56.4707C39.0785 56.4558 39.0335 56.4108 39.0935 56.3209C39.1384 56.261 39.1384 56.201 39.1384 56.1411C39.1834 56.246 39.1684 56.3509 39.1684 56.4707Z" fill="#9B2D35"/>
<path d="M39.1385 56.0362C39.0486 56.0212 39.0036 55.9762 39.0635 55.8863C39.1085 55.8264 39.1085 55.7665 39.1085 55.7065C39.1385 55.8114 39.1385 55.9313 39.1385 56.0362Z" fill="#9B2D35"/>
<path d="M37.2357 56.1411C37.3256 56.1561 37.3705 56.201 37.3106 56.2909C37.2656 56.3509 37.2656 56.4108 37.2656 56.4707C37.2207 56.3659 37.2357 56.261 37.2357 56.1411Z" fill="#9B2D35"/>
<path d="M37.0559 54.0884C37.1607 54.1034 37.1907 54.1633 37.1308 54.2382C37.1008 54.2832 37.0858 54.3281 37.0858 54.388C37.0409 54.2981 37.0559 54.1933 37.0559 54.0884Z" fill="#9B2D35"/>
<path d="M38.9887 54.2083C38.9287 54.1334 38.9737 54.0285 38.9587 53.9536C38.9887 54.0285 38.9887 54.1184 38.9887 54.2083Z" fill="#9B2D35"/>
<path d="M38.0747 57.6242C38.1646 57.6242 38.2545 57.5942 38.3444 57.6542C38.2545 57.6542 38.1646 57.6542 38.0747 57.6242Z" fill="#9B2D35"/>
<path d="M37.0109 53.7739C37.0708 53.8488 37.0258 53.9238 37.0408 53.9987C37.0109 53.9238 37.0109 53.8488 37.0109 53.7739Z" fill="#9B2D35"/>
<path d="M39.0186 54.6276C38.9586 54.5527 39.0036 54.4777 38.9886 54.4028C39.0336 54.4777 39.0186 54.5527 39.0186 54.6276Z" fill="#9B2D35"/>
<path d="M39.0486 55.0621C38.9887 54.9872 39.0336 54.9123 39.0186 54.8374C39.0636 54.9123 39.0636 54.9872 39.0486 55.0621Z" fill="#9B2D35"/>
<path d="M37.1308 54.9873C37.1907 55.0622 37.1458 55.1371 37.1607 55.212C37.1158 55.1521 37.1158 55.0772 37.1308 54.9873Z" fill="#9B2D35"/>
<path d="M37.1608 55.3921C37.2207 55.467 37.1758 55.5419 37.1907 55.6168C37.1608 55.5419 37.1608 55.467 37.1608 55.3921Z" fill="#9B2D35"/>
<path d="M38.9137 53.3092C38.8538 53.2343 38.8987 53.1594 38.8837 53.0845C38.9137 53.1444 38.9137 53.2193 38.9137 53.3092Z" fill="#9B2D35"/>
<path d="M37.2656 56.6504C37.3255 56.7253 37.2806 56.8002 37.2956 56.8751C37.2656 56.8002 37.2656 56.7253 37.2656 56.6504Z" fill="#9B2D35"/>
<path d="M36.981 53.3691C37.0409 53.4441 36.9959 53.519 37.0109 53.5939C36.981 53.534 36.981 53.459 36.981 53.3691Z" fill="#9B2D35"/>
<path d="M37.3106 57.085C37.3705 57.1599 37.3256 57.2348 37.3406 57.3097C37.2956 57.2348 37.2956 57.1599 37.3106 57.085Z" fill="#9B2D35"/>
<path d="M36.951 52.9795C37.0109 53.0544 36.966 53.1293 36.9809 53.2042C36.936 53.1293 36.936 53.0544 36.951 52.9795Z" fill="#9B2D35"/>
<path d="M38.5092 57.6545C38.5691 57.6545 38.644 57.6245 38.7039 57.6844C38.629 57.6844 38.5691 57.6844 38.5092 57.6545Z" fill="#9B2D35"/>
<path d="M38.8687 52.8746C38.8238 52.8147 38.8537 52.7548 38.8387 52.6948C38.8537 52.6948 38.8537 52.6948 38.8687 52.6948C38.8687 52.7548 38.8687 52.8147 38.8687 52.8746Z" fill="#9B2D35"/>
<path d="M37.2207 37.3077C37.0409 37.1579 36.906 36.9631 36.7862 36.7683C36.4865 36.2589 36.1119 35.8094 35.7074 35.3749C35.5725 35.2251 35.5725 35.0603 35.6325 34.8954C35.8272 34.2362 36.007 33.577 36.1269 32.9027C36.2018 32.4982 36.2618 32.1086 36.3217 31.7041C36.3816 31.3595 36.5614 31.1347 36.906 31.0149C37.3855 30.8501 37.5952 30.5354 37.5952 30.041C37.5802 28.9323 37.9548 27.9434 38.4792 26.9845C39.2284 25.621 39.8127 24.1827 40.0974 22.6544C40.2322 21.9502 40.2472 21.2461 40.0374 20.5419C39.9475 20.2122 39.7977 19.9126 39.573 19.6579C39.2583 19.2983 39.2284 18.9237 39.4231 18.4892C39.8427 17.6202 40.1123 16.6913 40.2472 15.7324C40.3071 15.3128 40.2921 14.8783 40.2172 14.4588C40.2022 14.3689 40.1573 14.264 40.0824 14.2191C39.7677 14.0093 39.6479 13.6797 39.6179 13.3351C39.4831 11.7319 39.1385 10.1887 38.4942 8.70538C38.0147 7.56669 37.3855 6.51789 36.5914 5.57396C36.5614 5.544 36.5314 5.51403 36.5464 5.4541C37.1308 5.52902 37.7001 5.60393 38.2844 5.67884C38.8987 5.75376 39.4981 5.84366 40.1124 5.91857C40.7117 5.99348 41.311 6.0684 41.9103 6.14331C42.5246 6.21823 43.1239 6.30812 43.7382 6.38304C44.5323 6.48792 45.3414 6.5928 46.1355 6.69768C46.8247 6.78758 47.5139 6.87747 48.2031 6.95239C48.9972 7.05727 49.8063 7.16215 50.6004 7.26703C51.3046 7.35693 51.9938 7.44682 52.698 7.53672C53.3872 7.62662 54.0764 7.71652 54.7806 7.80641C55.1701 7.85136 55.5597 7.91129 55.9492 7.95624C56.159 7.98621 56.2639 8.12105 56.2039 8.33081C55.9193 9.42456 55.6346 10.5033 55.3499 11.5821C54.9754 12.9905 54.6008 14.3989 54.2262 15.8073C53.5819 18.2495 52.9377 20.6917 52.2934 23.1339C51.5892 25.8158 50.885 28.4978 50.1808 31.1797C49.5665 33.4871 48.9672 35.7944 48.3529 38.1168C48.0982 39.0757 47.8435 40.0346 47.5888 40.9935C47.5439 41.1583 47.4689 41.1583 47.3341 41.1283C46.6748 40.9785 46.0156 40.8287 45.3564 40.6639C44.2177 40.3942 43.0939 40.1395 41.9552 39.8698C41.8204 39.8398 41.6856 39.7948 41.6106 39.69C41.3409 39.3304 40.9664 39.1356 40.5768 38.9258C39.5879 38.4014 38.5541 37.9819 37.5653 37.4875C37.4903 37.4425 37.4154 37.3976 37.3405 37.3526C37.2656 37.3526 37.2356 37.3377 37.2207 37.3077Z" fill="#9B2D35"/>
<path d="M14.2519 37.3672C13.9073 38.0714 13.6376 38.8056 13.3529 39.5398C13.2181 39.8993 12.9933 40.1541 12.6188 40.2739C12.2292 40.4088 11.8546 40.5736 11.4501 40.6934C11.0006 40.8433 10.5961 41.083 10.2664 41.4276C9.96679 41.7422 9.6072 41.922 9.18768 42.0119C7.70437 42.3715 6.23605 42.791 4.78271 43.2855C3.70395 43.6601 2.64016 44.0496 1.60634 44.5141C1.59136 44.5291 1.57638 44.5291 1.57638 44.5141C1.57638 39.5098 1.59136 34.4905 1.5614 29.4863C1.51645 21.9199 1.5614 14.3535 1.51645 6.7872C1.50146 4.97427 1.51645 3.17633 1.50146 1.3634C1.50146 1.04876 1.59136 0.958862 1.89102 0.988827C2.40044 1.04876 2.92484 1.12367 3.43426 1.1836C4.04855 1.25852 4.64787 1.33343 5.26217 1.42333C5.86148 1.49825 6.46079 1.57316 7.06011 1.64807C7.67441 1.72299 8.27372 1.81289 8.88802 1.8878C9.57723 1.9777 10.2664 2.06759 10.9706 2.15749C11.5849 2.23241 12.1843 2.30732 12.7985 2.39722C13.3829 2.47213 13.9822 2.54705 14.6115 2.63694C14.4167 2.72684 14.2519 2.75681 14.0871 2.78677C13.6526 2.89165 13.2031 2.98155 12.7536 3.08643C12.3041 3.19131 12.1393 3.50595 12.2592 4.01537C12.364 4.43489 12.409 4.83943 12.2442 5.24396C12.1393 5.51366 11.9595 5.75338 11.7797 5.97812C11.0456 6.84713 10.2664 7.65621 9.30754 8.28549C9.0828 8.43532 8.84307 8.5402 8.58836 8.66006C7.9441 8.9747 7.71936 9.4991 7.9441 10.1883C8.09393 10.6528 8.31867 11.0723 8.5584 11.4918C8.94795 12.181 9.06781 12.9152 9.00788 13.7093C8.91799 14.6982 8.58836 15.6121 8.25874 16.5261C8.21379 16.6309 8.15386 16.7508 8.09393 16.8407C7.79427 17.2902 7.82424 17.7397 8.09393 18.1892C8.36362 18.6536 8.72321 19.0432 9.0828 19.4327C9.30754 19.6725 9.32252 19.7774 9.15771 20.047C8.94795 20.4066 8.88802 20.7962 8.85805 21.2007C8.81311 21.7401 8.91799 22.2495 9.05283 22.7739C9.41242 24.1823 10.0267 25.4708 10.8058 26.6845C10.9107 26.8343 11.0306 26.9841 11.1355 27.1339C11.3752 27.5235 11.3752 27.943 11.3152 28.3625C11.2403 28.9169 11.2104 29.4563 11.4801 29.9807C11.7048 30.4152 12.0344 30.7598 12.4539 30.9845C12.9184 31.2392 13.1132 31.6288 13.2181 32.1232C13.4578 33.247 13.8623 34.3257 14.4467 35.3296C14.5515 35.4944 14.6265 35.6742 14.7313 35.854C14.8212 36.0038 14.8063 36.1237 14.7313 36.2735C14.5515 36.6181 14.3867 36.9627 14.2519 37.3223C14.2669 37.3223 14.2819 37.3523 14.2519 37.3672Z" fill="#9B2D35"/>
<path d="M20.4698 8.54042C21.8781 8.36062 23.2416 8.49547 24.5301 9.13973C24.59 9.1697 24.635 9.18468 24.6949 9.21465C24.9047 9.31953 25.0845 9.30455 25.2643 9.13973C25.474 8.94496 25.7138 8.76516 25.9535 8.58537C26.0883 8.48049 26.1183 8.36062 26.0584 8.21079C26.1782 8.07595 26.343 8.00103 26.4929 7.89615C26.8225 7.67141 27.1671 7.47663 27.5267 7.31182C28.0511 7.0721 28.5755 7.02715 29.1299 7.16199C30.2086 7.43168 31.2574 7.76131 32.2613 8.24076C32.9205 8.5554 33.5348 8.95994 34.0592 9.48434C34.6735 10.1136 35.2129 10.8178 35.5275 11.6569C35.5725 11.7617 35.6474 11.8666 35.5725 11.9715C35.4526 12.0164 35.4526 12.1213 35.4526 12.2262C35.4826 12.8255 35.5126 13.4248 35.5425 14.0242C35.5575 14.159 35.5425 14.2789 35.5275 14.3987C35.4676 14.9831 35.6774 15.4925 35.9471 15.9719C36.1568 16.3465 36.4115 16.6911 36.5464 17.1106C36.7112 17.635 36.7412 18.1594 36.7561 18.6988C36.7561 18.8337 36.6662 18.8936 36.4864 18.8636C36.0819 18.7887 35.6774 18.7288 35.2728 18.6389C34.7185 18.519 34.1491 18.4891 33.5798 18.4741C32.3062 18.4291 31.0477 18.3992 29.7741 18.4441C28.9351 18.4741 28.111 18.564 27.3469 18.9535C27.0772 19.0884 26.8375 19.2682 26.5978 19.448C26.388 19.6128 26.1632 19.6577 25.8936 19.5978C25.3692 19.4779 24.8448 19.4779 24.3204 19.6577C24.0357 19.7476 23.781 19.6877 23.5412 19.5079C23.1966 19.2532 22.867 18.9685 22.4924 18.7587C21.8332 18.3842 21.114 18.1894 20.3649 18.1145C19.3161 18.0096 18.2673 17.9347 17.2185 17.9347C17.1585 17.8748 17.1885 17.7998 17.2035 17.7249C17.3084 17.1556 17.3833 16.5862 17.4282 16.0019C17.4582 15.5824 17.593 15.1778 17.6979 14.7733C17.8627 14.1141 18.0575 13.4398 18.2673 12.7956C18.6418 11.6569 19.0913 10.5481 19.7955 9.55925C19.8704 9.45437 19.9454 9.34949 20.0353 9.24461C20.245 9.04984 20.4248 8.84008 20.4698 8.54042Z" fill="#FDF1D6"/>
<path d="M32.8756 37.3826C32.0666 38.2067 31.1976 38.9409 30.1937 39.5252C29.954 39.675 29.6993 39.7949 29.4446 39.9297C29.1 40.0945 28.7404 40.0346 28.4857 39.7649C28.3958 39.675 28.3209 39.6001 28.231 39.5102C28.156 39.4053 28.186 39.2855 28.171 39.1806C28.0811 38.4764 27.8414 37.8171 27.5567 37.1879C27.4069 36.8433 27.362 36.4987 27.3769 36.1391C27.3919 35.7795 27.4069 35.4199 27.4968 35.0753C27.5118 35.0303 27.5417 34.9554 27.4968 34.9255C27.4369 34.8805 27.3919 34.9404 27.332 34.9704C27.2271 35.0453 27.1672 35.1352 27.1372 35.2551C27.0923 35.4798 27.0173 35.6746 26.8675 35.8544C26.7776 35.9593 26.6578 36.0192 26.5229 35.9743C26.3881 35.9293 26.3132 35.8244 26.2982 35.6746C26.2832 35.5547 26.2982 35.4499 26.2832 35.33C26.2682 35.0603 26.1483 34.9404 25.8786 35.0004C25.4591 35.0903 25.0396 35.0154 24.6051 35.0154C24.5602 35.0154 24.5302 35.0004 24.4852 34.9704C24.4253 34.6258 24.2305 34.431 23.8859 34.3561C23.7211 34.3261 23.5563 34.2512 23.4215 34.1463C23.2566 34.0115 23.2566 33.9066 23.4215 33.7868C23.9459 33.4272 24.5152 33.3073 25.1445 33.3822C26.1933 33.5021 27.2421 33.562 28.2759 33.2773C28.6954 33.1575 29.1149 33.0376 29.5495 32.9028C29.6843 32.8578 29.7892 32.8878 29.909 32.9477C29.954 32.9777 29.9989 32.9927 30.0589 33.0226C30.4634 33.2024 30.6582 33.5021 30.6282 33.9665C30.5983 34.3711 30.6282 34.7756 30.7331 35.1802C30.808 35.4648 30.9578 35.4948 31.1676 35.3C31.4223 35.0603 31.4972 34.7307 31.5721 34.4011C31.6471 34.0415 31.692 33.6819 31.8268 33.3373C31.8868 33.1575 31.9917 32.9927 32.1265 32.8578C32.606 32.4233 32.8157 31.854 32.9056 31.2247C32.9206 31.0599 32.9356 30.8801 32.9506 30.7003C32.9655 30.6553 32.9655 30.6104 32.9655 30.5654C32.9506 30.4306 33.0105 30.3407 33.1154 30.2358C33.5798 29.8163 33.6847 29.202 33.4 28.6476C33.2952 28.4529 33.1753 28.2731 33.0105 28.1082C32.3063 27.434 31.677 26.7148 31.0328 25.9807C30.5533 25.4413 29.954 25.0817 29.1899 25.0368C28.8752 25.0218 28.5905 25.0967 28.3508 25.2915C28.2759 25.3514 28.231 25.4263 28.231 25.5162C28.231 25.6361 28.231 25.7559 28.2459 25.8758C28.2759 26.1155 28.3958 26.3253 28.3658 26.58C28.3508 26.7148 28.3209 26.8497 28.201 26.9246C27.6316 27.3441 27.0173 27.6737 26.2982 27.7936C25.6239 27.9135 25.0096 27.7037 24.4253 27.3741C24.3804 27.3441 24.3504 27.2992 24.3354 27.2392C24.2006 26.7298 23.9908 26.2354 24.0208 25.696C24.0358 25.4263 24.0807 25.1566 24.1556 24.9019C24.1856 24.812 24.2006 24.7221 24.2455 24.6472C24.4852 24.0928 24.5152 23.5085 24.5452 22.9092C24.5751 22.3099 24.665 21.7255 24.74 21.1262C24.7549 20.9614 24.74 20.7816 24.8448 20.6468C25.1145 20.5868 25.3842 20.5569 25.6539 20.6767C25.8936 20.7816 26.0435 20.9614 26.1034 21.2161C26.1933 21.6207 26.3132 22.0102 26.5679 22.3398C26.9125 22.7743 26.9724 22.7743 27.4219 22.4447C27.6916 22.2499 27.7066 22.1301 27.5417 21.8304C27.5268 21.8005 27.4968 21.7555 27.4818 21.7255C27.4369 21.6207 27.362 21.5008 27.4668 21.4109C27.5567 21.336 27.6766 21.3809 27.7815 21.4409C28.0212 21.5757 28.2759 21.7106 28.5306 21.8154C29.2648 22.0851 30.0289 22.1301 30.808 21.9803C31.1077 21.9203 31.3923 21.8754 31.692 21.8154C32.0066 21.7705 32.2164 21.8754 32.3662 22.16C32.4262 22.2799 32.4861 22.3848 32.576 22.4897C32.2613 22.6545 32.2614 22.6545 32.3962 23.0141C32.5161 23.3437 32.4411 23.6583 32.2763 23.958C32.1415 24.1678 31.9917 24.3775 31.8119 24.5423C31.737 24.6172 31.662 24.6922 31.677 24.797C31.692 25.0517 31.8718 25.2315 32.1265 25.2465C32.3662 25.2465 32.591 25.1716 32.8307 25.1566C33.7297 24.7521 34.2541 24.0479 34.5537 23.1489C34.7785 22.4597 34.9283 21.7405 35.0931 21.0214C35.1381 20.7966 35.2729 20.6318 35.4677 20.5269C35.7673 20.3621 36.082 20.2123 36.4116 20.0924C36.6363 20.0025 36.7412 20.0624 36.8311 20.3022C36.906 20.497 36.906 20.7067 36.921 20.9165C36.951 21.5008 36.981 22.1001 36.9959 22.6994C36.9959 22.7594 36.9959 22.8343 37.0259 22.8942C37.0559 22.9841 37.1308 22.9991 37.2057 22.9841C37.6402 22.8792 37.9698 22.235 37.775 21.8304C37.7301 21.7405 37.6702 21.6506 37.6102 21.5458C37.4155 21.2011 37.5203 20.8565 37.8949 20.6618C38.2395 20.482 38.5691 20.5868 38.7489 20.9315C38.9137 21.2611 38.9287 21.6207 38.9137 21.9803C38.8838 23.089 38.5542 24.1078 38.1346 25.1117C37.8799 25.726 37.5353 26.2953 37.2656 26.8946C37.0409 27.3741 36.8611 27.8685 36.7113 28.3779C36.6813 28.4678 36.6513 28.5428 36.6064 28.6177C36.5614 28.7076 36.4715 28.7525 36.3816 28.7375C36.2917 28.7225 36.2168 28.6626 36.1869 28.5727C36.1719 28.5278 36.1569 28.4678 36.1419 28.4229C36.1269 28.363 36.1269 28.2731 36.052 28.2731C35.9921 28.2731 35.9471 28.348 35.9172 28.4079C35.7673 28.7825 35.5426 29.1121 35.2879 29.4267C35.183 29.5616 35.168 29.7414 35.168 29.9062C35.168 30.6254 35.1381 31.3296 35.0482 32.0338C34.8534 33.7268 34.3889 35.345 33.3851 36.7534C33.2502 36.9332 33.1004 37.113 32.9655 37.2927C32.9356 37.3377 32.9056 37.3527 32.8756 37.3826Z" fill="#FDF1D6"/>
<path d="M35.5726 11.9863C35.4827 11.5368 35.2579 11.1472 35.0182 10.7726C34.7485 10.3381 34.4189 9.93361 34.0593 9.57402C33.6398 9.1545 33.1753 8.79491 32.6509 8.51023C31.5422 7.91092 30.3435 7.53635 29.1299 7.22171C28.3358 7.01195 27.6616 7.26665 27.0024 7.64123C26.6727 7.82102 26.4031 8.06075 26.0584 8.22556C25.6989 7.836 25.2793 7.52136 24.8299 7.23669C23.7811 6.53249 22.6424 6.03806 21.3838 5.84328C20.2751 5.66349 19.1663 5.67847 18.0576 5.81332C17.3983 5.88823 16.7541 6.02308 16.0948 6.1729C16.0199 6.18789 15.945 6.20287 15.8701 6.20287C15.7802 6.20287 15.6903 6.15792 15.6454 6.08301C15.5854 5.99311 15.6603 5.93318 15.7053 5.87325C15.8851 5.66349 16.0948 5.49868 16.3196 5.34885C17.3234 4.64465 18.3722 4.04534 19.5709 3.71571C19.6008 3.70073 19.6458 3.70073 19.6757 3.68575C19.7956 3.62582 19.8406 3.53592 19.8406 3.41605C19.8256 3.28121 19.7207 3.23626 19.6158 3.22128C19.3761 3.17633 19.1364 3.17633 18.8966 3.17633C18.7768 3.17633 18.6269 3.22128 18.582 3.08643C18.537 2.9366 18.6869 2.86169 18.7768 2.80176C19.1963 2.5021 19.6757 2.33729 20.1702 2.20244C21.7733 1.75296 23.3915 1.43831 25.0546 1.46828C27.0174 1.49825 28.9052 1.94773 30.7031 2.74182C31.9317 3.28121 33.1004 3.94046 34.1043 4.82445C36.097 6.59243 37.4454 8.76494 37.9998 11.3869C38.3294 12.9452 38.4043 14.5184 38.2845 16.1066C38.2695 16.3463 38.2245 16.571 38.1646 16.7958C38.1496 16.8407 38.1346 16.9006 38.1047 16.9456C38.0597 17.0355 37.9998 17.1554 37.8799 17.1404C37.7601 17.1404 37.7301 17.0205 37.7001 16.9156C37.4604 16.1965 37.1907 15.4773 36.906 14.7881C36.5614 13.934 36.1869 13.08 35.7673 12.256C35.7224 12.1211 35.6775 12.0312 35.5726 11.9863Z" fill="#FEFEFE"/>
<path d="M34.7784 37.3373C34.8234 37.2474 34.8833 37.1575 34.9283 37.0676C35.0032 36.9328 35.0781 36.9328 35.183 37.0377C35.2729 37.1276 35.3328 37.2324 35.4077 37.3373C35.4227 37.3523 35.4227 37.3673 35.4377 37.3673C35.6774 37.8617 35.7373 38.3861 35.7673 38.9405C35.8722 40.8283 35.4826 42.6263 34.9582 44.4092C34.5687 45.7427 34.1042 47.0612 33.4899 48.3048C33.43 48.4246 33.3401 48.5745 33.4749 48.6494C33.6098 48.7243 33.6997 48.5745 33.7746 48.4846C34.1192 48.0651 34.3739 47.6006 34.6136 47.1361C35.7523 44.9187 36.6064 42.6113 37.1308 40.1691C37.2506 40.1092 37.2356 40.214 37.2506 40.274C37.2806 40.4538 37.2956 40.6485 37.3255 40.8283C37.5503 42.5364 37.5353 44.2594 37.5053 45.9675C37.4903 46.8365 37.4604 47.7055 37.4304 48.5745C37.4154 49.2038 37.3555 49.833 37.3105 50.4473C37.2806 50.8219 37.2506 51.1965 37.2206 51.5711C37.2057 51.8258 37.1757 51.8557 36.921 51.8258C34.8234 51.7508 32.7258 51.6909 30.6132 51.646C29.8341 51.631 29.07 51.631 28.2909 51.616C27.9762 51.616 27.9462 51.5711 27.9313 51.2564C27.8863 49.893 27.6316 48.5745 27.1522 47.3009C27.1372 47.271 27.1372 47.241 27.1222 47.211C27.1971 47.1811 27.2421 47.256 27.287 47.286C27.6316 47.6156 27.9612 47.9602 28.2759 48.3198C28.7553 48.8592 29.3247 49.3086 29.924 49.7132C30.3885 50.0278 30.8379 50.0578 31.3024 49.7431C31.3324 49.7282 31.3623 49.7132 31.3923 49.6982C31.4672 49.6383 31.4672 49.5783 31.4373 49.4884C31.3623 49.2637 31.2425 49.0689 31.1076 48.8741C30.5982 48.14 30.0289 47.4657 29.4745 46.7765C29.4296 46.7316 29.3846 46.6717 29.3546 46.6267C29.3247 46.5668 29.2348 46.5068 29.2947 46.4319C29.3397 46.372 29.4296 46.372 29.4895 46.387C29.879 46.4319 30.2686 46.4919 30.6432 46.5218C30.778 46.5368 30.9129 46.5518 31.0327 46.5368C31.4672 46.5218 31.7519 46.2671 31.7819 45.8176C31.8118 45.1734 31.8118 44.5291 31.8118 43.8848C31.8118 43.78 31.8268 43.6751 31.8118 43.5552C31.8118 43.1956 31.647 42.9859 31.2874 42.896C30.8379 42.7911 30.3885 42.7761 29.924 42.8061C29.5944 42.8211 29.2498 42.866 28.9201 42.9259C28.8302 42.9409 28.6954 43.0008 28.6654 42.896C28.6205 42.7761 28.7703 42.7312 28.8452 42.6862C29.1599 42.5064 29.4895 42.3266 29.8041 42.1318C31.4822 41.143 32.9355 39.8844 34.0892 38.3112C34.314 38.0116 34.5237 37.6969 34.6885 37.3523C34.7635 37.3823 34.7485 37.3523 34.7784 37.3373Z" fill="#FEFEFE"/>
<path d="M20.4698 51.6011C18.8816 51.6611 17.2934 51.721 15.7202 51.7959C15.1809 51.8259 14.6415 51.8558 14.1021 51.8858C13.9073 51.9008 13.7125 51.9008 13.5327 51.9008C13.1432 51.8858 12.9484 51.721 12.8885 51.3464C12.7686 50.6722 12.7387 49.983 12.7686 49.2938C12.8136 48.0502 12.8885 46.8216 13.0533 45.593C13.1132 45.0836 13.1881 44.5742 13.308 44.0648C13.338 43.9749 13.3829 43.9749 13.4129 44.0498C13.4728 44.1696 13.5178 44.3045 13.5627 44.4393C13.7125 44.9188 13.8774 45.3982 14.0571 45.8627C14.3868 46.7167 14.8363 47.5258 15.3607 48.2749C15.5854 48.6046 15.8401 48.9042 16.0499 49.2488C16.1847 49.4736 16.3795 49.6534 16.5593 49.8481C16.8589 50.1928 17.1436 50.5523 17.5182 50.822C17.9227 51.1217 18.6119 51.0468 18.9416 50.6572C19.0165 50.5673 19.0315 50.4624 19.0614 50.3576C19.0764 50.1628 18.9865 49.998 18.8816 49.8481C18.1325 48.7694 17.4583 47.6457 16.9638 46.432C16.4244 45.0686 16.0948 43.6602 15.8701 42.2219C15.7502 41.4877 15.7952 40.7386 15.9 40.0044C15.9899 39.9894 16.0349 40.0643 16.0798 40.1093C16.6792 40.7236 17.3084 41.2929 17.9077 41.9072C18.3273 42.3267 18.8367 42.6414 19.3012 43.001C19.3611 43.0459 19.451 43.0609 19.421 43.1658C19.2862 43.2107 19.1663 43.2856 19.0614 43.3905C18.9565 43.4505 18.8517 43.4654 18.7318 43.4804C18.2973 43.5853 18.0126 43.87 17.9976 44.3195C17.9677 45.1136 18.0276 45.8927 18.2374 46.6718C18.2524 46.7167 18.2673 46.7467 18.2823 46.7916C18.4621 47.3011 18.8517 47.4958 19.3761 47.5108C19.8855 47.5108 20.3949 47.4659 20.9043 47.4209C21.0841 47.4059 21.2489 47.4059 21.4287 47.376C21.4887 47.361 21.5486 47.376 21.5935 47.4209C21.219 47.9303 20.8594 48.4547 20.6346 49.0541C20.6047 49.1439 20.5597 49.2488 20.5297 49.3387C20.4998 49.4136 20.4848 49.4886 20.5597 49.5335C20.6346 49.5785 20.6796 49.5185 20.7245 49.4736C20.7845 49.4136 20.8444 49.3387 20.9043 49.2638C21.4437 48.5596 22.043 47.9004 22.7322 47.346C22.8521 47.2561 22.9869 47.2411 23.1218 47.2411C23.2416 47.2411 23.2866 47.316 23.2117 47.4059C22.6423 48.0951 22.3277 48.9192 21.8632 49.6684C21.5486 50.1778 21.219 50.6872 20.8744 51.1816C20.7994 51.2865 20.7395 51.3764 20.6796 51.4813C20.6196 51.5412 20.5597 51.5862 20.4698 51.6011Z" fill="#FEFEFE"/>
<path d="M24.4852 34.9703C24.7249 34.9703 24.9497 34.9553 25.1894 35.0003C25.4141 35.0302 25.6539 34.9853 25.8786 34.9403C26.1483 34.8954 26.3131 35.0152 26.3281 35.2849C26.3281 35.4048 26.3281 35.5246 26.3281 35.6445C26.3281 35.7794 26.388 35.8842 26.5079 35.9292C26.6277 35.9741 26.7476 35.9292 26.8225 35.8093C26.9574 35.6295 27.0473 35.4348 27.0772 35.21C27.0922 35.0752 27.302 34.8504 27.4368 34.8205C27.5417 34.8055 27.6016 34.8354 27.5567 34.9553C27.4218 35.3299 27.4368 35.7194 27.4068 36.109C27.3619 36.6184 27.5567 37.0829 27.7514 37.5473C28.0211 38.1616 28.2159 38.8059 28.2159 39.4951C28.0661 39.5101 27.9912 39.6 28.0062 39.7798C28.0211 39.8996 28.0511 40.0345 28.0661 40.1543C28.171 40.6787 27.9462 41.0833 27.6765 41.4878C27.4368 41.8474 27.1372 42.162 26.9124 42.5216C26.6877 42.8812 26.5079 43.2708 26.4929 43.7053C26.4929 43.8251 26.418 43.8701 26.3131 43.8701C26.1483 43.8701 26.0134 43.8102 25.9086 43.7053C24.9497 42.8363 23.9608 42.0272 23.2866 40.8885C22.8521 40.1543 22.7322 39.3752 22.9569 38.5662C23.0618 38.1616 23.1817 37.7571 23.2866 37.3526C23.2716 37.3376 23.2716 37.3376 23.2716 37.3226L23.2866 37.3076C23.4664 36.6783 23.4514 36.064 23.3165 35.4348C23.3015 35.3449 23.2116 35.225 23.3465 35.1651C23.4514 35.1051 23.5563 35.195 23.6312 35.2699C23.8259 35.4647 23.9308 35.7044 24.0807 35.9292C24.1406 36.0191 24.1855 36.1539 24.3054 36.1389C24.4103 36.109 24.4103 35.9741 24.4402 35.8693C24.5451 35.5846 24.5002 35.2699 24.4852 34.9703Z" fill="#FEFEFE"/>
<path d="M2.13072 54.7926C2.08578 54.7926 2.04083 54.7926 2.01086 54.7777C1.68124 54.7477 1.62131 54.6728 1.62131 54.3432C1.62131 51.5264 1.60632 48.7246 1.60632 45.9078C1.62131 45.8628 1.66625 45.8778 1.69622 45.8628C2.38543 45.6231 3.05966 45.3984 3.74887 45.1586C4.12345 45.0238 4.513 44.9039 4.87259 44.7541C5.48689 44.5144 6.0862 44.5294 6.68552 44.814C6.73047 44.874 6.68552 44.9189 6.65555 44.9639C6.1761 45.713 5.87644 46.5371 5.5618 47.3611C5.29211 48.0354 5.05238 48.7396 4.82764 49.4288C4.78269 49.5786 4.72276 49.7134 4.64785 49.8633C4.16839 50.8222 3.68894 51.7661 3.22447 52.725C2.92482 53.3543 2.61018 53.9686 2.31052 54.5979C2.2356 54.6578 2.22062 54.7477 2.13072 54.7926Z" fill="#FEFEFE"/>
<path d="M44.832 51.1968C44.4724 49.9682 44.1128 48.7845 43.7532 47.6009C43.1988 45.758 42.6295 43.9151 42.0751 42.0722C42.0302 41.9224 42.0002 41.7726 41.9702 41.6227C41.9403 41.428 42.0152 41.3231 42.21 41.3081C42.4647 41.2931 42.7044 41.368 42.9441 41.428C44.3076 41.7126 45.671 41.9973 47.0344 42.267C47.1843 42.297 47.1843 42.3419 47.1543 42.4618C46.4201 45.2486 45.686 48.0354 44.9368 50.8222C44.9069 50.9271 44.8769 51.047 44.832 51.1968Z" fill="#FEFEFE"/>
<path d="M11.3003 16.9906C11.3303 15.8519 11.4352 14.7132 11.6 13.5745C11.6899 12.9902 11.6299 12.4208 11.3303 11.8815C11.1655 11.5968 11.0156 11.2971 10.8808 11.0124C10.7609 10.7577 10.9257 10.503 11.1954 10.518C12.1543 10.548 12.9934 10.1884 13.8024 9.72391C14.6115 9.25945 15.3607 8.67511 16.1847 8.27058C16.9489 7.896 17.7429 7.61133 18.597 7.61133C18.6869 7.61133 18.7918 7.61133 18.8816 7.64129C19.0015 7.68624 19.0165 7.77614 18.9116 7.85105C18.8517 7.896 18.7918 7.92597 18.7318 7.95593C17.2935 8.55525 16.2596 9.58907 15.5105 10.9225C15.2108 11.4469 14.8812 11.9264 14.3718 12.286C13.8025 12.6755 13.5927 13.2749 13.3979 13.8892C12.9185 15.3575 12.6937 16.8708 12.6787 18.414C12.6787 18.5189 12.6787 18.6237 12.6488 18.7286C12.6338 18.7736 12.6188 18.8185 12.5888 18.8635C12.4989 18.9983 11.8547 19.2231 11.7048 19.1781C11.585 19.1332 11.555 19.0433 11.5251 18.9384C11.4352 18.6387 11.3752 18.3241 11.3453 18.0094C11.3153 17.6798 11.2853 17.3352 11.3003 16.9906Z" fill="#FEFEFE"/>
<path d="M30.6881 30.7452C29.7292 30.6703 28.7703 30.5654 27.8114 30.4905C25.7587 30.3557 23.7211 30.3257 21.6984 30.7302C21.3688 30.7902 21.0391 30.8201 20.6945 30.7602C20.4997 30.7152 20.3349 30.6253 20.2151 30.4755C20.0802 30.3107 20.1102 30.2208 20.305 30.1309C20.4548 30.056 20.6196 29.9961 20.7694 29.9361C21.0841 29.7863 21.3538 29.5915 21.5785 29.3368C21.6834 29.217 21.7883 29.1121 21.8932 28.9922C22.3127 28.5427 22.9719 28.4379 23.5113 28.7375C24.1556 29.1121 24.8598 29.2619 25.6089 29.2919C26.0284 29.3069 26.373 29.157 26.6128 28.8124C26.7926 28.5577 27.0323 28.4079 27.317 28.348C27.7664 28.2431 28.126 27.9734 28.4856 27.7037C28.7254 27.5239 28.8902 27.5239 29.1299 27.7037C29.3846 27.8985 29.5944 28.1532 29.7742 28.4229C29.9689 28.7075 30.1487 28.9922 30.3435 29.2769C30.5982 29.6365 30.9578 29.8762 31.3773 29.9961C31.4223 30.0111 31.4522 30.0111 31.4972 30.041C31.692 30.1459 31.7219 30.3257 31.5571 30.4905C31.3174 30.7302 31.0028 30.7602 30.6881 30.7452Z" fill="#FEFEFE"/>
<path d="M17.0237 24.8269C16.784 24.6471 16.4993 24.5122 16.2746 24.3175C15.8101 23.9129 15.4955 23.4335 15.2857 22.8641C15.2258 22.6843 15.2707 22.5495 15.4356 22.4596H15.4505C15.8101 22.2049 16.1397 22.1749 16.4544 22.5495C16.5443 22.6544 16.6641 22.7293 16.799 22.7593C17.0088 22.8192 17.1736 22.8042 17.3084 22.6244C17.5481 22.3247 17.8178 22.07 18.1624 21.8902C18.6269 21.6505 19.1213 21.6655 19.6158 21.7404C20.0952 21.8153 20.5747 21.9502 21.0691 21.8753C21.2489 21.8453 21.4137 21.8153 21.5935 21.7554C21.6684 21.7254 21.7284 21.6955 21.8033 21.6655C21.8782 21.6505 21.9531 21.6206 22.013 21.7104C22.058 21.7854 22.013 21.8453 21.9681 21.9052C21.8482 22.0401 21.7284 22.1749 21.6235 22.3098C21.3987 22.4746 21.129 22.5495 20.8593 22.6244C20.5897 22.6993 20.4998 22.8042 20.5597 23.0739C20.6196 23.3885 20.5597 23.6582 20.3949 23.9279C20.1402 24.3474 19.7806 24.6321 19.3161 24.7969C19.2262 24.8269 19.1363 24.8419 19.1213 24.9468C19.0314 25.1565 19.1513 25.3663 19.406 25.3962C19.6008 25.4262 19.7956 25.3813 19.9903 25.3513C20.32 25.3063 20.6646 25.2464 20.9792 25.1265C21.0242 25.1116 21.0841 25.0816 21.129 25.1265C20.7095 25.5011 20.4099 25.9506 20.29 26.505C20.26 26.6548 20.1701 26.7447 20.0353 26.7896C19.6907 26.9095 19.376 27.0743 19.0614 27.2242C18.8516 27.2841 18.7168 27.2391 18.5969 27.0593C18.3272 26.6248 18.0576 26.1903 17.8628 25.7259C17.8028 25.591 17.7579 25.4562 17.7429 25.3063C17.7279 25.1715 17.668 25.0966 17.5332 25.0516C17.3683 25.0217 17.1736 24.9617 17.0237 24.8269Z" fill="#FDF1D6"/>
<path d="M2.13074 54.7927C2.78998 53.4593 3.43425 52.1258 4.10848 50.8073C4.55796 49.9383 4.90257 49.0243 5.23219 48.1104C5.54683 47.2114 5.87646 46.3274 6.31096 45.4734C6.41584 45.2486 6.55069 45.0538 6.67055 44.8291C6.97021 44.919 7.26987 45.0389 7.56952 45.1737C7.7643 45.2636 7.86918 45.5633 7.80925 45.8479C7.74932 46.1626 7.58451 46.4473 7.46464 46.7469C6.37089 49.294 5.27714 51.8411 4.33322 54.4631C4.27329 54.6279 4.19837 54.7778 4.12346 54.9426C4.09349 55.0175 4.06353 55.0624 3.97363 55.0474C3.35933 54.9575 2.74504 54.8976 2.13074 54.7927Z" fill="#DFC091"/>
<path d="M20.4697 8.54053C20.5297 8.85517 20.2899 9.04994 20.1251 9.24472C19.6457 9.81407 19.2711 10.4434 18.9714 11.1176C18.3422 12.541 17.9526 14.0243 17.578 15.5225C17.5031 15.8072 17.4881 16.1069 17.4731 16.4065C17.4282 16.9309 17.3533 17.4403 17.2484 17.9498C16.6041 17.9797 15.9599 18.0247 15.3156 18.0546C15.1208 18.0696 14.956 17.9647 14.956 17.785C14.941 17.4703 14.9111 17.1557 15.001 16.841C15.0459 16.6612 15.1358 16.4964 15.3156 16.4215C15.855 16.1818 15.9599 15.7173 16.0348 15.1929C16.2895 13.4849 16.7839 11.8667 17.8028 10.4284C18.1773 9.88899 18.5819 9.37957 19.1362 9.005C19.5258 8.7353 19.9753 8.57049 20.4697 8.54053Z" fill="#DFC091"/>
<path d="M20.5746 37.3074C19.6457 37.0527 18.9265 36.4834 18.3272 35.7642C17.3683 34.5955 16.7989 33.2321 16.4993 31.7788C16.3644 31.1195 16.5592 30.4752 17.0536 29.9808C17.2934 29.7411 17.608 29.6812 17.9226 29.6812C18.1624 29.6812 18.2972 29.8759 18.3122 30.1606C18.3871 31.539 18.6119 32.8875 19.0613 34.206C19.1812 34.5356 19.3161 34.8502 19.5408 35.1199C19.7356 35.3746 19.9004 35.3447 20.0203 35.06C20.1101 34.8652 20.1851 34.6705 20.275 34.4907C20.3199 34.3708 20.3948 34.2809 20.5447 34.2809C20.6945 34.2809 20.7095 34.4157 20.7394 34.5206C20.9042 35.1649 21.0541 35.8092 21.2638 36.4534C21.3088 36.5883 21.3687 36.7381 21.4137 36.8729C21.4736 37.0377 21.4436 37.1876 21.3088 37.3074C21.2788 37.3674 21.2039 37.3374 21.1589 37.3674C21.0391 37.3674 20.9342 37.3674 20.8143 37.3674C20.7394 37.3374 20.6345 37.3824 20.5746 37.3074Z" fill="#DFC091"/>
<path d="M36.906 51.841C37.1457 51.811 37.1457 51.811 37.1607 51.5713C37.2206 50.8072 37.2806 50.0281 37.3255 49.264C37.3405 49.0392 37.3555 48.8145 37.3705 48.5897C37.3855 47.8256 37.3855 47.0615 37.4154 46.2973C37.4604 45.2785 37.4454 44.2597 37.4454 43.2408C37.4304 42.5217 37.3555 41.8025 37.2806 41.0833C37.2506 40.8136 37.2206 40.5439 37.2057 40.2742C37.2057 40.2443 37.2356 40.1693 37.1457 40.1843C37.1907 39.9446 37.2356 39.7049 37.2806 39.4651C37.3255 39.2254 37.4454 39.1805 37.6551 39.3153C37.9998 39.5251 38.1046 39.8697 38.1796 40.2293C38.2694 40.6788 38.2844 41.1432 38.3294 41.5927C38.3743 42.1471 38.4193 42.7164 38.4642 43.2708C38.4942 43.7353 38.5242 44.1997 38.5391 44.6642C38.629 46.4172 38.674 48.1702 38.704 49.9232C38.7189 50.4027 38.7189 50.8821 38.7189 51.3616C38.704 51.7062 38.629 51.856 38.2245 51.871C37.775 51.9009 37.3405 51.856 36.906 51.841Z" fill="#DFC091"/>
<path d="M19.0165 50.3575C19.0764 50.5972 18.9116 50.7321 18.7468 50.8519C18.3123 51.1516 17.698 51.0917 17.3084 50.7471C16.9339 50.4025 16.5893 50.0279 16.2746 49.6234C15.4655 48.6045 14.7164 47.5407 14.177 46.3571C13.8923 45.7428 13.6976 45.0835 13.4728 44.4393C13.4279 44.3194 13.3829 44.1995 13.338 44.0647C13.308 43.9748 13.293 44.0347 13.2631 44.0497C13.308 43.7351 13.3979 43.4354 13.4878 43.1358C13.5627 42.8811 14.0122 42.6114 14.2669 42.6563C14.4018 42.6713 14.4467 42.7762 14.4917 42.8811C14.8962 44.0048 15.3307 45.1285 15.7952 46.2372C16.2297 47.2561 16.844 48.155 17.4882 49.054C17.8029 49.5035 18.1475 49.938 18.567 50.2976C18.6119 50.3425 18.6569 50.3725 18.7018 50.4174C18.8816 50.5373 18.9266 50.5223 19.0165 50.3575Z" fill="#DFC091"/>
<path d="M19.391 43.1509C19.2112 42.9411 18.9715 42.8063 18.7467 42.6565C18.2223 42.2819 17.7578 41.8474 17.3084 41.3979C16.8439 40.9184 16.3494 40.469 15.87 40.0045C15.9 39.5999 15.9899 39.2104 16.2446 38.8658C16.3644 38.701 16.4843 38.701 16.6042 38.8508C17.8178 40.3191 19.3161 41.4428 20.9342 42.4017C21.0541 42.4617 21.159 42.5366 21.2638 42.6115C21.3387 42.6714 21.4137 42.7613 21.3837 42.8512C21.3537 42.9561 21.2489 42.9411 21.159 42.9561C20.7994 42.9861 20.4398 42.9561 20.0802 43.0011C19.8554 43.046 19.6307 43.1059 19.391 43.1509Z" fill="#DFC091"/>
<path d="M28.2309 25.9054C28.186 25.8155 28.171 25.7106 28.171 25.6207C28.156 25.366 28.4407 25.0963 28.7703 25.0514C29.5194 24.9315 30.1487 25.2162 30.7181 25.6657C31.1825 26.0403 31.5122 26.5497 31.9167 26.9842C32.3062 27.4037 32.7258 27.7783 33.1003 28.1978C33.4599 28.6023 33.6547 29.0518 33.5199 29.6062C33.4599 29.8759 33.3251 30.1006 33.1153 30.2654C32.9955 30.3703 32.9205 30.4752 32.9505 30.625C32.9505 30.655 32.9355 30.685 32.9205 30.6999C32.8906 30.3403 32.9355 29.9658 32.8756 29.6062C32.8306 29.2616 32.6808 28.9919 32.3662 28.857C31.647 28.5424 31.1526 28.003 30.733 27.3737C30.3884 26.8793 30.0588 26.3849 29.5644 26.0403C29.2647 25.8305 28.9501 25.6657 28.5755 25.5908C28.3058 25.5608 28.2459 25.6207 28.2309 25.9054Z" fill="#DFC091"/>
<path d="M21.5486 47.406C20.9942 47.451 20.4248 47.4959 19.8705 47.5409C19.5558 47.5708 19.2412 47.5708 18.9415 47.5109C18.507 47.421 18.2973 47.0914 18.1774 46.7168C18.0426 46.2973 17.9976 45.8628 17.9676 45.4283C17.9527 45.1136 17.9077 44.799 17.9227 44.4844C17.9377 43.7952 18.3572 43.3906 19.0464 43.3906C18.9865 43.5554 18.9715 43.7202 18.9715 43.9C18.9715 44.5293 18.9865 45.1586 18.9415 45.7879C18.8966 46.4171 19.3161 46.6269 19.7806 46.7018C20.3949 46.7917 21.0092 46.6719 21.6235 46.6569C21.6534 46.6569 21.6834 46.6419 21.7134 46.6419C21.8332 46.6419 21.9681 46.6269 22.028 46.7318C22.0879 46.8367 21.9831 46.9116 21.9231 47.0015C21.7883 47.1213 21.6984 47.2861 21.5486 47.406Z" fill="#DFC091"/>
<path d="M17.0237 24.8267C17.2484 24.9166 17.4582 25.0214 17.6979 25.0814C17.7878 25.1113 17.8028 25.1862 17.8028 25.2462C17.8328 25.6807 18.0725 26.0253 18.2673 26.3999C18.3721 26.5946 18.522 26.7744 18.6119 26.9842C18.7168 27.1939 18.8666 27.2389 19.0763 27.2389C18.8216 27.4187 18.5669 27.6135 18.2972 27.7783C17.8777 28.048 17.3533 28.033 17.0087 27.6884C16.3195 27.0142 15.7651 26.25 15.5254 25.2911C15.4954 25.2012 15.4804 25.1113 15.5703 25.0514C15.6602 24.9915 15.7352 25.0514 15.8101 25.0964C15.9899 25.2312 16.1697 25.3511 16.3794 25.441C16.5442 25.5159 16.709 25.5758 16.8589 25.441C17.0237 25.3061 17.0986 25.0065 17.0237 24.8267Z" fill="#DFC091"/>
<path d="M20.4697 51.6014C20.4997 51.5714 20.5446 51.5564 20.5596 51.5265C21.2638 50.4477 21.983 49.3539 22.5823 48.2152C22.7471 47.9156 22.897 47.6009 23.1517 47.3612C23.1667 47.3462 23.1667 47.3163 23.1966 47.2863C23.0168 47.2563 22.852 47.3163 22.7022 47.3462C23.1067 47.0016 23.5262 46.672 24.0207 46.4772C24.1106 46.4473 24.2155 46.3724 24.3054 46.4623C24.3953 46.5521 24.3653 46.672 24.3353 46.7619C24.2604 47.0316 24.1555 47.2863 24.0357 47.541C23.4663 48.7546 22.8071 49.9233 22.0429 51.032C21.953 51.1819 21.8332 51.3017 21.6983 51.4066C21.5635 51.5115 21.4137 51.5714 21.2339 51.5714C20.9941 51.5864 20.7394 51.6313 20.4697 51.6014Z" fill="#DFC091"/>
<path d="M31.4073 49.7134C31.1825 50.0131 30.4933 50.1329 30.1487 49.9082C29.4595 49.4737 28.8003 49.0092 28.2609 48.38C27.9313 48.0054 27.5717 47.6458 27.2271 47.2862C27.1971 47.2562 27.1671 47.2413 27.1222 47.2113C27.0173 47.0015 26.9124 46.7918 26.8075 46.567C26.7776 46.5071 26.7626 46.4322 26.8075 46.3723C26.8675 46.2973 26.9574 46.2973 27.0323 46.3273C27.1222 46.3723 27.2121 46.4172 27.302 46.4771C28.2459 47.0465 29.1149 47.7507 29.939 48.4848C30.3435 48.8444 30.7331 49.189 31.0927 49.5936C31.1825 49.6835 31.2874 49.7134 31.4073 49.7134Z" fill="#DFC091"/>
<path d="M24.8297 20.6616C24.7848 21.0212 24.7398 21.3658 24.7099 21.7254C24.6649 22.1299 24.605 22.5345 24.59 22.939C24.5601 23.5383 24.5151 24.1376 24.2904 24.707C24.0057 25.3962 24.0207 26.1004 24.2754 26.8046C24.3503 26.9994 24.3803 27.1942 24.4402 27.3889C23.8559 27.0443 23.4513 26.5649 23.2715 25.9056C23.2116 25.6809 23.2865 25.4412 23.3614 25.2014C23.4813 24.7519 23.6461 24.3174 23.751 23.868C23.8109 23.5983 23.8409 23.3286 23.8409 23.0589C23.8559 22.6244 23.8409 22.1899 23.9158 21.7554C23.9757 21.4557 24.1106 21.186 24.2904 20.9313C24.3952 20.7365 24.605 20.6916 24.8297 20.6616Z" fill="#DFC091"/>
<path d="M19.1064 24.9318C19.0464 24.8269 19.1363 24.8119 19.2113 24.782C19.8255 24.6022 20.2601 24.1976 20.4998 23.6133C20.5597 23.4635 20.5597 23.2987 20.5297 23.1339C20.4698 22.7893 20.5447 22.6544 20.8744 22.5645C21.0991 22.5046 21.3089 22.4596 21.5036 22.3248C21.5336 22.3098 21.5785 22.2499 21.6235 22.3098C21.6385 22.6394 21.8782 22.8342 22.088 23.044C22.1928 23.1039 22.1329 23.1938 22.1179 23.2687C21.9681 23.8081 21.6684 24.2426 21.174 24.5273C20.5897 24.8569 19.9604 24.9917 19.2862 24.9768C19.2262 24.9768 19.1663 24.9917 19.1064 24.9318Z" fill="#FEFEFE"/>
<path d="M25.7588 31.8086C26.5379 31.8236 27.302 31.8685 28.0661 31.9434C28.156 31.9584 28.2759 31.9434 28.2759 32.0633C28.2909 32.1682 28.156 32.1831 28.0811 32.1981C27.3769 32.4229 26.6577 32.5278 25.9086 32.5577C25.4891 32.5727 25.0695 32.6027 24.65 32.6176C24.2305 32.6326 23.8709 32.4828 23.5413 32.2131C23.4814 32.1682 23.4364 32.1082 23.4514 32.0333C23.4664 31.9434 23.5563 31.9434 23.6312 31.9284C24.3354 31.8685 25.0396 31.7936 25.7588 31.8086Z" fill="#FEFEFE"/>
<path d="M19.1064 24.9316C19.8106 24.9466 20.4998 24.8417 21.1291 24.4971C21.6685 24.1975 21.9831 23.733 22.103 23.1337C22.103 23.1037 22.103 23.0737 22.103 23.0438C22.3277 23.0438 22.4775 22.8939 22.6423 22.7591C22.6873 22.7291 22.7322 22.6542 22.7922 22.6842C22.8521 22.7142 22.8371 22.7891 22.8371 22.864C22.7023 23.718 22.2228 24.3773 21.5486 24.8867C21.4137 24.9766 21.2789 25.0665 21.1441 25.1564C20.6796 25.3212 20.1851 25.3961 19.6907 25.471C19.3761 25.516 19.1663 25.441 19.0464 25.2013C18.9865 25.0815 18.9865 24.9916 19.1064 24.9316Z" fill="#DFC091"/>
<path d="M19.5408 19.5977C19.9154 19.6426 20.275 19.7325 20.5147 20.0621C20.5447 20.1071 20.5747 20.137 20.5896 20.182C20.6196 20.2569 20.6496 20.3468 20.5896 20.4217C20.5297 20.4816 20.4548 20.4667 20.3649 20.4517C20.1851 20.4067 19.9903 20.3917 19.7955 20.3917C19.2562 20.3917 18.7617 20.5715 18.2673 20.7813C17.9676 20.9161 17.668 21.0809 17.3384 21.1409C17.1885 21.1708 17.0237 21.2008 16.8739 21.1259C16.7091 21.051 16.6941 20.9461 16.8289 20.8262C16.8739 20.7963 16.9188 20.7663 16.9638 20.7513C17.3533 20.6015 17.6979 20.3768 18.0425 20.167C18.4471 19.9273 18.8816 19.7325 19.3311 19.6276C19.421 19.6126 19.4809 19.6126 19.5408 19.5977Z" fill="#DFC091"/>
<path d="M30.4784 20.5717C30.1787 20.5717 29.894 20.6466 29.6094 20.7065C29.5644 20.7215 29.5195 20.7215 29.4745 20.7215C29.3996 20.7215 29.3397 20.7065 29.3097 20.6466C29.2648 20.5717 29.2947 20.5117 29.3397 20.4668C29.8641 19.9724 30.5383 19.6427 31.2575 20.0473C31.4223 20.1372 31.5721 20.257 31.7219 20.3769C32.0965 20.7065 32.4261 21.0961 32.8906 21.3208C33.0254 21.3807 33.0105 21.4706 32.8906 21.5456C32.7558 21.6355 32.6209 21.5755 32.4861 21.5306C32.0815 21.4107 31.7519 21.171 31.4373 20.9013C31.1526 20.6765 30.838 20.5717 30.4784 20.5717Z" fill="#DFC091"/>
<path d="M31.617 24.8266C31.5271 24.7067 31.632 24.6468 31.6919 24.5868C31.8867 24.407 32.0665 24.1973 32.2013 23.9725C32.3811 23.6429 32.456 23.3133 32.2762 22.9537C32.1264 22.654 32.2013 22.5342 32.5459 22.5342C32.7707 22.6091 33.0104 22.6091 33.2351 22.6391C33.5797 22.684 33.6547 22.8039 33.5648 23.1335C33.4299 23.6879 33.1003 24.0924 32.6508 24.422C32.5759 24.482 32.516 24.5269 32.4411 24.5868C32.2013 24.7516 31.9167 24.7966 31.617 24.8266Z" fill="#FEFEFE"/>
<path d="M12.7686 20.8865C12.7536 21.5008 12.9184 22.0851 13.0383 22.6695C13.0683 22.8043 13.0533 22.9242 12.9184 22.9841C12.7836 23.044 12.6787 22.9691 12.6038 22.8493C12.2292 22.235 11.9745 21.5757 11.8397 20.8715C11.7797 20.5868 11.8547 20.4969 12.1244 20.407C12.2442 20.3621 12.3641 20.3171 12.4839 20.2872C12.6637 20.2572 12.7536 20.3321 12.7686 20.5119C12.7836 20.6468 12.7686 20.7666 12.7686 20.8865Z" fill="#FEFEFE"/>
<path d="M15.4655 20.7665C15.1658 20.7665 15.016 20.5567 15.1059 20.287C15.2857 19.8076 15.6303 19.5079 16.1547 19.463C16.4393 19.433 16.709 19.403 16.9937 19.3731C17.0686 19.3581 17.1435 19.3731 17.2035 19.403C17.3533 19.448 17.3833 19.5828 17.2784 19.7027C17.2334 19.7476 17.1885 19.7776 17.1435 19.8076C16.6641 20.0623 16.2146 20.3619 15.7801 20.6616C15.6752 20.7215 15.5853 20.7814 15.4655 20.7665Z" fill="#DFC091"/>
<path d="M21.7284 26.3852C21.7433 26.0855 21.8033 25.8458 21.9531 25.636C22.1179 25.4263 22.4026 25.3664 22.6273 25.5012C22.7172 25.5611 22.7472 25.6211 22.7022 25.7409C22.5374 26.1155 22.5224 26.4901 22.6872 26.8646C22.7172 26.9246 22.7322 26.9845 22.7322 27.0594C22.7622 27.3291 22.5973 27.464 22.3426 27.3591C22.013 27.2392 21.8632 26.9695 21.7733 26.6549C21.7433 26.55 21.7134 26.4451 21.7284 26.3852Z" fill="#DFC091"/>
<path d="M32.2763 19.4331C32.6209 19.4631 32.9356 19.4631 33.2352 19.5829C33.5798 19.7178 33.8346 20.0025 33.8196 20.3021C33.8046 20.6317 33.6548 20.8565 33.2652 20.6467C33.0105 20.5119 32.7857 20.3321 32.561 20.1373C32.3812 19.9875 32.2164 19.8227 32.0066 19.7028C31.9467 19.6728 31.8868 19.6279 31.9017 19.553C31.9167 19.4781 31.9767 19.4481 32.0516 19.4331C32.1415 19.4331 32.2314 19.4331 32.2763 19.4331Z" fill="#DFC091"/>
<path d="M24.7099 51.5712C24.5751 51.5712 24.4403 51.5862 24.3204 51.5712C24.1706 51.5562 24.1256 51.4663 24.2305 51.3615C24.5901 50.9419 24.8598 50.4775 25.0695 49.968C25.0845 49.9231 25.0995 49.8931 25.1295 49.8632C25.1444 49.8332 25.1744 49.8032 25.2194 49.8032C25.2643 49.8032 25.2793 49.8482 25.2793 49.8781C25.2943 50.028 25.3242 50.1778 25.3392 50.3276C25.3692 50.6123 25.3842 50.897 25.3992 51.1817C25.4141 51.4663 25.3242 51.5562 25.0396 51.5712C24.9047 51.5712 24.8148 51.5712 24.7099 51.5712Z" fill="#FEFEFE"/>
<path d="M13.9522 19.8972C13.8174 19.8972 13.6825 19.8972 13.5627 19.8972C13.4428 19.8972 13.3829 19.8672 13.3829 19.7324C13.3829 19.6725 13.3829 19.6275 13.3829 19.5676C13.323 19.178 13.4128 19.223 13.7125 19.208C13.9223 19.208 14.117 19.193 14.3268 19.178C14.4467 19.1631 14.5216 19.223 14.5366 19.3429C14.5366 19.3578 14.5366 19.3728 14.5366 19.3728C14.5665 19.9272 14.5965 19.8523 14.117 19.8523C14.0571 19.8523 14.0122 19.8523 13.9522 19.8523C13.9522 19.8822 13.9522 19.8822 13.9522 19.8972Z" fill="#FEFEFE"/>
<path d="M34.9732 19.3882C35.108 19.3882 35.2429 19.3882 35.3777 19.3882C35.4227 19.3882 35.4826 19.3732 35.5126 19.4182C35.6175 19.568 35.5276 19.7178 35.5126 19.8677C35.4976 19.9725 35.4077 20.0025 35.3178 20.0025C35.0631 20.0025 34.8084 20.0025 34.5686 19.9875C34.4338 19.9725 34.3589 19.8976 34.3589 19.7478C34.3589 19.3433 34.3589 19.3433 34.7634 19.3433C34.8383 19.3433 34.9133 19.3433 34.9732 19.3433C34.9732 19.3732 34.9732 19.3882 34.9732 19.3882Z" fill="#FEFEFE"/>
<path d="M31.6171 24.827C31.8867 24.7071 32.1864 24.6921 32.4561 24.5723C32.4112 24.7521 32.4711 24.9019 32.531 25.0517C32.576 25.1716 32.6808 25.1866 32.8007 25.1716C32.546 25.2615 32.2913 25.3214 32.0216 25.3064C31.8718 25.3064 31.6171 25.0817 31.5871 24.9319C31.5721 24.9019 31.6021 24.8719 31.6171 24.827Z" fill="#DFC092"/>
<path d="M20.5747 37.3075C20.6496 37.3374 20.7395 37.3075 20.7994 37.3674C20.1702 37.3674 19.5559 37.3674 18.9266 37.3674C17.3684 37.3674 15.7952 37.3674 14.2369 37.3674C14.2519 37.3374 14.2519 37.3224 14.2669 37.2925C14.3119 37.3524 14.3718 37.3374 14.4317 37.3374C16.4244 37.3374 18.4172 37.3374 20.4099 37.3374C20.4698 37.3374 20.5297 37.3524 20.5747 37.3075Z" fill="#422425"/>
<path d="M21.144 37.3675C21.189 37.3526 21.2489 37.3226 21.2939 37.3076C21.3538 37.3675 21.4137 37.3376 21.4886 37.3376C22.1029 37.3376 22.7023 37.3376 23.3166 37.3376C23.3166 37.3526 23.3166 37.3675 23.3016 37.3675C22.5824 37.3675 21.8632 37.3675 21.144 37.3675Z" fill="#422425"/>
<path d="M34.7785 37.3376C34.7785 37.3675 34.7635 37.3975 34.7485 37.4125C34.7036 37.3675 34.6436 37.3825 34.5987 37.3825C34.0293 37.3825 33.46 37.3825 32.8906 37.3825C32.9056 37.3526 32.9356 37.3376 32.9506 37.3076C33.0105 37.3675 33.0704 37.3376 33.1304 37.3376C33.6847 37.3376 34.2391 37.3376 34.7785 37.3376Z" fill="#432627"/>
<path d="M35.4227 37.3675C35.4077 37.3526 35.4077 37.3376 35.3927 37.3376C35.9471 37.3376 36.4865 37.3376 37.0408 37.3376C37.1007 37.3376 37.1607 37.3526 37.2056 37.3076C37.2356 37.3226 37.2656 37.3376 37.2805 37.3825C36.6812 37.3676 36.0519 37.3675 35.4227 37.3675Z" fill="#432526"/>
<path d="M1.68121 45.8628C1.65124 45.8777 1.62127 45.8927 1.59131 45.9077C1.59131 45.4432 1.59131 44.9788 1.59131 44.5293C1.60629 44.5293 1.60629 44.5293 1.62127 44.5293C1.62127 44.9188 1.62127 45.3084 1.62127 45.683C1.63626 45.7579 1.60629 45.8178 1.68121 45.8628Z" fill="#3C2424"/>
<path d="M6.85034 55.4067C6.89529 55.3767 6.94024 55.3767 6.98519 55.3917C6.94024 55.4516 6.89529 55.4067 6.85034 55.4067Z" fill="#482426"/>
<path d="M41.5508 59.7518C41.5508 59.9916 41.371 60.1714 41.1462 60.1863C40.9065 60.1863 40.7267 60.0065 40.7267 59.7818C40.7267 59.5421 40.9065 59.3323 41.1462 59.3473C41.356 59.3173 41.5358 59.5121 41.5508 59.7518Z" fill="#FBFBFB"/>
<path d="M31.1825 47.3311C31.2425 47.1813 31.2724 47.0914 31.3024 46.9865C31.3324 46.8966 31.3623 46.8516 31.4672 46.8666C31.5871 46.8816 31.5271 46.9565 31.5421 47.0164C31.5421 47.1663 31.5421 47.3011 31.5421 47.4509C31.5421 47.4959 31.5421 47.5408 31.4822 47.5408C31.4223 47.5408 31.4223 47.4959 31.4223 47.4509C31.4223 47.3311 31.4223 47.2262 31.4223 47.0764C31.3324 47.2112 31.3174 47.3461 31.2724 47.4509C31.2575 47.4959 31.2425 47.5259 31.1975 47.5259C31.1376 47.5259 31.1226 47.4959 31.1226 47.4509C31.0777 47.3311 31.0327 47.2112 30.9578 47.0914C30.9578 47.2112 30.9578 47.3161 30.9578 47.436C30.9578 47.4809 30.9578 47.5259 30.8979 47.5259C30.8379 47.5259 30.8379 47.4809 30.8379 47.436C30.8379 47.2861 30.8379 47.1213 30.8379 46.9715C30.8379 46.9265 30.808 46.8516 30.9129 46.8666C30.9728 46.8666 31.0477 46.8516 31.0627 46.9415C31.0777 47.0614 31.1226 47.1813 31.1825 47.3311Z" fill="#262422"/>
<path d="M30.4483 46.8667C30.5083 46.8667 30.5832 46.8667 30.6431 46.8667C30.6731 46.8667 30.718 46.8667 30.718 46.9117C30.718 46.9566 30.6881 46.9866 30.6581 46.9716C30.4783 46.9416 30.5083 47.0615 30.5083 47.1664C30.5083 47.2263 30.5233 47.2862 30.5083 47.3462C30.4933 47.4061 30.5682 47.526 30.4334 47.526C30.3135 47.526 30.3884 47.4211 30.3734 47.3612C30.3584 47.3012 30.3734 47.2413 30.3734 47.1814C30.3734 47.0765 30.4034 46.9416 30.2086 46.9716C30.1786 46.9716 30.1487 46.9566 30.1487 46.9266C30.1487 46.8817 30.1786 46.8667 30.2086 46.8667C30.2835 46.8667 30.3734 46.8667 30.4483 46.8667Z" fill="#282625"/>
<path d="M41.311 60.0214C41.2361 59.9914 41.2511 59.9315 41.2511 59.8865C41.2211 59.8116 41.1612 59.7966 41.1013 59.7966C41.0114 59.7966 41.0264 59.8566 41.0264 59.9015C41.0264 59.9465 41.0414 59.9914 40.9814 59.9914C40.9215 59.9914 40.9365 59.9315 40.9365 59.9015C40.9365 59.8266 40.9365 59.7517 40.9365 59.6917C40.9365 59.482 41.0713 59.3921 41.2661 59.482C41.311 59.497 41.326 59.5269 41.341 59.5719C41.3859 59.6618 41.2361 59.7067 41.296 59.7816C41.341 59.8715 41.356 59.9465 41.311 60.0214Z" fill="#2B2927"/>
<path d="M41.1312 59.5569C41.1911 59.5569 41.2511 59.5869 41.2361 59.6618C41.2211 59.7367 41.1462 59.7517 41.0862 59.7517C40.9963 59.7517 41.0113 59.6918 41.0113 59.6468C41.0113 59.5419 41.0712 59.5419 41.1312 59.5569Z" fill="#EDECEC"/>
</g>
<defs>
<clipPath id="clip0_141_7583">
<rect width="56.6353" height="70" fill="white" transform="translate(0.602539)"/>
</clipPath>
</defs>
</svg>
