<svg width="141" height="52" viewBox="0 0 141 52" fill="none" xmlns="http://www.w3.org/2000/svg">
<g clip-path="url(#clip0_141_7823)">
<path d="M136.247 0H0.0941162V52H136.247V0Z" fill="black"/>
<path d="M0.0941162 52H21.0394L0.0941162 31.2031V52Z" fill="#E31837"/>
<path d="M136.247 0H115.301L136.247 20.7968V0Z" fill="#E31837"/>
<path d="M29.4176 39.522L41.9848 52.0001H62.9301L50.3629 39.522H29.4176Z" fill="#E31837"/>
<path d="M12.6613 12.4781H23.1419L10.5588 0H0.0941162V10.3905L12.6613 22.8845V12.4781Z" fill="#E31837"/>
<path d="M136.247 41.5933L123.68 29.1152V39.5215H113.199L125.766 51.9997H136.247V41.5933Z" fill="#E31837"/>
<path d="M106.924 12.4781L94.3562 0H73.4109L85.9782 12.4781H106.924Z" fill="#E31837"/>
<path d="M65.0326 12.4781L52.4653 0H31.5042L44.0872 12.4781H65.0326Z" fill="#E31837"/>
<path d="M71.3085 39.522L83.8757 52.0001H104.821L92.2538 39.522H71.3085Z" fill="#E31837"/>
<path d="M51.0796 21.7772C50.6336 21.3976 50.0443 21.2236 49.2957 21.2236H47.0975V25.7626H49.3115C50.0761 25.7626 50.6655 25.557 51.0955 25.1616C51.5255 24.7504 51.7326 24.2127 51.7326 23.5168V23.4694C51.7326 22.6945 51.5096 22.141 51.0796 21.7772Z" fill="black"/>
<path d="M84.8788 27.9766H88.1281L86.5035 22.8999L84.8788 27.9766Z" fill="black"/>
<path d="M109.169 34.3029C107.959 33.8917 106.844 33.2591 105.808 32.3576L108.197 29.1155C108.914 29.6849 109.679 30.1593 110.475 30.5231C111.272 30.8869 112.1 31.0608 112.944 31.0608C113.55 31.0608 113.995 30.9501 114.314 30.7129C114.617 30.4915 114.775 30.1751 114.775 29.7956V29.7798C114.775 29.6216 114.744 29.4477 114.664 29.3053C114.585 29.163 114.457 29.0206 114.266 28.8625C114.075 28.7202 113.804 28.5779 113.486 28.4355C113.151 28.2932 112.721 28.1192 112.212 27.9453C111.383 27.6606 110.618 27.376 109.95 27.0596C109.264 26.7591 108.676 26.3954 108.182 25.9842C107.688 25.5729 107.289 25.0828 107.019 24.5134C106.748 23.944 106.605 23.2798 106.605 22.4891V22.41C106.605 21.6192 106.748 20.8917 107.035 20.2433C107.322 19.5949 107.736 19.0255 108.277 18.5669C108.819 18.0925 109.471 17.7288 110.252 17.4598C111.017 17.191 111.876 17.0644 112.833 17.0644C114.011 17.0644 115.111 17.2226 116.146 17.5547C117.18 17.8869 118.153 18.4245 119.061 19.1678L116.799 22.4891C116.209 22.0304 115.556 21.6509 114.855 21.3504C114.154 21.0499 113.454 20.9075 112.737 20.9075C112.227 20.9075 111.829 21.0182 111.558 21.2238C111.288 21.4453 111.144 21.7141 111.144 22.0462V22.0779C111.144 22.2835 111.192 22.4416 111.272 22.5998C111.351 22.7421 111.495 22.9002 111.702 23.0426C111.909 23.1849 112.196 23.3431 112.546 23.517C112.896 23.691 113.358 23.8649 113.9 24.0705C114.728 24.3394 115.477 24.624 116.146 24.9404C116.815 25.2567 117.372 25.6204 117.85 26.0474C118.311 26.4744 118.662 26.9489 118.917 27.5024C119.172 28.0402 119.284 28.6886 119.284 29.4319V29.4794C119.284 30.3175 119.124 31.0767 118.805 31.7567C118.487 32.4368 118.057 33.0061 117.5 33.4806C116.942 33.955 116.273 34.3029 115.492 34.556C114.712 34.809 113.852 34.9197 112.929 34.9197C111.622 34.9039 110.38 34.7141 109.169 34.3029ZM101.587 28.1351V34.6666H97.0955V28.1825L91.489 17.3334H96.4585L99.3733 23.5961L102.321 17.3334H107.21L101.587 28.1351ZM90.2626 34.6666L89.2432 31.5511H83.748L82.7605 34.6666H78.1414L84.2737 17.2385H88.8132L94.9774 34.6666H90.2626ZM73.9205 34.0499C72.8214 34.4611 71.5631 34.6666 70.1455 34.6666H64.4911V17.3334H70.2251C71.6268 17.3334 72.8692 17.5389 73.9682 17.9343C75.0672 18.3455 75.9752 18.9148 76.7397 19.6581C77.4883 20.4015 78.0617 21.2871 78.444 22.3309C78.8422 23.3746 79.0334 24.5292 79.0334 25.7944V26.0949C79.0334 27.3601 78.8422 28.5304 78.444 29.59C78.0617 30.6496 77.4724 31.5511 76.7238 32.2944C75.9592 33.0535 75.0195 33.6387 73.9205 34.0499ZM62.309 34.6666H57.8173V17.3334H62.309V34.6666ZM51.653 34.6666L48.6904 29.2896H47.0977V34.6666H42.6378V17.3334H49.5028C51.8442 17.3334 53.5963 17.9185 54.7431 19.0888C55.221 19.5632 55.6033 20.1326 55.8741 20.8126C56.1448 21.4769 56.2722 22.2676 56.2722 23.1533V23.2798C56.2722 24.5608 55.9855 25.6204 55.4121 26.4428C54.8387 27.2652 54.0901 27.9136 53.1504 28.3722L56.7341 34.6666H51.653ZM41.284 21.3346H33.9093V24.4027H40.5354V28.2458H33.9093V34.6508H29.4176V17.3334H41.284V21.3346ZM22.027 28.3248H21.8517C19.2236 28.3248 17.4079 26.5377 17.4079 24.1496C17.4079 22.916 17.7902 21.9988 18.475 21.1606L20.1793 22.3942C19.7652 22.8528 19.4625 23.3431 19.4625 24.1022C19.4625 25.2092 20.4342 26.0474 21.8836 26.0474H22.0111C23.6039 26.0474 24.4959 25.1934 24.4959 24.0864C24.4959 23.6436 24.4002 23.3273 24.241 23.0742H22.9349V24.4501H21.1987V20.9866H25.3719C25.9771 21.809 26.455 22.8528 26.455 24.1813C26.4391 26.5219 24.7507 28.3248 22.027 28.3248ZM26.2957 32.7688H19.5741V34.9197H17.5513V28.4039H19.5741V30.5547H26.2957V32.7688ZM17.5513 17.3334H26.2957V19.5632H17.5513V17.3334ZM123.68 39.5219V29.1155L136.247 41.5937V20.7968L115.301 0H94.3562L106.923 12.4781H85.978L73.4108 0H52.4654L65.0326 12.4781H44.0873L31.5042 0H10.5588L23.126 12.4781H12.6613V22.8686L0.0941162 10.3905V31.1874L21.0394 51.9842H41.9848L29.4176 39.5061H50.3629L62.9301 51.9842H83.8755L71.3083 39.5061H92.2536L104.821 51.9842H125.766L113.199 39.5061H123.68V39.5219Z" fill="black"/>
<path d="M70.2731 21.3188H68.9829V30.6814H70.2731C71.5155 30.6814 72.5189 30.3018 73.2835 29.5585C74.048 28.8152 74.4303 27.6765 74.4303 26.1108V25.8894C74.4303 24.3237 74.048 23.1692 73.2835 22.4259C72.5189 21.6826 71.5155 21.3188 70.2731 21.3188Z" fill="black"/>
<path d="M29.4176 34.6664H33.8934V28.2454H40.5354V24.4182H33.8934V21.3342H41.284V17.333H29.4176V34.6664Z" fill="white"/>
<path d="M51.7329 23.5009C51.7329 24.1967 51.5259 24.7502 51.0959 25.1456C50.6658 25.5569 50.0765 25.7466 49.3119 25.7466H47.0979V21.2078H49.296C50.0446 21.2078 50.634 21.3975 51.0799 21.7613C51.5259 22.125 51.7329 22.6785 51.7329 23.4376V23.5009ZM55.3805 26.4425C55.9539 25.6201 56.2406 24.5605 56.2406 23.2795V23.1529C56.2406 22.2673 56.1132 21.4766 55.8424 20.8124C55.5717 20.1481 55.2052 19.563 54.7115 19.0885C53.5647 17.9182 51.8286 17.333 49.4712 17.333H42.6062V34.6664H47.066V29.2892H48.6589L51.6215 34.6664H56.6866L53.1028 28.372C54.0585 27.9133 54.8071 27.2649 55.3805 26.4425Z" fill="white"/>
<path d="M57.8175 34.6664H62.3092V17.333H57.8175V34.6664Z" fill="white"/>
<path d="M74.4302 26.1262C74.4302 27.6761 74.048 28.8306 73.2834 29.5739C72.5189 30.3172 71.5154 30.6967 70.273 30.6967H68.9829V21.3342H70.273C71.5154 21.3342 72.5189 21.7138 73.2834 22.4571C74.048 23.2004 74.4302 24.3549 74.4302 25.9206V26.1262ZM79.0175 26.0945V25.7941C79.0175 24.5289 78.8264 23.3744 78.4281 22.3306C78.0459 21.2868 77.4725 20.4011 76.7238 19.6579C75.9752 18.9146 75.0515 18.3452 73.9524 17.934C72.8534 17.5386 71.611 17.333 70.2093 17.333H64.4752V34.6664H70.1297C71.5472 34.6664 72.8055 34.4608 73.9046 34.0495C75.0196 33.6383 75.9434 33.0532 76.7079 32.3099C77.4566 31.5666 78.0459 30.6493 78.4281 29.6055C78.8264 28.5301 79.0175 27.3756 79.0175 26.0945Z" fill="white"/>
<path d="M84.8788 27.9767L86.5035 22.9001L88.1281 27.9767H84.8788ZM84.2895 17.2383L78.1572 34.6665H82.7763L83.7638 31.5509H89.259L90.2784 34.6665H94.9932L88.813 17.2383H84.2895Z" fill="white"/>
<path d="M102.304 17.333L99.3575 23.5958L96.4427 17.333H91.4731L97.0797 28.1664V34.6664H101.588V28.1347L107.194 17.333H102.304Z" fill="white"/>
<path d="M117.5 33.4649C118.057 32.9904 118.487 32.4211 118.805 31.741C119.124 31.061 119.284 30.3019 119.284 29.4636V29.4162C119.284 28.6729 119.156 28.0245 118.917 27.4867C118.662 26.9332 118.311 26.4588 117.85 26.0317C117.388 25.6048 116.815 25.241 116.146 24.9247C115.477 24.6084 114.728 24.3237 113.9 24.0549C113.358 23.8493 112.896 23.6753 112.546 23.5014C112.179 23.3431 111.909 23.185 111.702 23.0269C111.495 22.8845 111.352 22.7264 111.272 22.584C111.192 22.4417 111.145 22.2678 111.145 22.0622V22.0305C111.145 21.6985 111.272 21.4296 111.559 21.2082C111.829 20.9867 112.227 20.8918 112.737 20.8918C113.454 20.8918 114.154 21.0342 114.855 21.3347C115.556 21.6351 116.209 22.0147 116.799 22.4734L119.061 19.1522C118.153 18.4089 117.181 17.8712 116.146 17.539C115.111 17.207 114.011 17.0488 112.833 17.0488C111.893 17.0488 111.017 17.1753 110.252 17.4441C109.471 17.713 108.819 18.0768 108.277 18.5513C107.736 19.0257 107.322 19.5792 107.035 20.2276C106.748 20.876 106.605 21.6036 106.605 22.3942V22.4734C106.605 23.2641 106.732 23.9441 107.019 24.4976C107.289 25.067 107.688 25.5414 108.182 25.9685C108.676 26.3797 109.264 26.7434 109.95 27.0439C110.635 27.3444 111.383 27.6448 112.212 27.9296C112.721 28.1194 113.151 28.2775 113.486 28.4198C113.82 28.5622 114.075 28.7203 114.267 28.8468C114.457 28.9891 114.585 29.1315 114.664 29.2896C114.744 29.432 114.775 29.5901 114.775 29.7641V29.7799C114.775 30.1595 114.617 30.46 114.314 30.6972C113.995 30.9344 113.55 31.0451 112.944 31.0451C112.1 31.0451 111.272 30.8712 110.475 30.5075C109.679 30.1436 108.914 29.6692 108.197 29.0999L105.808 32.3419C106.844 33.2434 107.959 33.876 109.17 34.2872C110.364 34.6826 111.622 34.8882 112.913 34.8882C113.852 34.8882 114.697 34.7775 115.477 34.5245C116.273 34.2872 116.942 33.9393 117.5 33.4649Z" fill="white"/>
<path d="M19.5739 28.3882H17.551V34.904H19.5739V32.7689H26.2955V30.539H19.5739V28.3882Z" fill="white"/>
<path d="M21.1829 20.9709V24.4344H22.919V23.0585H24.2251C24.3844 23.3115 24.4799 23.6278 24.4799 24.0706C24.4799 25.1935 23.588 26.0317 21.9952 26.0317H21.8678C20.4183 26.0317 19.4467 25.1935 19.4467 24.0865C19.4467 23.3432 19.7653 22.8371 20.1635 22.3784L18.4592 21.1449C17.7743 21.9831 17.392 22.9003 17.392 24.1339C17.392 26.522 19.2078 28.3091 21.8359 28.3091H22.0111C24.7507 28.3091 26.4232 26.5062 26.4232 24.1497C26.4232 22.8371 25.9453 21.7774 25.3401 20.9551H21.1829V20.9709Z" fill="white"/>
<path d="M26.2955 17.333H17.551V19.563H26.2955V17.333Z" fill="white"/>
<path d="M137.442 50.3871H136.836V50.1973H138.302V50.3871H137.681V52.0002H137.442V50.3871Z" fill="white"/>
<path d="M138.492 50.1973H138.827L139.4 51.6997L139.974 50.1973H140.308V52.0002H140.086V50.4977L139.512 52.0002H139.305L138.732 50.4977V52.0002H138.492V50.1973Z" fill="white"/>
</g>
<defs>
<clipPath id="clip0_141_7823">
<rect width="140.214" height="52" fill="white" transform="translate(0.0941162)"/>
</clipPath>
</defs>
</svg>
