<svg width="72" height="70" viewBox="0 0 72 70" fill="none" xmlns="http://www.w3.org/2000/svg">
<path d="M5.33997 52.9943C5.33997 53.7339 5.71075 53.7339 5.71075 53.7339H11.6251C13.4748 53.7339 13.4748 55.2135 13.4748 55.5828L13.4723 55.9521H8.29821C7.55834 55.9521 4.60156 55.9521 4.60156 59.0955V59.4646C4.60156 62.607 7.55834 62.607 8.29821 62.607H14.9529V55.9521V55.5828C14.9529 55.2135 14.9529 52.2559 11.6251 52.2559H5.71075C5.71075 52.2559 5.33997 52.2559 5.33997 52.9943ZM8.29842 61.1274C7.55855 61.1274 6.07985 61.1274 6.07985 59.4644V59.0953C6.07985 57.4314 7.55855 57.4314 8.29842 57.4314H13.475V61.1274H8.29842Z" fill="black"/>
<path d="M41.199 52.9943C41.199 53.7339 41.5683 53.7339 41.5683 53.7339H47.4833C49.3317 53.7339 49.3317 55.2135 49.3317 55.5828V55.9521H44.1566C43.4179 55.9521 40.4593 55.9521 40.4593 59.0955V59.4646C40.4593 62.607 43.4179 62.607 44.1566 62.607H50.8098V55.9521V55.5828C50.8098 55.2135 50.8098 52.2559 47.4833 52.2559H41.5683C41.5685 52.2559 41.199 52.2559 41.199 52.9943ZM44.1568 61.1274C43.4182 61.1274 41.9388 61.1274 41.9388 59.4644V59.0953C41.9388 57.4314 43.4182 57.4314 44.1568 57.4314H49.3319V61.1274H44.1568Z" fill="black"/>
<path d="M57.0946 62.607H55.6161V55.9521V55.5828C55.6161 55.2135 55.6161 52.2559 58.943 52.2559H61.1609C61.1609 52.2559 61.5302 52.2559 61.5302 52.9943C61.5302 53.7339 61.1609 53.7339 61.1609 53.7339H58.943C57.0946 53.7339 57.0946 55.2135 57.0946 55.5828V55.9521V62.607Z" fill="black"/>
<path d="M26.7819 69.9997C27.5217 69.9997 27.5217 69.6303 27.5217 69.6303V62.6066H31.2178C32.6958 62.6066 36.3929 62.6066 36.3929 58.1709V56.6903C36.3929 52.2559 32.6958 52.2559 31.2178 52.2559H26.0411V62.6068V69.6305C26.0409 69.6301 26.0434 69.9997 26.7819 69.9997ZM31.2176 53.7337C32.6956 53.7337 34.9146 53.7337 34.9146 56.6901V58.1707C34.9146 61.1272 32.6954 61.1272 31.2176 61.1272H27.5215V53.7337H31.2176Z" fill="black"/>
<path d="M19.7579 62.6068H21.2362V45.2306C21.2362 45.2306 21.2362 44.8613 20.4963 44.8613C19.7579 44.8613 19.7579 45.2306 19.7579 45.2306V62.6068Z" fill="black"/>
<path d="M65.2271 62.6068H66.7071V52.625C66.7071 52.625 66.7071 52.2559 65.9672 52.2559C65.2271 52.2559 65.2271 52.625 65.2271 52.625V62.6068Z" fill="black"/>
<path d="M67.0757 49.2974C67.0757 50.0382 66.8926 50.2229 66.8926 50.2229C66.8926 50.2229 66.7068 50.4075 65.9672 50.4075C65.2271 50.4075 65.0425 50.2229 65.0425 50.2229C65.0425 50.2229 64.858 50.0382 64.858 49.2974C64.858 48.5578 65.0425 48.3743 65.0425 48.3743C65.0425 48.3743 65.2271 48.1885 65.9672 48.1885C66.707 48.1885 66.8926 48.3743 66.8926 48.3743C66.8926 48.3743 67.0757 48.5578 67.0757 49.2974Z" fill="black"/>
<path d="M71.1435 40.7814H69.6627C69.5359 40.7814 66.5328 40.7545 64.2367 38.4596L56.8448 31.0653C55.5023 29.723 54.2513 29.724 52.9092 31.0653L50.4406 33.5352L45.0146 28.1092C44.3471 27.4416 43.6856 27.103 43.0473 27.103C42.4079 27.103 41.7465 27.4416 41.08 28.1079L38.6114 30.5761L31.2171 23.1836L20.8661 33.5352L18.3967 31.0653C17.064 29.7303 15.7973 29.729 14.4636 31.0653L7.07069 38.4586C4.77454 40.7547 1.77022 40.7816 1.64343 40.7816H0.164734V40.0714H1.64343C1.67096 40.0714 4.48594 40.0395 6.56834 37.9565L13.9608 30.5642C15.5711 28.9529 17.2898 28.9529 18.9001 30.5642L20.8659 32.5315L31.2168 22.1802L38.6112 29.5728L40.5785 27.6056C41.3822 26.8012 42.2134 26.3927 43.0471 26.3927C43.8808 26.3927 44.711 26.801 45.5157 27.6056L50.4402 32.5315L52.4075 30.5642C54.0213 28.9456 55.7294 28.9493 57.3455 30.5642L64.7378 37.9575C66.821 40.0397 69.6341 40.0716 69.6623 40.0716H71.1431V40.7814H71.1435Z" fill="#8DC63F"/>
<path d="M71.1434 33.3882H69.6627C69.5359 33.3882 66.5328 33.3611 64.2366 31.0649L56.8448 23.6706C55.501 22.3295 54.2504 22.3324 52.9092 23.6706L50.4406 26.1404L45.0146 20.7138C43.672 19.3725 42.4221 19.3725 41.0802 20.7138L38.6116 23.1834L31.2172 15.7891L20.8678 26.1406L18.3969 23.6708C17.0556 22.3301 15.8046 22.331 14.4625 23.6708L7.07106 31.0651C4.77491 33.3613 1.77059 33.3884 1.6438 33.3884H0.1651V32.6779H1.6438C1.67133 32.6779 4.4863 32.6462 6.56871 30.564L13.9612 23.1697C15.5775 21.5559 17.2843 21.5565 18.8992 23.1693L20.8665 25.137L31.2174 14.7856L38.6118 22.18L40.5791 20.2129C42.1904 18.5984 43.8976 18.5953 45.5163 20.2123L50.4408 25.137L52.4081 23.1697C54.0196 21.5565 55.7275 21.5546 57.3461 23.1693L64.7384 30.564C66.8216 32.6462 69.6347 32.6779 69.6629 32.6779H71.1436V33.3882H71.1434Z" fill="#BEB632"/>
<path d="M71.1434 25.9943H69.6627C69.5359 25.9943 66.5328 25.9674 64.2366 23.6712L56.8448 16.2781C55.501 14.9356 54.2504 14.9375 52.9092 16.2788L50.4406 18.7472L45.0146 13.3216C43.6797 11.9865 42.4152 11.9874 41.0802 13.3212L38.6116 15.7895L31.2172 8.39645L20.8663 18.7472L18.3969 16.2779C17.0556 14.936 15.8046 14.9366 14.4625 16.2786L7.07106 23.671C4.77491 25.9672 1.77059 25.9941 1.6438 25.9941H0.1651V25.2838H1.6438C1.67133 25.2838 4.4863 25.2519 6.56871 23.1693L13.9612 15.7766C15.5763 14.1613 17.2843 14.162 18.8992 15.776L20.8665 17.7433L31.2174 7.39258L38.6118 14.7859L40.5791 12.8192C42.1883 11.2104 43.9068 11.2098 45.5163 12.8198L50.4408 17.7433L52.4081 15.7766C54.0196 14.162 55.73 14.1603 57.3461 15.776L64.7384 23.1699C66.8216 25.2521 69.6347 25.284 69.6629 25.284H71.1436V25.9943H71.1434Z" fill="#D88D2A"/>
<path d="M71.1434 18.6005H69.6626C69.5358 18.6005 66.5327 18.5735 64.2366 16.2789L56.8447 8.88619C55.5022 7.54386 54.2512 7.54449 52.9091 8.88556L50.4405 11.3552L45.0145 5.92857C44.347 5.26169 43.6855 4.92366 43.0472 4.92303C42.4078 4.92303 41.7464 5.26106 41.0799 5.92795L38.6113 8.39655L31.217 1.00387L20.8661 11.3552L18.3966 8.88556C17.0639 7.55054 15.7973 7.54928 14.4635 8.88556L7.06998 16.2789C4.77467 18.5735 1.77014 18.6005 1.64356 18.6005H0.164856V17.89H1.64356C1.67108 17.89 4.48606 17.8581 6.56888 15.7761L13.9611 8.38404C15.5714 6.77208 17.2901 6.77334 18.9004 8.38404L20.8663 10.3513L31.2172 0L38.6115 7.39268L40.5788 5.42601C41.3825 4.6217 42.2137 4.21318 43.0474 4.21318C43.8811 4.21318 44.7113 4.62149 45.516 5.42601L50.4405 10.3513L52.4078 8.38362C54.0216 6.76666 55.7297 6.76917 57.3458 8.38362L64.7381 15.7761C66.8284 17.8662 69.6344 17.89 69.6626 17.89H71.1434V18.6005Z" fill="#F15A22"/>
</svg>
