<svg width="70" height="70" viewBox="0 0 70 70" fill="none" xmlns="http://www.w3.org/2000/svg">
<path d="M61.8664 13.6001C63.507 15.7497 64.8959 18.0851 66.0049 20.5594L34.5451 44.0622L21.3972 35.7095V25.6607L34.5451 34.0134L61.8664 13.6001Z" fill="#21A038"/>
<path d="M7.97884 35.0001C7.97884 34.5492 7.98969 34.1013 8.01139 33.656L0.0433951 33.2603C0.0162746 33.8374 9.62894e-06 34.4202 9.62894e-06 35.0083C-0.00338053 39.6035 0.888467 44.154 2.62442 48.3988C4.36035 52.6439 6.9062 56.4997 10.1159 59.7452L15.7678 54.02C13.2971 51.5261 11.337 48.5619 10.0003 45.2978C8.66365 42.0338 7.97666 38.5341 7.97884 35.0001Z" fill="url(#paint0_linear_141_10023)"/>
<path d="M34.5379 8.08366C34.9826 8.08366 35.4245 8.10016 35.8639 8.12214L36.2626 0.0441821C35.6914 0.0166967 35.1164 0.00295565 34.5379 0.00295565C30.0015 -0.00265071 25.5091 0.899896 21.318 2.65877C17.127 4.41764 13.3201 6.99821 10.1158 10.2523L15.7677 15.9802C18.2286 13.4754 21.1538 11.4883 24.375 10.1331C27.5963 8.77795 31.05 8.08144 34.5379 8.08366Z" fill="url(#paint1_linear_141_10023)"/>
<path d="M34.5379 61.9162C34.0932 61.9162 33.6511 61.9162 33.2091 61.8805L32.8104 69.9557C33.3835 69.985 33.9594 69.9997 34.5379 69.9997C39.0723 70.0045 43.5627 69.1013 47.7515 67.342C51.9403 65.5826 55.7447 63.0016 58.9465 59.7476L53.3054 54.0225C50.8441 56.5259 47.9193 58.5119 44.6986 59.8666C41.478 61.2213 38.025 61.9179 34.5379 61.9162Z" fill="url(#paint2_linear_141_10023)"/>
<path d="M49.5087 12.7808L56.2237 7.76468C50.0861 2.72787 42.4248 -0.0139816 34.5272 5.36171e-05V8.08351C39.8751 8.07679 45.0988 9.71469 49.5087 12.7808Z" fill="url(#paint3_linear_141_10023)"/>
<path d="M69.0734 35.0002C69.0777 32.8974 68.8962 30.7981 68.5309 28.728L61.0973 34.2801C61.0973 34.5193 61.0973 34.7584 61.0973 35.0002C61.0992 38.761 60.3213 42.4803 58.8142 45.9168C57.3069 49.3534 55.1039 52.4306 52.3481 54.9491L57.7099 60.9548C61.2927 57.6768 64.1557 53.6725 66.1132 49.2014C68.071 44.7301 69.0794 39.8918 69.0734 35.0002Z" fill="#21A038"/>
<path d="M34.5381 61.9166C30.827 61.9179 27.1569 61.1293 23.7655 59.6019C20.3743 58.0745 17.3373 55.8422 14.8513 53.0498L8.92822 58.4809C12.1622 62.1124 16.1133 65.0144 20.5251 66.9989C24.937 68.9832 29.7111 70.0057 34.5381 70V61.9166Z" fill="url(#paint4_linear_141_10023)"/>
<path d="M16.7279 15.051L11.3689 9.04541C7.78514 12.3227 4.9211 16.3268 2.96253 20.7981C1.00399 25.2693 -0.00533968 30.1078 2.12438e-05 34.9998H7.97886C7.97721 31.2393 8.7552 27.52 10.2624 24.0834C11.7695 20.647 13.9723 17.5697 16.7279 15.051Z" fill="url(#paint5_linear_141_10023)"/>
<defs>
<linearGradient id="paint0_linear_141_10023" x1="11.7296" y1="58.7365" x2="2.80275" y2="33.2735" gradientUnits="userSpaceOnUse">
<stop offset="0.14" stop-color="#F1E813"/>
<stop offset="0.3" stop-color="#E6E418"/>
<stop offset="0.58" stop-color="#C9DA26"/>
<stop offset="0.89" stop-color="#A2CC39"/>
</linearGradient>
<linearGradient id="paint1_linear_141_10023" x1="12.394" y1="11.6815" x2="34.9223" y2="3.21029" gradientUnits="userSpaceOnUse">
<stop offset="0.06" stop-color="#0FA7DF"/>
<stop offset="0.54" stop-color="#0098F8"/>
<stop offset="0.92" stop-color="#0290EA"/>
</linearGradient>
<linearGradient id="paint2_linear_141_10023" x1="32.2844" y1="65.121" x2="57.707" y2="59.454" gradientUnits="userSpaceOnUse">
<stop offset="0.12" stop-color="#A2CC39"/>
<stop offset="0.28" stop-color="#86C239"/>
<stop offset="0.87" stop-color="#219F38"/>
</linearGradient>
<linearGradient id="paint3_linear_141_10023" x1="32.8676" y1="2.70737" x2="54.6246" y2="9.33236" gradientUnits="userSpaceOnUse">
<stop offset="0.06" stop-color="#0290EA"/>
<stop offset="0.79" stop-color="#0C89CA"/>
</linearGradient>
<linearGradient id="paint4_linear_141_10023" x1="10.9297" y1="57.4969" x2="34.6338" y2="66.2383" gradientUnits="userSpaceOnUse">
<stop offset="0.13" stop-color="#F1E813"/>
<stop offset="0.3" stop-color="#EAE616"/>
<stop offset="0.53" stop-color="#D8DF1F"/>
<stop offset="0.8" stop-color="#BAD52D"/>
<stop offset="0.98" stop-color="#A2CC39"/>
</linearGradient>
<linearGradient id="paint5_linear_141_10023" x1="2.97242" y1="35.9783" x2="12.6796" y2="11.0618" gradientUnits="userSpaceOnUse">
<stop offset="0.07" stop-color="#A2CC39"/>
<stop offset="0.26" stop-color="#81C45E"/>
<stop offset="0.92" stop-color="#0FA7DF"/>
</linearGradient>
</defs>
</svg>
