<svg width="57" height="70" viewBox="0 0 57 70" fill="none" xmlns="http://www.w3.org/2000/svg">
<path fill-rule="evenodd" clip-rule="evenodd" d="M22.7859 3.24364C22.8259 3.12081 22.8814 3.00231 22.9534 2.88989C23.3951 2.04718 24.7428 1.78667 25.6709 1.84984C26.9451 1.93664 28.1582 2.2361 29.3147 2.78999C29.6573 2.95412 29.9792 3.14093 30.3101 3.32599C30.7643 3.57995 31.2173 3.70594 31.6595 3.69167C32.3962 3.66792 33.1027 3.28867 33.7326 2.71618C33.3776 3.90468 33.1776 5.0065 32.122 5.80383C32.7241 6.77113 32.9535 8.1303 33.1806 9.13269C33.3281 9.78426 33.4933 10.479 33.7665 11.09C34.0868 11.806 34.5905 12.6509 35.4464 12.76C36.2377 12.8609 36.7919 12.3499 36.9548 11.6L37.0715 11.0621H55.3461L55.2977 11.7901C55.214 13.049 54.9451 14.3954 54.3218 15.5054C54.203 15.7172 54.0708 15.9201 53.925 16.1106L55.1205 16.1095L55.0312 16.8722C54.8027 18.8255 54.153 20.5589 52.9495 21.9878L54.4327 21.979L54.3664 22.7263C54.1989 24.6202 53.7486 27.4183 52.4219 29.1781L53.2952 29.1857L53.2291 29.9227C52.9946 32.5408 52.1395 35.3958 50.5574 37.5943L51.5158 37.5951L51.2316 38.4846C47.6337 49.7495 40.9896 63.9188 28.9696 68.082L28.7463 68.1594L28.5228 68.0822C16.504 63.9229 9.85761 49.7466 6.26064 38.4846L5.9765 37.5951L6.93491 37.5943C5.35269 35.3958 4.49763 32.5408 4.26315 29.9227L4.19714 29.1857L5.07029 29.1781C3.74371 27.4183 3.29334 24.6202 3.12576 22.7263L3.05964 21.979L4.54272 21.9878C3.33928 20.5589 2.68959 18.8255 2.46105 16.8722L2.37179 16.1095L3.56731 16.1106C3.42147 15.9201 3.28928 15.7172 3.17043 15.5054C2.54716 14.3954 2.2783 13.049 2.19455 11.7901L2.14612 11.0621H20.4026L20.5207 11.5981C20.6787 12.3167 21.1383 12.7511 21.8789 12.7684C22.3568 12.7796 22.7572 12.5131 23.0715 12.1735C23.6717 11.5251 24.1558 10.4021 24.0519 9.50877C23.9836 8.92166 23.5241 8.53738 22.9748 8.39923C22.6931 8.32846 22.3747 8.42719 22.1418 8.61354C21.819 8.87171 21.6568 9.20159 21.6415 9.82216C21.2313 9.45415 20.7927 8.97652 20.5408 8.57844C19.8491 7.48528 19.7354 6.13815 20.3849 4.96778C20.8971 4.04471 21.7774 3.43887 22.7859 3.24364Z" fill="black"/>
<path fill-rule="evenodd" clip-rule="evenodd" d="M2.87561 11.745H19.8538C20.1808 13.2304 21.3584 13.4392 21.8629 13.451C22.4783 13.4654 23.063 13.1877 23.5724 12.6374C24.3168 11.8332 24.8562 10.5159 24.73 9.4302C24.6252 8.5297 23.9362 7.93721 23.1411 7.73741C22.6931 7.62487 22.2313 7.73671 21.8648 7.9737C21.7207 8.06682 21.608 8.17935 21.5115 8.3216C21.66 7.80011 21.7981 7.53726 22.0977 7.32377C23.2262 6.51954 24.9067 8.10636 26.0364 7.62557C25.0142 7.47806 23.5238 6.31881 22.5191 6.41192C21.7232 6.48574 21.3186 7.11262 21.3112 8.49578C21.1463 8.27621 20.9885 8.01359 20.8911 7.79531C20.07 5.95419 21.3329 3.93046 23.3964 3.85969C23.288 2.80852 24.6539 2.50402 25.6245 2.57011C27.0052 2.66416 27.9743 2.87671 28.6592 3.23069C30.0812 3.96567 29.8778 4.57606 30.7743 4.77212C31.2354 4.87284 31.9305 4.60344 32.645 4.04486C32.5267 4.50131 31.6466 5.59389 31.0151 5.65028C30.786 5.67075 30.574 5.65729 30.3483 5.60547C29.6466 5.44439 28.7954 4.99625 27.8035 4.68895C26.8116 4.38164 25.5516 4.28303 24.4421 4.52798C24.3257 4.38878 23.821 4.04358 23.5288 4.12055C23.752 4.32549 23.9144 4.53103 24.1439 4.9463C24.502 5.59424 24.6198 6.34992 25.2652 6.52247C25.0693 6.31273 25.0052 6.1837 24.9521 5.98764C24.899 5.79158 24.8761 5.49891 24.8309 5.20552C25.0603 5.16271 25.4338 5.07462 25.6783 5.15604C25.85 5.45223 26.0048 6.03221 26.1215 6.33413C26.2017 6.54118 26.2758 6.58809 26.4637 6.42888C26.6887 6.23833 26.9157 5.77708 27.1383 5.09708C28.6071 5.16236 29.7211 6.50211 31.3952 5.94693C32.3289 7.14877 32.3773 9.65632 33.1433 11.3689C33.6899 12.5912 34.3979 13.3147 35.3602 13.4373C36.1539 13.5385 37.3107 13.178 37.6217 11.745H54.6165C54.4286 14.57 53.3567 16.3738 51.84 16.7953L54.3531 16.7929C54.0147 19.6856 52.7677 21.482 51.2566 22.6807L53.6865 22.6663C53.3666 26.2821 52.3691 29.0041 50.6162 29.8453L52.5491 29.862C52.2378 33.3376 50.914 36.4026 49.1047 38.2758L50.5813 38.2771C47.121 49.1114 40.6098 63.3279 28.7461 67.4372C16.8833 63.3319 10.3699 49.1074 6.91075 38.2771L8.38749 38.2758C6.57806 36.4026 5.25426 33.3376 4.94298 29.862L6.87589 29.8453C5.123 29.0041 4.12561 26.2821 3.80566 22.6663L6.23555 22.6807C4.72434 21.482 3.47742 19.6856 3.13898 16.7929L5.65206 16.7953C4.13543 16.3738 3.06355 14.57 2.87561 11.745Z" fill="#FEE301"/>
<path fill-rule="evenodd" clip-rule="evenodd" d="M41.1866 41.8823C40.7168 42.8626 40.1347 43.779 39.4571 44.6147H17.9712C17.2938 43.779 16.7117 42.8626 16.2418 41.8823H41.1866Z" fill="#2A8347"/>
<path fill-rule="evenodd" clip-rule="evenodd" d="M39.5484 44.5005C38.7571 45.498 37.8309 46.3836 36.7977 47.1299L20.5904 47.1007C19.5734 46.3604 18.6611 45.485 17.8801 44.5005H39.5484Z" fill="#024797"/>
<path fill-rule="evenodd" clip-rule="evenodd" d="M36.972 47.002C34.6678 48.7215 31.8098 49.7399 28.7142 49.7399C25.6186 49.7399 22.7605 48.7215 20.4564 47.002H36.972Z" fill="#D82721"/>
<path fill-rule="evenodd" clip-rule="evenodd" d="M45.4424 38.0816C45.5433 37.6847 45.32 37.2295 45.0855 37.033C45.4368 36.6223 45.495 36.2006 45.4296 35.8623C45.1689 36.4026 44.6772 36.7111 44.1246 36.9103C43.4841 37.1411 43.0802 37.5951 43.1582 38.1988C43.2088 38.5913 43.5647 38.8835 43.9057 39.1855C43.7101 39.383 43.6173 39.6335 43.8219 39.9266C43.9058 39.596 44.0089 39.4821 44.1327 39.3951C44.3725 39.6309 44.5623 39.8866 44.5638 40.2097C44.5666 40.7712 44.0954 41.0454 43.783 41.0199C43.3547 40.9849 43.0216 40.6587 43.0216 39.8583C42.7131 40.3925 42.7987 40.9292 43.0438 41.2259C42.651 41.3943 42.418 41.627 42.3499 41.9157C42.0447 42.0681 41.8343 42.3279 41.7628 42.6885C41.6836 43.0865 41.9319 43.4872 42.1532 43.8928C41.8958 44.0162 41.718 44.225 41.82 44.5758C42.0098 44.2827 42.1459 44.2112 42.2952 44.1689C42.4304 44.4573 42.5118 44.7483 42.4142 45.0428C42.2377 45.5757 41.7426 45.6853 41.4059 45.5615C41.0026 45.4132 40.7116 44.9762 40.9671 44.2176C40.5042 44.6255 40.4629 45.2103 40.6005 45.5695C40.1602 45.605 39.8598 45.7216 39.7074 45.9806C39.3515 46.0401 39.0457 46.2334 38.8633 46.5503C38.665 46.8947 38.763 47.3278 38.8416 47.7594C38.575 47.781 38.3512 47.9077 38.3081 48.2518C38.5887 48.0646 38.7413 48.0473 38.89 48.0646C38.9281 48.3787 38.9153 48.6803 38.7246 48.9334C38.3865 49.3817 37.8456 49.3146 37.6125 49.105C37.2929 48.8178 37.2254 48.3564 37.7103 47.7195C37.0436 47.8992 36.8257 48.4757 36.841 48.8601C36.3991 48.7494 35.9593 48.8067 35.7122 49.0278C35.4113 48.9977 35.1227 49.0634 34.9003 49.2513C34.6119 49.4949 34.5446 49.9244 34.4695 50.3531C34.2147 50.2786 33.9656 50.3173 33.8111 50.6197C34.1307 50.5492 34.2803 50.5859 34.4119 50.654C34.3377 50.9928 34.2226 51.3021 33.9444 51.4819C33.4795 51.7824 32.9894 51.5285 32.8366 51.2501C32.6272 50.8687 32.7321 50.4128 33.397 49.9876C32.7718 49.9806 32.3345 50.3383 32.2247 50.7036C31.8364 50.4399 31.473 50.4088 31.1781 50.516C30.9102 50.415 30.6174 50.425 30.3198 50.5491C29.9351 50.7094 29.5807 51.1872 29.3663 51.6155L29.0401 51.6183L28.751 50.7456L28.4713 51.6183L28.1451 51.6155C27.9306 51.1872 27.5763 50.7094 27.1916 50.5491C26.894 50.425 26.6012 50.415 26.3334 50.516C26.0385 50.4088 25.6749 50.4399 25.2868 50.7036C25.1768 50.3383 24.7396 49.9806 24.1143 49.9876C24.7792 50.4128 24.8842 50.8687 24.6748 51.2501C24.522 51.5285 24.0319 51.7824 23.567 51.4819C23.2888 51.3021 23.1737 50.9928 23.0994 50.654C23.231 50.5859 23.3806 50.5492 23.7002 50.6197C23.5458 50.3173 23.2966 50.2786 23.0419 50.3531C22.9668 49.9244 22.8996 49.4949 22.611 49.2513C22.3887 49.0634 22.1001 48.9977 21.7992 49.0278C21.5521 48.8067 21.1123 48.7494 20.6704 48.8601C20.6857 48.4757 20.4678 47.8992 19.8011 47.7195C20.286 48.3564 20.2185 48.8178 19.8989 49.105C19.6657 49.3146 19.1248 49.3817 18.7869 48.9334C18.5961 48.6803 18.5832 48.3787 18.6214 48.0646C18.77 48.0473 18.9227 48.0646 19.2032 48.2518C19.1602 47.9077 18.9364 47.781 18.6698 47.7594C18.7485 47.3278 18.8464 46.8947 18.648 46.5503C18.4657 46.2334 18.1599 46.0401 17.8039 45.9806C17.6516 45.7216 17.3512 45.605 16.9109 45.5695C17.0485 45.2103 17.0072 44.6255 16.5444 44.2176C16.7998 44.9762 16.5087 45.4132 16.1055 45.5615C15.7687 45.6853 15.2737 45.5757 15.0972 45.0428C14.9996 44.7483 15.0811 44.4573 15.2161 44.1689C15.3655 44.2112 15.5015 44.2827 15.6914 44.5758C15.7934 44.225 15.6156 44.0162 15.3581 43.8928C15.5795 43.4872 15.8278 43.0865 15.7486 42.6885C15.677 42.3279 15.4667 42.0681 15.1616 41.9157C15.0934 41.627 14.8604 41.3943 14.4677 41.2259C14.7128 40.9292 14.7984 40.3925 14.4899 39.8583C14.4899 40.6587 14.1566 40.9849 13.7285 41.0199C13.4159 41.0454 12.9447 40.7712 12.9476 40.2097C12.9491 39.8866 13.1388 39.6309 13.3786 39.3951C13.5025 39.4821 13.6056 39.596 13.6894 39.9266C13.8941 39.6335 13.8013 39.383 13.6057 39.1855C13.9467 38.8835 14.3025 38.5913 14.3532 38.1988C14.4312 37.5951 14.0273 37.1411 13.3868 36.9103C12.8342 36.7111 12.3424 36.4026 12.0818 35.8623C12.0164 36.2006 12.0745 36.6223 12.4258 37.033C12.1914 37.2295 11.9681 37.6847 12.0689 38.0816C12.3161 37.6558 12.6949 37.4518 13.0552 37.4464C13.6198 37.4379 13.8662 37.7096 13.9042 38.0231C13.9497 38.3988 13.6734 38.6886 13.3535 38.9884C13.1947 38.8916 12.9602 38.7651 12.8889 38.4233C12.6923 38.8326 12.9281 39.078 13.1111 39.2154C12.7699 39.5421 12.4567 39.9064 12.4952 40.4197C12.5175 40.7176 12.6503 40.9723 12.8379 41.1618C12.9415 41.6138 13.0769 41.9375 13.5305 42.2084C13.371 42.4695 13.2558 42.9623 13.4781 43.3064C13.5764 42.8239 14.0266 42.5097 14.3663 42.3896C14.8986 42.2013 15.1311 42.3803 15.267 42.6652C15.4349 43.0169 15.2581 43.391 15.0511 43.7902C14.8708 43.7503 14.6213 43.698 14.4511 43.4087C14.3974 43.8492 14.6847 44.009 14.9007 44.0826C14.6985 44.4912 14.5408 44.9249 14.7355 45.3861C14.8616 45.6846 15.1069 45.8937 15.3829 46.009C15.5463 46.3076 15.8786 46.653 16.3791 46.761C16.3117 47.0594 16.3512 47.5372 16.6718 47.7919C16.6105 47.3034 16.9015 46.8735 17.1987 46.6695C17.5646 46.4183 17.9644 46.4561 18.1843 46.6825C18.4524 46.9582 18.4101 47.3512 18.3437 47.7767C18.16 47.81 17.8933 47.8847 17.602 47.6716C17.729 48.104 18.0644 48.1312 18.2923 48.1114C18.2322 48.5505 18.2223 49.0003 18.5541 49.3745C18.7389 49.5828 19.0081 49.7068 19.2885 49.7564C19.6511 50.1627 20.071 50.3138 20.5891 50.2369C20.6218 50.5399 20.8754 50.9711 21.2613 51.0964C21.0452 50.6607 21.0867 50.2311 21.2829 49.9228C21.5902 49.4395 21.9336 49.4043 22.2151 49.5386C22.5483 49.6976 22.6498 50.0729 22.7346 50.4908C22.5734 50.5891 22.3479 50.7575 22.0023 50.6652C22.2683 51.0241 22.594 50.924 22.801 50.8214C22.898 51.2797 23.0396 51.7357 23.4895 51.9769C23.769 52.1268 24.0831 52.1416 24.3655 52.0658C24.6823 52.2024 25.171 52.3118 25.6176 52.101C25.7455 52.379 26.1257 52.6559 26.5351 52.6631C26.1894 52.3125 26.0339 51.8542 26.1237 51.5053C26.2643 50.9584 26.6301 50.815 26.9427 50.8579C27.5817 50.9454 27.9794 51.941 28.3623 52.5273L28.641 51.7892L28.8909 51.7901L29.1491 52.5273C29.5319 51.941 29.9297 50.9454 30.5686 50.8579C30.8813 50.815 31.2471 50.9584 31.3877 51.5053C31.4774 51.8542 31.322 52.3125 30.9763 52.6631C31.3857 52.6559 31.7659 52.379 31.8937 52.101C32.3404 52.3118 32.8291 52.2024 33.1459 52.0658C33.4283 52.1416 33.7424 52.1268 34.0219 51.9769C34.4717 51.7357 34.6134 51.2797 34.7104 50.8214C34.9174 50.924 35.2432 51.0241 35.5091 50.6652C35.1634 50.7575 34.938 50.5891 34.7768 50.4908C34.8616 50.0729 34.963 49.6976 35.2963 49.5386C35.5778 49.4043 35.9212 49.4395 36.2285 49.9228C36.4247 50.2311 36.4662 50.6607 36.25 51.0964C36.6359 50.9711 36.8895 50.5399 36.9224 50.2369C37.4404 50.3138 37.8604 50.1627 38.2229 49.7564C38.5033 49.7068 38.7724 49.5828 38.9573 49.3745C39.2891 49.0003 39.2793 48.5505 39.2191 48.1114C39.4469 48.1312 39.7823 48.104 39.9095 47.6716C39.6182 47.8847 39.3514 47.81 39.1678 47.7767C39.1014 47.3512 39.0589 46.9582 39.327 46.6825C39.5471 46.4561 39.9468 46.4183 40.3128 46.6695C40.6098 46.8735 40.9009 47.3034 40.8396 47.7919C41.1603 47.5372 41.1997 47.0594 41.1322 46.761C41.6328 46.653 41.965 46.3076 42.1285 46.009C42.4045 45.8937 42.6498 45.6846 42.7759 45.3861C42.9707 44.9249 42.8129 44.4912 42.6106 44.0826C42.8267 44.009 43.1141 43.8492 43.0603 43.4087C42.8901 43.698 42.6406 43.7503 42.4603 43.7902C42.2533 43.391 42.0765 43.0169 42.2444 42.6652C42.3803 42.3803 42.6127 42.2013 43.1451 42.3896C43.4848 42.5097 43.9349 42.8239 44.0333 43.3064C44.2556 42.9623 44.1403 42.4695 43.9809 42.2084C44.4345 41.9375 44.5699 41.6138 44.6734 41.1618C44.8611 40.9723 44.9938 40.7176 45.0162 40.4197C45.0546 39.9064 44.7415 39.5421 44.4003 39.2154C44.5832 39.078 44.8191 38.8326 44.6224 38.4233C44.5512 38.7651 44.3166 38.8916 44.1579 38.9884C43.838 38.6886 43.5618 38.3988 43.6073 38.0231C43.6452 37.7096 43.8915 37.4379 44.4562 37.4464C44.8165 37.4518 45.1953 37.6558 45.4424 38.0816ZM25.9659 50.7389C25.5825 50.9588 25.2911 51.2623 25.0603 51.5971C25.0034 51.6798 24.9317 51.7556 24.8489 51.8223C25.1862 51.6378 25.4721 51.3598 25.6939 51.0441C25.778 50.9246 25.869 50.8228 25.9659 50.7389ZM21.4046 49.1192C20.9794 49.181 20.6213 49.3455 20.2952 49.582C20.171 49.6721 20.0062 49.7331 19.8244 49.7622C20.2047 49.7576 20.5461 49.6607 20.8659 49.4154C21.0324 49.2879 21.2163 49.1871 21.4046 49.1192ZM17.4154 45.9676C16.9928 45.8954 16.6018 45.9487 16.2163 46.0686C16.0701 46.1139 15.9035 46.1254 15.7347 46.1035C16.1647 46.2169 16.6185 46.1778 17.0499 46.0421C17.1726 46.0034 17.2953 45.9787 17.4154 45.9676ZM14.7549 41.785C14.3926 41.6009 14.0209 41.5324 13.6347 41.5234C13.4655 41.5194 13.291 41.4699 13.1309 41.3824C13.5196 41.643 13.9903 41.7464 14.4508 41.7561C14.5568 41.7584 14.6585 41.768 14.7549 41.785ZM31.5455 50.7389C31.9288 50.9588 32.2202 51.2623 32.4511 51.5971C32.5081 51.6798 32.5798 51.7556 32.6624 51.8223C32.3252 51.6378 32.0394 51.3598 31.8175 51.0441C31.7334 50.9246 31.6424 50.8228 31.5455 50.7389ZM36.1067 49.1192C36.5321 49.181 36.89 49.3455 37.2162 49.582C37.3404 49.6721 37.5052 49.7331 37.6871 49.7622C37.3068 49.7576 36.9652 49.6607 36.6454 49.4154C36.479 49.2879 36.2951 49.1871 36.1067 49.1192ZM40.0959 45.9676C40.5186 45.8954 40.9095 45.9487 41.2951 46.0686C41.4413 46.1139 41.6079 46.1254 41.7767 46.1035C41.3467 46.2169 40.8929 46.1778 40.4615 46.0421C40.3388 46.0034 40.2161 45.9787 40.0959 45.9676ZM42.7566 41.785C43.1188 41.6009 43.4904 41.5324 43.8768 41.5234C44.0458 41.5194 44.2204 41.4699 44.3805 41.3824C43.9918 41.643 43.5212 41.7464 43.0605 41.7561C42.9545 41.7584 42.853 41.768 42.7566 41.785Z" fill="black"/>
<path fill-rule="evenodd" clip-rule="evenodd" d="M21.0524 29.4907V37.8177H19.3801V35.192H17.5584C17.619 36.1153 17.7749 37.0549 18.0961 37.8177H16.3897C15.451 35.1164 15.6785 32.8212 16.6043 31.3518C17.699 29.6144 19.0703 29.4907 21.0524 29.4907ZM19.3801 33.3764V31.4568C18.3442 31.5594 17.797 32.4093 17.618 33.3764H19.3801Z" fill="black"/>
<path fill-rule="evenodd" clip-rule="evenodd" d="M24.8368 31.7954H26.5139V37.613H24.8368V35.1365H23.1927V37.613H21.5156V31.7954H23.1927V33.6676H24.8368V31.7954Z" fill="black"/>
<path fill-rule="evenodd" clip-rule="evenodd" d="M29.9931 31.7744H31.7356V33.5621C32.5352 33.3094 32.8488 32.6036 33.0757 31.7744H34.894C34.7796 32.6073 34.3487 33.4604 33.6207 34.0122C34.5814 34.6348 35 35.4789 34.8853 37.6262H33.0833C33.0189 36.2724 33.1931 35.8084 32.3216 35.0145C32.2307 35.065 31.866 35.2002 31.7356 35.2335V37.6262H29.9931V35.2335C29.8627 35.2002 29.5371 35.0846 29.4462 35.034C28.6528 35.6717 28.6512 36.2919 28.6453 37.6262H26.8435C26.7287 35.4789 27.1474 34.6348 28.1079 34.0122C27.3605 33.519 26.9491 32.6073 26.8347 31.7744H28.653C28.8799 32.6036 29.1936 33.3094 29.9931 33.5621V31.7744Z" fill="black"/>
<path fill-rule="evenodd" clip-rule="evenodd" d="M35.3326 29.4565H37.039V32.2045C37.2823 31.2405 37.8759 30.1047 39.108 29.4565H40.6438V37.8177H38.9715V31.7982C37.5356 33.0637 37.039 35.6896 37.039 36.927V37.8177H35.3326V29.4565Z" fill="black"/>
<path fill-rule="evenodd" clip-rule="evenodd" d="M41.8389 29.5328L35.5471 25.234L34.5115 26.0742L28.7709 21.714L23.0302 26.0742L21.9946 25.234L15.7028 29.5328L22.4049 24.2814L23.2841 24.9849L28.7709 21.2451L34.2577 24.9849L35.1368 24.2814L41.8389 29.5328Z" fill="white"/>
<path fill-rule="evenodd" clip-rule="evenodd" d="M11.9126 32.2223C12.1112 31.3763 12.5504 30.9967 13.2304 31.0827C13.9249 31.1707 14.257 31.6479 14.2267 32.5151L14.519 32.5522L14.4187 33.3452L14.1184 33.3072C13.9371 34.154 13.4993 34.5332 12.8048 34.4454C12.1236 34.3592 11.7927 33.8826 11.8124 33.0153L11.5968 32.9881L11.6972 32.1951L11.9126 32.2223ZM13.6354 32.4404C13.6133 32.298 13.5558 32.1827 13.4635 32.0941C13.3706 32.0057 13.2532 31.9521 13.1106 31.9341C12.9747 31.9169 12.8475 31.9402 12.7293 32.0039C12.6111 32.0678 12.5222 32.1639 12.4613 32.2917L13.6354 32.4404ZM13.5429 33.2343L12.3767 33.0867C12.3972 33.2208 12.4574 33.3353 12.5571 33.4287C12.6567 33.5221 12.7765 33.5773 12.9166 33.5951C13.0472 33.6116 13.1698 33.587 13.2836 33.5212C13.3973 33.4556 13.4843 33.3598 13.5429 33.2343Z" fill="black"/>
<path fill-rule="evenodd" clip-rule="evenodd" d="M11.9883 30.2974L12.2992 29.3944L13.5356 29.4041L12.5536 28.6556L12.8449 27.8096L14.6175 29.4068C14.7603 29.5372 14.864 29.643 14.9281 29.7253C14.9916 29.8073 15.0323 29.911 15.0493 30.0345C15.066 30.1587 15.0424 30.313 14.9787 30.4977C14.945 30.5954 14.8733 30.7592 14.7629 30.988L14.2069 30.7965C14.2704 30.6608 14.3128 30.5604 14.335 30.496C14.4011 30.3038 14.3699 30.1627 14.2415 30.0716L11.9883 30.2974Z" fill="black"/>
<path fill-rule="evenodd" clip-rule="evenodd" d="M13.0886 27.3258L14.4244 25.0122L15.0329 25.3636L14.5845 26.1401L16.4394 27.2109L15.9999 27.972L14.1452 26.9012L13.6971 27.6771L13.0886 27.3258Z" fill="black"/>
<path fill-rule="evenodd" clip-rule="evenodd" d="M16.3949 24.3715L16.703 24.017C16.9854 23.6922 17.2522 23.5012 17.5041 23.4437C17.7549 23.3863 18.0016 23.4629 18.2435 23.6732C18.4419 23.8457 18.5308 24.0493 18.5106 24.2845C18.4904 24.5197 18.3635 24.7717 18.1293 25.0411L17.1386 26.1807L14.9921 24.3146L16.5631 22.5073L16.9979 22.8853L16.0025 24.0304L16.3949 24.3715ZM17.253 25.1175L17.5481 24.778C17.7288 24.5701 17.7442 24.401 17.5938 24.2703C17.4618 24.1556 17.3054 24.2021 17.1247 24.4101L16.8297 24.7494L17.253 25.1175Z" fill="black"/>
<path fill-rule="evenodd" clip-rule="evenodd" d="M18.2451 22.8715C17.9787 22.4913 17.8777 22.1207 17.9411 21.761C18.0047 21.4003 18.2257 21.0879 18.6039 20.8231C18.9916 20.5515 19.3635 20.4464 19.7194 20.5077C20.0742 20.5688 20.3838 20.787 20.6463 21.1619C20.837 21.4342 20.9474 21.6899 20.9776 21.9284C21.0079 22.1666 20.9705 22.395 20.8654 22.6131C20.7598 22.8319 20.5782 23.0309 20.3195 23.2122C20.0568 23.396 19.8101 23.5065 19.5791 23.5437C19.3483 23.5801 19.1162 23.5453 18.8819 23.4394C18.6482 23.333 18.4356 23.1439 18.2451 22.8715ZM18.9677 22.3704C19.1326 22.6058 19.2941 22.7442 19.4536 22.786C19.6127 22.8274 19.7681 22.7954 19.9185 22.6901C20.073 22.5819 20.1576 22.4475 20.172 22.2879C20.1859 22.1278 20.1024 21.9171 19.92 21.6567C19.7662 21.437 19.6096 21.3081 19.4502 21.2686C19.2911 21.2296 19.1359 21.2631 18.9839 21.3694C18.8391 21.4709 18.7582 21.6035 18.7425 21.7682C18.7263 21.9322 18.8017 22.1333 18.9677 22.3704Z" fill="black"/>
<path fill-rule="evenodd" clip-rule="evenodd" d="M24.2399 21.1233L23.4371 21.4808L22.5643 19.5206L21.9364 19.8002L22.2921 20.5994C22.4385 20.928 22.529 21.1768 22.5626 21.3468C22.5962 21.5166 22.5655 21.6659 22.4694 21.795C22.3731 21.9241 22.1824 22.0525 21.8962 22.1799C21.8084 22.219 21.7037 22.2539 21.5822 22.2856L21.3479 21.7592L21.4683 21.7057C21.5772 21.6572 21.6433 21.5989 21.6668 21.531C21.6902 21.4634 21.6736 21.3656 21.6167 21.238L20.8512 19.5186L23.083 18.5249L24.2399 21.1233Z" fill="black"/>
<path fill-rule="evenodd" clip-rule="evenodd" d="M25.3488 19.1024L25.8112 19.0209C26.2351 18.946 26.5626 18.9657 26.7945 19.0794C27.0256 19.1926 27.1691 19.4074 27.2247 19.7231C27.2704 19.982 27.2114 20.1962 27.0476 20.3663C26.884 20.5364 26.6267 20.6523 26.2752 20.7143L24.7882 20.9765L24.2943 18.1754L25.1584 18.0229L25.3488 19.1024ZM25.5462 20.2222L25.9891 20.1441C26.2604 20.0962 26.3788 19.9745 26.3441 19.7782C26.3137 19.606 26.1629 19.5438 25.8917 19.5916L25.4488 19.6698L25.5462 20.2222Z" fill="black"/>
<path fill-rule="evenodd" clip-rule="evenodd" d="M27.878 17.6724L28.7567 17.6877L28.7393 18.6828L29.7001 18.6997L29.7175 17.7044L30.6001 17.7199L30.5505 20.5637L29.6679 20.5484L29.6879 19.3983L28.7271 19.3814L28.7071 20.5315L27.8284 20.5162L27.878 17.6724Z" fill="black"/>
<path fill-rule="evenodd" clip-rule="evenodd" d="M32.3886 19.2053L32.8421 19.3268C33.2579 19.4382 33.5466 19.5943 33.7086 19.7954C33.8703 19.9958 33.9094 20.2511 33.8265 20.5607C33.7584 20.8145 33.6144 20.9838 33.3942 21.0687C33.1739 21.1537 32.8917 21.15 32.547 21.0577L31.0885 20.6669L31.8246 17.9194L32.6723 18.1466L32.3886 19.2053ZM32.0943 20.3036L32.5286 20.42C32.7948 20.4912 32.9535 20.431 33.0051 20.2384C33.0504 20.0695 32.9399 19.9495 32.6738 19.8781L32.2395 19.7617L32.0943 20.3036ZM34.5605 18.6525L35.4113 18.8805L34.6752 21.6279L33.8244 21.4L34.5605 18.6525Z" fill="black"/>
<path fill-rule="evenodd" clip-rule="evenodd" d="M38.9671 21.0069L37.4599 23.4191L36.7589 22.9811L37.5864 21.6568L35.8553 22.4164L35.1527 21.9774L36.66 19.5652L37.3626 20.0042L36.5287 21.3387L38.2712 20.5722L38.9671 21.0069ZM38.7919 20.0713C38.6823 20.1956 38.5459 20.265 38.3825 20.2816C38.2194 20.2976 38.0614 20.2582 37.9092 20.1631C37.7575 20.0683 37.6534 19.9439 37.5958 19.7884C37.5385 19.634 37.5418 19.4813 37.6059 19.3301L37.8922 19.5091C37.8523 19.6754 37.909 19.8061 38.0628 19.9022C38.2274 20.005 38.3746 20.0018 38.5055 19.8923L38.7919 20.0713Z" fill="black"/>
<path fill-rule="evenodd" clip-rule="evenodd" d="M40.5078 26.5429L39.8587 25.7962L40.1894 25.0561C40.2668 24.8808 40.3071 24.7616 40.3101 24.6993C40.313 24.6362 40.2882 24.5752 40.2357 24.5147L39.3864 25.253L38.8108 24.5908L40.9574 22.7246L41.5331 23.3869L40.709 24.1033C40.7614 24.1587 40.8209 24.1858 40.8873 24.1844C40.9535 24.1838 41.1059 24.1391 41.3464 24.0502C41.5233 23.9842 41.6627 23.9508 41.7649 23.9514C41.8673 23.951 41.9805 23.9975 42.1055 24.0898C42.23 24.1816 42.3985 24.3501 42.6106 24.594L42.1567 24.9885L42.1276 24.955C42.029 24.8416 41.9344 24.7763 41.8441 24.7592C41.7534 24.7416 41.6453 24.7575 41.5185 24.8054C41.3915 24.8542 41.2871 24.8784 41.2044 24.8791C41.1217 24.8799 41.0355 24.8575 40.9467 24.8119C40.9982 24.9347 41.0168 25.0651 41.0025 25.203C40.9876 25.3405 40.9343 25.5203 40.8418 25.741L40.5078 26.5429Z" fill="black"/>
<path fill-rule="evenodd" clip-rule="evenodd" d="M41.9343 28.953L41.4949 28.1918L43.353 27.119L43.0093 26.5236L42.2518 26.961C41.9404 27.1408 41.7022 27.257 41.5368 27.3081C41.3713 27.3593 41.2197 27.3444 41.0813 27.2621C40.9428 27.18 40.7952 27.0037 40.6385 26.7325C40.5906 26.6493 40.5447 26.5488 40.5006 26.4312L40.9995 26.1432L41.0654 26.2574C41.125 26.3606 41.19 26.4201 41.2598 26.4365C41.3296 26.4528 41.4251 26.426 41.546 26.356L43.176 25.415L44.3975 27.5307L41.9343 28.953Z" fill="black"/>
<path fill-rule="evenodd" clip-rule="evenodd" d="M44.7331 28.374L45.0195 29.2851L44.0191 30.0119L45.2537 30.0306L45.5219 30.8842L43.1473 30.6523C42.9548 30.6323 42.8087 30.6088 42.7082 30.5807C42.6083 30.5524 42.514 30.4931 42.427 30.4038C42.3398 30.314 42.2672 30.1757 42.2086 29.9894C42.1776 29.8908 42.1381 29.7165 42.0909 29.4668L42.6518 29.2906C42.6814 29.4375 42.7071 29.5432 42.7275 29.6084C42.7885 29.8022 42.8974 29.8972 43.0547 29.8942L44.7331 28.374Z" fill="black"/>
<path fill-rule="evenodd" clip-rule="evenodd" d="M44.6393 32.6666L44.6572 33.1358C44.6736 33.5659 44.6096 33.8878 44.4652 34.102C44.3216 34.3156 44.0894 34.4285 43.7691 34.4406C43.5064 34.4506 43.3021 34.363 43.156 34.1777C43.0097 33.9923 42.9299 33.7217 42.9163 33.3649L42.859 31.8561L45.7012 31.748L45.7922 34.1411L45.2165 34.1629L45.1589 32.6468L44.6393 32.6666ZM43.5031 32.7097L43.5202 33.1592C43.5306 33.4344 43.6352 33.5682 43.8344 33.5607C44.009 33.5541 44.0911 33.4131 44.0807 33.1379L44.0636 32.6884L43.5031 32.7097Z" fill="black"/>
<path fill-rule="evenodd" clip-rule="evenodd" d="M25.8746 60.7381L25.874 56.3877H26.612V60.7381H25.8746Z" fill="black"/>
<path fill-rule="evenodd" clip-rule="evenodd" d="M30.9944 60.7381L30.9937 56.3877H31.7318V60.7381H30.9944Z" fill="black"/>
<path fill-rule="evenodd" clip-rule="evenodd" d="M27.6198 59.5242V59.7464C27.6198 59.839 27.6349 59.9075 27.6644 59.953C27.6938 59.9985 27.7375 60.0213 27.7972 60.0213C27.8574 60.0213 27.902 59.9993 27.9306 59.9547C27.9593 59.9101 27.9737 59.841 27.9737 59.7464V59.0601C27.9105 59.1265 27.8415 59.1755 27.7663 59.2093C27.6917 59.2428 27.6112 59.2602 27.5258 59.2602C27.3154 59.2602 27.1558 59.1794 27.047 59.0163C26.9384 58.8536 26.884 58.6148 26.884 58.2999V57.468C26.884 57.0912 26.9595 56.8099 27.1109 56.6242C27.2623 56.4386 27.4914 56.3457 27.7972 56.3457C28.1022 56.3457 28.3312 56.4385 28.4827 56.6242C28.6341 56.8099 28.7095 57.0912 28.7095 57.468V59.6444C28.7095 60.0221 28.6341 60.3034 28.4827 60.4891C28.3312 60.6747 28.1022 60.7676 27.7972 60.7676C27.5007 60.7676 27.2745 60.6774 27.1188 60.4972C26.9624 60.3163 26.884 60.0558 26.884 59.7144V59.5242H27.6198ZM27.6198 57.3669V58.279C27.6198 58.3699 27.635 58.4375 27.6644 58.4829C27.6938 58.5284 27.7375 58.5512 27.7972 58.5512C27.8574 58.5512 27.902 58.5292 27.9306 58.4848C27.9593 58.4402 27.9737 58.3719 27.9737 58.279V57.3669C27.9737 57.2742 27.9593 57.2068 27.9306 57.1631C27.902 57.1194 27.8574 57.0975 27.7972 57.0975C27.7361 57.0975 27.6915 57.1186 27.6629 57.1613C27.6343 57.204 27.6198 57.2723 27.6198 57.3669Z" fill="black"/>
<path fill-rule="evenodd" clip-rule="evenodd" d="M29.6336 59.5242V59.7464C29.6336 59.839 29.6487 59.9075 29.6781 59.953C29.7076 59.9985 29.7513 60.0213 29.811 60.0213C29.8712 60.0213 29.9157 59.9993 29.9444 59.9547C29.9731 59.9101 29.9875 59.841 29.9875 59.7464V59.0601C29.9243 59.1265 29.8553 59.1755 29.7801 59.2093C29.7054 59.2428 29.625 59.2602 29.5396 59.2602C29.3292 59.2602 29.1696 59.1794 29.0608 59.0163C28.9522 58.8536 28.8978 58.6148 28.8978 58.2999V57.468C28.8978 57.0912 28.9733 56.8099 29.1246 56.6242C29.276 56.4386 29.5052 56.3457 29.811 56.3457C30.1159 56.3457 30.345 56.4385 30.4965 56.6242C30.6478 56.8099 30.7233 57.0912 30.7233 57.468V59.6444C30.7233 60.0221 30.6478 60.3034 30.4965 60.4891C30.345 60.6747 30.1159 60.7676 29.811 60.7676C29.5144 60.7676 29.2882 60.6774 29.1326 60.4972C28.9761 60.3163 28.8978 60.0558 28.8978 59.7144V59.5242H29.6336ZM29.6336 57.3669V58.279C29.6336 58.3699 29.6487 58.4375 29.6781 58.4829C29.7074 58.5284 29.7513 58.5512 29.811 58.5512C29.8712 58.5512 29.9158 58.5292 29.9444 58.4848C29.9731 58.4402 29.9875 58.3719 29.9875 58.279V57.3669C29.9875 57.2742 29.9731 57.2068 29.9444 57.1631C29.9157 57.1194 29.8712 57.0975 29.811 57.0975C29.7499 57.0975 29.7053 57.1186 29.6767 57.1613C29.648 57.204 29.6336 57.2723 29.6336 57.3669Z" fill="black"/>
<path fill-rule="evenodd" clip-rule="evenodd" d="M19.468 38.5317V40.7169H18.5458V39.2417L18.177 40.7169H17.5227L17.1342 39.2754V40.7169H16.212V38.5317H17.5782C17.6185 38.6631 17.6603 38.8179 17.7057 38.9961L17.8511 39.5523L18.0915 38.5317H19.468Z" fill="black"/>
<path fill-rule="evenodd" clip-rule="evenodd" d="M21.7136 38.5317L22.3175 40.7169H21.237L21.1849 40.324H20.8059L20.7435 40.7169H19.651L20.1873 38.5317H21.7136ZM21.155 39.937C21.1011 39.6896 21.048 39.3837 20.9941 39.0201C20.8872 39.438 20.8204 39.7434 20.7939 39.937H21.155Z" fill="black"/>
<path fill-rule="evenodd" clip-rule="evenodd" d="M24.636 38.5317L24.2672 39.4979L24.8242 40.7169H23.8463C23.7299 40.499 23.623 40.2341 23.5256 39.9218C23.499 40.0595 23.4622 40.2061 23.4152 40.3608L23.315 40.7169H22.2876L22.6684 39.4979L22.2876 38.5317H23.3074C23.3263 38.5921 23.363 38.6921 23.4177 38.8326C23.4614 38.94 23.4973 39.0377 23.5256 39.127L23.7515 38.5317H24.636Z" fill="black"/>
<path fill-rule="evenodd" clip-rule="evenodd" d="M26.7971 38.5317L27.401 40.7169H26.3205L26.2683 40.324H25.8894L25.827 40.7169H24.7345L25.2708 38.5317H26.7971ZM26.2385 39.937C26.1846 39.6896 26.1315 39.3837 26.0776 39.0201C25.9707 39.438 25.9039 39.7434 25.8774 39.937H26.2385Z" fill="black"/>
<path fill-rule="evenodd" clip-rule="evenodd" d="M29.023 39.8794C28.9374 39.9277 28.8262 39.9669 28.6894 39.9959C28.5525 40.0254 28.4139 40.0397 28.2736 40.0397C28.0212 40.0397 27.8373 40.0019 27.7235 39.9263C27.6088 39.8508 27.5515 39.7338 27.5515 39.5753V38.5308H28.6089V39.5149C28.6089 39.6002 28.6226 39.6591 28.6509 39.691C28.6781 39.7227 28.7235 39.7388 28.7869 39.7388C28.9443 39.7388 29.023 39.666 29.023 39.5199V38.5308H30.0803V40.7173H29.023V39.8794Z" fill="black"/>
<path fill-rule="evenodd" clip-rule="evenodd" d="M30.5015 38.5308H31.5588L31.564 39.4541C31.7633 39.4514 31.8659 39.3918 31.8727 39.2758L31.8925 38.8492C31.8992 38.6921 31.9557 38.5856 32.0627 38.5308H33.0379C32.9429 38.5838 32.8959 38.6935 32.8977 38.8602L32.9027 39.2352C32.9062 39.4619 32.6684 39.5914 32.191 39.6228C32.6684 39.6541 32.9062 39.7854 32.9027 40.0157L32.8977 40.3636C32.8959 40.5295 32.9429 40.6474 33.0379 40.7173H32.0627C31.949 40.6626 31.8925 40.5561 31.8925 40.399V39.9724C31.8925 39.9185 31.8616 39.8747 31.8009 39.842C31.7402 39.8093 31.6614 39.7923 31.564 39.7913L31.5588 40.7173H30.5015V38.5308Z" fill="black"/>
<path fill-rule="evenodd" clip-rule="evenodd" d="M35.0757 38.5317L35.6797 40.7169H34.5992L34.547 40.324H34.168L34.1055 40.7169H33.0132L33.5495 38.5317H35.0757ZM34.5171 39.937C34.4631 39.6896 34.4101 39.3837 34.3562 39.0201C34.2493 39.438 34.1826 39.7434 34.1561 39.937H34.5171Z" fill="black"/>
<path fill-rule="evenodd" clip-rule="evenodd" d="M38.437 40.7173H37.3787V38.968H37.0707V40.206C37.0707 40.3686 37.0322 40.4856 36.9543 40.5566C36.8765 40.628 36.7585 40.6722 36.5993 40.6902C36.441 40.7082 36.1877 40.7173 35.8404 40.7173H35.6744V40.341C35.8037 40.341 35.8918 40.3322 35.9406 40.3152C35.9884 40.2982 36.0133 40.2396 36.0133 40.1397V38.5308H38.437V40.7173Z" fill="black"/>
<path fill-rule="evenodd" clip-rule="evenodd" d="M40.6801 38.5317L41.284 40.7169H40.2035L40.1514 40.324H39.7724L39.71 40.7169H38.6176L39.1539 38.5317H40.6801ZM40.1214 39.937C40.0675 39.6896 40.0145 39.3837 39.9606 39.0201C39.8537 39.438 39.787 39.7434 39.7604 39.937H40.1214Z" fill="black"/>
<path fill-rule="evenodd" clip-rule="evenodd" d="M28.76 23.7124C30.7382 23.7124 32.3424 25.3168 32.3424 27.295C32.3424 29.2732 30.7382 30.8775 28.76 30.8775C26.7817 30.8775 25.1774 29.2732 25.1774 27.295C25.1774 25.3168 26.7817 23.7124 28.76 23.7124ZM31.1949 26.5756L30.1928 26.9012L29.6877 28.4558L30.3071 29.3083C30.5571 29.264 30.8641 29.1599 31.2487 28.9743C31.5595 28.5147 31.7463 27.9645 31.7612 27.3716C31.6187 27.0787 31.3934 26.7812 31.1949 26.5756ZM30.1121 26.7838L31.1529 26.4457C31.1878 26.1945 31.1838 25.8705 31.1263 25.4477C30.7776 25.0016 30.3056 24.6567 29.7615 24.4641C29.4387 24.509 29.0855 24.6315 28.8283 24.757V25.851L30.1121 26.7838ZM30.1965 29.3883L29.592 28.5563H27.928L27.3232 29.3886C27.4428 29.6127 27.6368 29.8727 27.9325 30.1815C28.1953 30.2568 28.4729 30.2972 28.76 30.2972C29.0565 30.2972 29.343 30.254 29.6136 30.1738C29.8484 29.9477 30.0622 29.6411 30.1965 29.3883ZM27.213 29.3081L27.8323 28.4558L27.3272 26.9012L26.3248 26.5755C26.1489 26.7583 25.9617 27.0228 25.7596 27.3986C25.7798 27.991 25.9718 28.5399 26.287 28.997C26.5744 29.1503 26.9316 29.2585 27.213 29.3081ZM26.3674 26.4457L27.4078 26.7838L28.6918 25.851V24.7567C28.4632 24.6457 28.1533 24.5493 27.7324 24.4732C27.1907 24.6706 26.7218 25.0195 26.377 25.4687C26.3201 25.7895 26.3275 26.1628 26.3674 26.4457ZM31.8926 27.4914L32.2056 27.2641C32.2057 27.2744 32.2059 27.2847 32.2059 27.295C32.2059 28.0631 31.9544 28.7723 31.5294 29.3454L31.4099 28.9775C31.6863 28.543 31.859 28.0359 31.8926 27.4914ZM31.5659 25.2948L31.1785 25.2947C30.8439 24.8906 30.4103 24.5717 29.9147 24.3754L29.795 24.0073C30.5165 24.2344 31.1358 24.6924 31.5659 25.2948ZM29.5418 30.3355L29.8551 30.563C29.511 30.6784 29.1427 30.7409 28.76 30.7409C28.3771 30.7409 28.0088 30.6784 27.6648 30.563L27.9783 30.3354C28.2282 30.3995 28.4901 30.4338 28.76 30.4338C29.0298 30.4338 29.2919 30.3996 29.5418 30.3355ZM26.1102 28.9774L25.9905 29.3455C25.5655 28.7724 25.3139 28.0631 25.3139 27.295C25.3139 27.2846 25.3141 27.2743 25.3142 27.2639L25.6274 27.4915C25.6611 28.036 25.8337 28.5429 26.1102 28.9774ZM26.3413 25.2947H25.9539C26.3841 24.6923 27.0034 24.2342 27.725 24.0073L27.6054 24.3754C27.1096 24.5717 26.6759 24.8906 26.3413 25.2947Z" fill="black"/>
</svg>
