<svg width="59" height="70" viewBox="0 0 59 70" fill="none" xmlns="http://www.w3.org/2000/svg">
<g clip-path="url(#clip0_141_8201)">
<path fill-rule="evenodd" clip-rule="evenodd" d="M58.8898 28.98C58.8898 12.985 45.9398 0 29.9098 0C13.9148 0 0.92981 12.985 0.92981 28.98C0.92981 36.995 4.18481 44.24 9.43481 49.455C9.85481 49.875 10.4498 50.155 11.0798 50.155C12.3748 50.155 13.4248 49.105 13.4248 47.81C13.4248 47.145 13.1798 46.55 12.7248 46.095C8.34981 41.72 5.65481 35.63 5.65481 28.98C5.65481 15.61 16.5048 4.69 29.8748 4.69C43.2448 4.69 54.1648 15.575 54.1648 28.98C54.1648 35.7 51.4698 41.755 47.0598 46.165L26.5848 66.64L29.9098 70L50.4548 49.455C55.6698 44.24 58.8898 36.995 58.8898 28.98Z" fill="#D9232E"/>
<path fill-rule="evenodd" clip-rule="evenodd" d="M43.3498 34.5801L36.1048 16.3101L30.0148 26.9851L23.8898 16.3101L16.6798 34.5801H14.5798V37.3101H25.4648V34.5801H23.8548L25.4298 30.0301L30.0148 37.5201L34.5998 30.0301L36.1748 34.5801H34.5298V37.3101H45.4848V34.5801H43.3498Z" fill="#D9232E"/>
</g>
<defs>
<clipPath id="clip0_141_8201">
<rect width="57.96" height="70" fill="white" transform="translate(0.92981)"/>
</clipPath>
</defs>
</svg>
