<svg width="37" height="47" viewBox="0 0 37 47" fill="none" xmlns="http://www.w3.org/2000/svg">
<path d="M37 18.5C37 28.7173 28.7173 37 18.5 37C8.28273 37 0 28.7173 0 18.5C0 8.28273 8.28273 0 18.5 0C28.7173 0 37 8.28273 37 18.5Z" fill="#FF3333"/>
<path d="M20.5 44.5C20.5 43.3954 19.6046 42.5 18.5 42.5C17.3954 42.5 16.5 43.3954 16.5 44.5C16.5 45.6046 17.3954 46.5 18.5 46.5C19.6046 46.5 20.5 45.6046 20.5 44.5Z" fill="#FF3333" stroke="white"/>
<path d="M13 36H24C24 36 21.1801 37.4444 20 39C19.2083 40.0436 18.5 42 18.5 42C18.5 42 17.7917 40.0436 17 39C15.8199 37.4444 13 36 13 36Z" fill="#FF3333"/>
<g clip-path="url(#clip0)">
<path d="M26.8547 12.3502C26.7359 12.2077 26.5597 12.1252 26.3747 12.1252H11.6849L11.1412 10.089C11.0687 9.81524 10.8212 9.62524 10.5374 9.62524H7.62499C7.28 9.62524 7 9.90524 7 10.2502C7 10.5952 7.28 10.8752 7.62499 10.8752H10.0575L10.5949 12.8889C10.5962 12.8964 10.5937 12.9039 10.5962 12.9127L12.5962 20.3876C12.5962 20.3888 12.5974 20.3888 12.5974 20.3901L13.2712 22.9113C13.3437 23.185 13.5911 23.375 13.8749 23.375H23.8747C24.2197 23.375 24.4997 23.095 24.4997 22.75C24.4997 22.405 24.2197 22.125 23.8747 22.125H14.3549L14.0036 20.8101L25.156 20.2488C25.4447 20.2338 25.6872 20.0226 25.7397 19.7376L26.9897 12.8627C27.0234 12.6789 26.9734 12.4914 26.8547 12.3502ZM15.7499 17.7501C15.7499 18.0951 15.4699 18.3751 15.1249 18.3751C14.7799 18.3751 14.4999 18.0951 14.4999 17.7501V15.2502C14.4999 14.9052 14.7799 14.6252 15.1249 14.6252C15.4699 14.6252 15.7499 14.9052 15.7499 15.2502V17.7501ZM19.4998 17.7501C19.4998 18.0951 19.2198 18.3751 18.8748 18.3751C18.5298 18.3751 18.2498 18.0951 18.2498 17.7501V15.2502C18.2498 14.9052 18.5298 14.6252 18.8748 14.6252C19.2198 14.6252 19.4998 14.9052 19.4998 15.2502V17.7501ZM23.2497 17.7501C23.2497 18.0951 22.9698 18.3751 22.6248 18.3751C22.2798 18.3751 21.9998 18.0951 21.9998 17.7501V15.2502C21.9998 14.9052 22.2798 14.6252 22.6248 14.6252C22.9698 14.6252 23.2497 14.9052 23.2497 15.2502V17.7501Z" fill="white"/>
<path d="M15.1249 28.3749C16.1604 28.3749 16.9999 27.5355 16.9999 26.5C16.9999 25.4645 16.1604 24.625 15.1249 24.625C14.0894 24.625 13.2499 25.4645 13.2499 26.5C13.2499 27.5355 14.0894 28.3749 15.1249 28.3749Z" fill="white"/>
<path d="M22.6248 28.3749C23.6603 28.3749 24.4997 27.5355 24.4997 26.5C24.4997 25.4645 23.6603 24.625 22.6248 24.625C21.5892 24.625 20.7498 25.4645 20.7498 26.5C20.7498 27.5355 21.5892 28.3749 22.6248 28.3749Z" fill="white"/>
</g>
<defs>
<clipPath id="clip0">
<rect x="7" y="9" width="20" height="20" fill="white"/>
</clipPath>
</defs>
</svg>
