<svg id="Слой_1" data-name="Слой 1" xmlns="http://www.w3.org/2000/svg" xmlns:xlink="http://www.w3.org/1999/xlink" viewBox="0 0 429.89 75.45"><defs><style>.cls-1{fill:url(#Безымянный_градиент_19);}.cls-2{fill:url(#Безымянный_градиент_19-2);}.cls-3{fill:url(#Безымянный_градиент_19-3);}.cls-4{fill:url(#Безымянный_градиент_19-4);}.cls-5{fill:url(#Безымянный_градиент_19-5);}.cls-6{fill:url(#Безымянный_градиент_19-6);}.cls-7{fill:url(#Безымянный_градиент_19-7);}.cls-8{fill:url(#Безымянный_градиент_19-9);}.cls-9{fill:url(#Безымянный_градиент_19-10);}.cls-10{fill:url(#Безымянный_градиент_19-12);}.cls-11{fill:url(#Безымянный_градиент_32);}.cls-12{fill:url(#Безымянный_градиент_32-2);}.cls-13{fill:url(#Безымянный_градиент_32-3);}.cls-14{fill:url(#Безымянный_градиент_32-4);}.cls-15{fill:url(#Безымянный_градиент_32-5);}.cls-16{fill:url(#Безымянный_градиент_32-6);}.cls-17{fill:url(#Безымянный_градиент_32-7);}.cls-18{fill:url(#Безымянный_градиент_32-8);}.cls-19{fill:url(#Безымянный_градиент_32-9);}.cls-20{fill:url(#Безымянный_градиент_32-10);}</style><linearGradient id="Безымянный_градиент_19" x1="118.15" y1="5.82" x2="118.15" y2="43.73" gradientUnits="userSpaceOnUse"><stop offset="0" stop-color="#a7a9ac"/><stop offset="1" stop-color="#77787b"/></linearGradient><linearGradient id="Безымянный_градиент_19-2" x1="161.73" y1="5.82" x2="161.73" y2="43.73" xlink:href="#Безымянный_градиент_19"/><linearGradient id="Безымянный_градиент_19-3" x1="243.87" y1="5.82" x2="243.87" y2="43.73" xlink:href="#Безымянный_градиент_19"/><linearGradient id="Безымянный_градиент_19-4" x1="288.78" y1="5.82" x2="288.78" y2="43.73" xlink:href="#Безымянный_градиент_19"/><linearGradient id="Безымянный_градиент_19-5" x1="370.96" y1="5.82" x2="370.96" y2="43.73" xlink:href="#Безымянный_градиент_19"/><linearGradient id="Безымянный_градиент_19-6" x1="407.67" y1="5.82" x2="407.67" y2="43.73" xlink:href="#Безымянный_градиент_19"/><linearGradient id="Безымянный_градиент_19-7" x1="198.8" y1="5.82" x2="198.8" y2="43.73" xlink:href="#Безымянный_градиент_19"/><linearGradient id="Безымянный_градиент_19-9" x1="198.8" y1="6.5" x2="198.8" y2="44.41" xlink:href="#Безымянный_градиент_19"/><linearGradient id="Безымянный_градиент_19-10" x1="333.58" y1="5.82" x2="333.58" y2="43.73" xlink:href="#Безымянный_градиент_19"/><linearGradient id="Безымянный_градиент_19-12" x1="333.58" y1="6.5" x2="333.58" y2="44.41" xlink:href="#Безымянный_градиент_19"/><linearGradient id="Безымянный_градиент_32" x1="16.57" y1="33.36" x2="65.5" y2="37.03" gradientUnits="userSpaceOnUse"><stop offset="0" stop-color="#0b6c3d"/><stop offset="1" stop-color="#b2d569"/></linearGradient><linearGradient id="Безымянный_градиент_32-2" x1="14.23" y1="34.88" x2="63.16" y2="38.55" xlink:href="#Безымянный_градиент_32"/><linearGradient id="Безымянный_градиент_32-3" x1="10.28" y1="16.85" x2="68.25" y2="21.2" xlink:href="#Безымянный_градиент_32"/><linearGradient id="Безымянный_градиент_32-4" x1="7.15" y1="53.77" x2="65.11" y2="58.12" xlink:href="#Безымянный_градиент_32"/><linearGradient id="Безымянный_градиент_32-5" x1="10" y1="36.17" x2="67.99" y2="40.52" xlink:href="#Безымянный_градиент_32"/><linearGradient id="Безымянный_градиент_32-6" x1="3.12" y1="25.79" x2="71.54" y2="30.92" xlink:href="#Безымянный_градиент_32"/><linearGradient id="Безымянный_градиент_32-7" x1="0.99" y1="46.85" x2="68.71" y2="51.93" xlink:href="#Безымянный_градиент_32"/><linearGradient id="Безымянный_градиент_32-8" x1="4.68" y1="37.49" x2="63.55" y2="41.91" xlink:href="#Безымянный_градиент_32"/><linearGradient id="Безымянный_градиент_32-9" x1="4.23" y1="54.61" x2="62.71" y2="59" xlink:href="#Безымянный_градиент_32"/><linearGradient id="Безымянный_градиент_32-10" x1="7.39" y1="12.21" x2="65.87" y2="16.6" xlink:href="#Безымянный_градиент_32"/></defs><title>STENBERG-logo1111</title><path class="cls-1" d="M140.29,33.71q-2.73-2-11.41-2.12l-20.64-.24c-2.65,0-4.3-.16-4.95-.49s-1-1.11-1-2.35V26.17a2.9,2.9,0,0,1,.69-2.28,5.09,5.09,0,0,1,3-.57h33.95v-7l-11.78-.25H105.4q-7,0-9.54,2.24t-2.56,8.4v1.21c0,4.28.94,7.15,2.8,8.61s5.62,2.22,11.25,2.27c2.28,0,15.81.06,21.12.17a12.65,12.65,0,0,1,4.51.48q.93.49.93,2.28v5c0,1.19-.24,2-.73,2.31a5.39,5.39,0,0,1-2.92.53H94v7.47l11.78.25h25.09q7.32,0,9.75-2.36T143,46.28V42.23Q143,35.66,140.29,33.71Z"/><path class="cls-2" d="M161.12,49.33a2.75,2.75,0,0,1-.69-2.24V34h10.88V27.24H160.43V16.44h-9.1V46.12c0,4.49.86,7.49,2.56,9s4.89,2.24,9.54,2.24q5.28,0,8.69-.25V49.86h-8A5.47,5.47,0,0,1,161.12,49.33Z"/><path class="cls-3" d="M249.64,27.18H236.08q-7.4,0-10.24.25V57.27h9.1V34.17h14.37a4.56,4.56,0,0,1,2.77.57,3.12,3.12,0,0,1,.65,2.35V57.27h9.17V38.47c0-4.49-.9-7.5-2.72-9S254.19,27.18,249.64,27.18Z"/><path class="cls-4" d="M304.74,29.42q-2.76-2.24-9.59-2.24h-16V16.09h-9.09V57.26l10,.24h15q6.82,0,9.63-2.35t2.8-9.1V38.39C307.5,33.9,306.58,30.9,304.74,29.42Zm-6.42,17.85c0,1.19-.22,1.95-.65,2.27a5.3,5.3,0,0,1-2.84.49H279.15V34.17h15.68a4.79,4.79,0,0,1,2.84.56,3.17,3.17,0,0,1,.65,2.36Z"/><path class="cls-5" d="M362.39,29.05Q360,31,360,37.94V57.38h9.09V37.21a2.81,2.81,0,0,1,.73-2.27,5.18,5.18,0,0,1,2.93-.57H382V27.31l-10-.25C367.21,27.06,364,27.72,362.39,29.05Z"/><path class="cls-6" d="M414.45,27.13H401.37c-4.55,0-7.75.75-9.62,2.23s-2.8,4.46-2.8,8.9v8.07q0,6.74,2.76,9t9.66,2.24h15.92V62a3.37,3.37,0,0,1-.93,2.76,6.15,6.15,0,0,1-3.54.73H389v6.82l25.2.24q6.9,0,9.54-2.19t2.64-8.85v-34Zm2.84,23.18H401.53a4.85,4.85,0,0,1-2.76-.53,2.86,2.86,0,0,1-.65-2.23V37a3,3,0,0,1,.65-2.28,4.83,4.83,0,0,1,2.85-.56h15.67Z"/><rect class="cls-7" x="179.81" y="27.18" width="37.98" height="6.38"/><rect class="cls-7" x="179.81" y="50.95" width="37.98" height="6.38"/><rect class="cls-8" x="179.81" y="39.03" width="37.98" height="6.38"/><rect class="cls-9" x="314.59" y="27.18" width="37.98" height="6.38"/><rect class="cls-9" x="314.59" y="50.95" width="37.98" height="6.38"/><rect class="cls-10" x="314.59" y="39.03" width="37.98" height="6.38"/><path class="cls-11" d="M75.14,27.09,67,31.79a1.51,1.51,0,0,0-.76,1.31v9.41A1.51,1.51,0,0,0,67,43.82l8.14,4.7a1.53,1.53,0,0,0,1.52,0l8.14-4.7a1.51,1.51,0,0,0,.76-1.31V33.1a1.51,1.51,0,0,0-.76-1.31l-8.14-4.7A1.53,1.53,0,0,0,75.14,27.09Z"/><path class="cls-12" d="M62.09,31.79,54,27.09a1.53,1.53,0,0,0-1.52,0l-8.14,4.7a1.51,1.51,0,0,0-.76,1.31v9.41a1.51,1.51,0,0,0,.76,1.31l8.14,4.7a1.53,1.53,0,0,0,1.52,0l8.14-4.7a1.51,1.51,0,0,0,.76-1.31V33.1A1.51,1.51,0,0,0,62.09,31.79Z"/><path class="cls-13" d="M49.26,21.38V17.32a2.18,2.18,0,0,0-1.1-1.89l-3.51-2a2.2,2.2,0,0,0-2.19,0l-3.52,2a2.19,2.19,0,0,0-1.09,1.89v4.06a2.19,2.19,0,0,0,1.09,1.89l3.52,2a2.2,2.2,0,0,0,2.19,0l3.51-2A2.18,2.18,0,0,0,49.26,21.38Z"/><path class="cls-14" d="M37.85,54.47v4.06a2.21,2.21,0,0,0,1.09,1.9l3.52,2a2.2,2.2,0,0,0,2.19,0l3.51-2a2.2,2.2,0,0,0,1.1-1.9V54.47a2.18,2.18,0,0,0-1.1-1.89l-3.51-2a2.2,2.2,0,0,0-2.19,0l-3.52,2A2.19,2.19,0,0,0,37.85,54.47Z"/><path class="cls-15" d="M26.42,35.77v4.12a2.14,2.14,0,0,0,1.07,1.85l3.57,2.06a2.15,2.15,0,0,0,2.14,0l3.56-2.06a2.14,2.14,0,0,0,1.07-1.85V35.77a2.14,2.14,0,0,0-1.07-1.85L33.2,31.86a2.15,2.15,0,0,0-2.14,0l-3.57,2.06A2.14,2.14,0,0,0,26.42,35.77Z"/><path class="cls-16" d="M25.54,28.12V26.2a2.46,2.46,0,0,0-1.22-2.12l-1.67-1a2.42,2.42,0,0,0-2.44,0l-1.67,1a2.46,2.46,0,0,0-1.22,2.12v1.92a2.47,2.47,0,0,0,1.22,2.12l1.67,1a2.42,2.42,0,0,0,2.44,0l1.67-1A2.47,2.47,0,0,0,25.54,28.12Z"/><path class="cls-17" d="M17.38,47.21v2.35a2,2,0,0,0,1,1.75l2,1.18a2,2,0,0,0,2,0l2-1.18a2,2,0,0,0,1-1.75V47.21a2,2,0,0,0-1-1.74l-2-1.18a2,2,0,0,0-2,0l-2,1.18A2,2,0,0,0,17.38,47.21Z"/><path class="cls-18" d="M4.84,37.77h0a3.61,3.61,0,0,0,1.79,3.12h0a3.61,3.61,0,0,0,3.6,0h0A3.62,3.62,0,0,0,12,37.77h0a3.6,3.6,0,0,0-1.8-3.11h0a3.61,3.61,0,0,0-3.6,0h0A3.59,3.59,0,0,0,4.84,37.77Z"/><path class="cls-19" d="M53,53.51V64.76a1.8,1.8,0,0,0,.9,1.56l9.74,5.62a1.78,1.78,0,0,0,1.81,0l9.74-5.62a1.82,1.82,0,0,0,.9-1.56V53.51a1.82,1.82,0,0,0-.9-1.56l-9.74-5.63a1.83,1.83,0,0,0-1.81,0L53.9,52A1.8,1.8,0,0,0,53,53.51Z"/><path class="cls-20" d="M76.09,22.12V10.88a1.82,1.82,0,0,0-.9-1.57L65.45,3.69a1.83,1.83,0,0,0-1.81,0L53.9,9.31a1.8,1.8,0,0,0-.9,1.57V22.12a1.81,1.81,0,0,0,.9,1.57l9.74,5.62a1.83,1.83,0,0,0,1.81,0l9.74-5.62A1.83,1.83,0,0,0,76.09,22.12Z"/></svg>