<svg width="213" height="45" viewBox="0 0 213 45" fill="none" xmlns="http://www.w3.org/2000/svg">
<g clip-path="url(#clip0_187_5905)">
<path fill-rule="evenodd" clip-rule="evenodd" d="M42 0H36V26.88C36 30.4146 38.2386 33.28 41 33.28H42L50 33.28V28.16H42V14.08H50V8.96002H42V0ZM79 8.96002H55V14.08H79V8.96002ZM55 17.92H72V23.04H55V17.92ZM79 28.16H55V33.28H79V28.16ZM141 8.96002H165V14.08H141V8.96002ZM158 17.92H141V23.04H158V17.92ZM141 28.16H165V33.28H141V28.16ZM101 8.96002H90H83V33.28H90V14.08H101V33.28H108V15.36C108 11.8254 105.761 8.96002 103 8.96002H101ZM177 8.96002H184V14.08H177V33.28H170V15.36C170 11.8254 172.239 8.96002 175 8.96002H177ZM195 8.96002H206H213V38.4C213 41.9346 210.761 44.8 208 44.8L206 44.8H189V39.68H206V33.28H195L193 33.28C190.239 33.28 188 30.4146 188 26.88V15.36C188 11.8254 190.239 8.96002 193 8.96002H195ZM206 28.16H195V14.08H206V28.16ZM119 14.08V28.16H130V14.08H119ZM119 33.28H130L132 33.28C134.761 33.28 137 30.4146 137 26.88V15.36C137 11.8254 134.761 8.96002 132 8.96002H130H119V0H112V33.28L119 33.28ZM24 12.8H7V6.4H29V0H7H5C2.23858 0 0 2.86538 0 6.4V11.52C0 15.0546 2.23858 17.92 5 17.92L7 17.92H24V26.88H0V33.28H24L26 33.28C28.7614 33.28 31 30.4146 31 26.88V19.2C31 15.6654 28.7614 12.8 26 12.8H24Z" fill="#4F4F4F"/>
</g>
<defs>
<clipPath id="clip0_187_5905">
<rect width="213" height="44.8" fill="white"/>
</clipPath>
</defs>
</svg>
