<svg width="138" height="22" viewBox="0 0 138 22" fill="none" xmlns="http://www.w3.org/2000/svg">
<path d="M18.9969 4.23633C19.5007 4.90597 19.9271 5.63348 20.2677 6.40424L10.6075 13.7257L6.57031 11.1237V7.99336L10.6075 10.5954L18.9969 4.23633Z" fill="#21A038"/>
<path d="M2.45001 10.9033C2.45001 10.7629 2.45334 10.6233 2.46 10.4846L0.013325 10.3613C0.00499733 10.5411 2.95669e-06 10.7227 2.95669e-06 10.9059C-0.00103804 12.3373 0.272816 13.7549 0.805861 15.0772C1.3389 16.3996 2.12064 17.6007 3.10623 18.6117L4.84172 16.8283C4.08305 16.0514 3.48119 15.128 3.07074 14.1112C2.66029 13.0944 2.44934 12.0042 2.45001 10.9033Z" fill="url(#paint0_linear_1735_5252)"/>
<path d="M10.6053 2.51823C10.7419 2.51823 10.8776 2.52337 11.0125 2.53022L11.1349 0.0138272C10.9595 0.00526516 10.7829 0.000984649 10.6053 0.000984649C9.21237 -0.000761804 7.83289 0.280393 6.54598 0.828305C5.25907 1.37622 4.0901 2.1801 3.1062 3.19379L4.84169 4.97812C5.59733 4.19784 6.49554 3.57882 7.48467 3.15667C8.4738 2.73451 9.5343 2.51754 10.6053 2.51823Z" fill="url(#paint1_linear_1735_5252)"/>
<path d="M10.6053 19.2881C10.4687 19.2881 10.333 19.2881 10.1973 19.277L10.0748 21.7925C10.2508 21.8016 10.4276 21.8062 10.6053 21.8062C11.9976 21.8077 13.3764 21.5264 14.6627 20.9783C15.9489 20.4302 17.1171 19.6262 18.1003 18.6126L16.3681 16.8291C15.6123 17.609 14.7142 18.2276 13.7253 18.6496C12.7363 19.0716 11.676 19.2886 10.6053 19.2881Z" fill="url(#paint2_linear_1735_5252)"/>
<path d="M15.2023 3.98138L17.2642 2.4188C15.3796 0.849767 13.027 -0.00435547 10.602 1.67024e-05V2.51812C12.2441 2.51603 13.8481 3.02625 15.2023 3.98138Z" fill="url(#paint3_linear_1735_5252)"/>
<path d="M21.2099 10.9031C21.2112 10.248 21.1554 9.59409 21.0433 8.94922L18.7607 10.6788C18.7607 10.7533 18.7607 10.8278 18.7607 10.9031C18.7613 12.0746 18.5224 13.2332 18.0596 14.3038C17.5968 15.3743 16.9204 16.3329 16.0742 17.1174L17.7206 18.9883C18.8207 17.9672 19.6998 16.7198 20.3009 15.327C20.9021 13.9341 21.2117 12.4269 21.2099 10.9031Z" fill="#21A038"/>
<path d="M10.6054 19.2875C9.46581 19.2879 8.33888 19.0423 7.2975 18.5665C6.25618 18.0907 5.32363 17.3953 4.56028 16.5254L2.74152 18.2173C3.73456 19.3485 4.94777 20.2525 6.3025 20.8707C7.65722 21.4889 9.12317 21.8074 10.6054 21.8056V19.2875Z" fill="url(#paint4_linear_1735_5252)"/>
<path d="M5.13652 4.6882L3.49097 2.81738C2.39053 3.8383 1.51109 5.08564 0.909683 6.47849C0.308287 7.87133 -0.00163962 9.3786 6.5232e-06 10.9025H2.45001C2.44951 9.73106 2.6884 8.57246 3.15119 7.50193C3.61399 6.43143 4.29037 5.4728 5.13652 4.6882Z" fill="url(#paint5_linear_1735_5252)"/>
<path d="M61.1996 6.2353L64.234 3.96289H54.0786V17.6181H64.234V15.3457H56.9763V11.8479H63.1674V9.57548H56.9763V6.2353H61.1996Z" fill="#21A038"/>
<path d="M47.2454 9.28248H43.7197V6.23439H49.3466L52.3791 3.95508H40.8237V17.6103H46.8725C50.2637 17.6103 52.21 16.0479 52.21 13.3231C52.21 10.7163 50.4471 9.28248 47.2454 9.28248ZM46.742 15.3371H43.7197V11.5535H46.742C48.5762 11.5535 49.4363 12.1875 49.4363 13.4453C49.4363 14.7031 48.5212 15.3371 46.742 15.3371Z" fill="#21A038"/>
<path d="M71.6989 3.96094H66.171V17.6161H69.0684V13.7478H71.6989C75.2258 13.7478 77.4075 11.8614 77.4075 8.84708C77.4075 5.8329 75.2258 3.96094 71.6989 3.96094ZM71.6378 11.4737H69.0684V6.23508H71.6378C73.4929 6.23508 74.5167 7.16588 74.5167 8.85542C74.5167 10.545 73.4929 11.4737 71.6378 11.4737Z" fill="#21A038"/>
<path d="M36.4756 14.3933C35.7272 14.8053 34.8886 15.0186 34.0375 15.0136C31.4902 15.0136 29.6422 13.165 29.6422 10.6194C29.6422 8.07384 31.4902 6.22123 34.0375 6.22123C34.9561 6.20537 35.8557 6.48852 36.6048 7.02937L38.6315 5.5121L38.4944 5.41311C37.3122 4.3565 35.7325 3.79688 33.9243 3.79688C31.963 3.79688 30.1847 4.46761 28.9149 5.68787C28.2729 6.31616 27.7652 7.07224 27.4233 7.9089C27.0815 8.74557 26.9128 9.64483 26.9279 10.5507C26.9143 11.4658 27.0822 12.3742 27.4216 13.2219C27.7609 14.0696 28.2648 14.839 28.9031 15.4843C30.1787 16.753 31.9531 17.452 33.9004 17.452C35.9351 17.452 37.7136 16.7308 38.9177 15.4176L37.1035 14.0438L36.4756 14.3933Z" fill="#21A038"/>
<path d="M88.8963 9.28248H85.3721V6.23439H92.9456V3.95508H82.4741V17.6103H88.5152C91.906 17.6103 93.8525 16.0479 93.8525 13.3231C93.8604 10.7163 92.0979 9.28248 88.8963 9.28248ZM88.3929 15.3371H85.3721V11.5535H88.3929C90.227 11.5535 91.0866 12.1875 91.0866 13.4453C91.0866 14.7031 90.1797 15.3371 88.3929 15.3371Z" fill="#21A038"/>
<path d="M126.794 17.5907H123.856V3.93555H126.794V9.67081H128.393L132.71 3.93555H136.039L130.918 10.4315L136.864 17.5907H132.967L128.596 12.2203H126.794V17.5907Z" fill="#21A038"/>
<path d="M104.524 14.9957H98.3105L97.2571 17.6473H94.1311L99.9593 3.99219H103.085L108.818 17.6473H105.578L104.524 14.9957ZM103.551 12.5215L101.436 7.21808L99.3087 12.5215H103.551Z" fill="#21A038"/>
<path d="M112.773 3.99219V9.69435H118.851V3.99219H121.88V17.6473H118.851V12.2667H112.773V17.6473H109.744V3.99219H112.773Z" fill="#21A038"/>
<defs>
<linearGradient id="paint0_linear_1735_5252" x1="3.60173" y1="18.2975" x2="0.789578" y2="10.3907" gradientUnits="userSpaceOnUse">
<stop offset="0.14" stop-color="#F1E813"/>
<stop offset="0.3" stop-color="#E6E418"/>
<stop offset="0.58" stop-color="#C9DA26"/>
<stop offset="0.89" stop-color="#A2CC39"/>
</linearGradient>
<linearGradient id="paint1_linear_1735_5252" x1="3.80572" y1="3.63901" x2="10.7477" y2="1.06593" gradientUnits="userSpaceOnUse">
<stop offset="0.06" stop-color="#0FA7DF"/>
<stop offset="0.54" stop-color="#0098F8"/>
<stop offset="0.92" stop-color="#0290EA"/>
</linearGradient>
<linearGradient id="paint2_linear_1735_5252" x1="9.9133" y1="20.2864" x2="17.7301" y2="18.5689" gradientUnits="userSpaceOnUse">
<stop offset="0.12" stop-color="#A2CC39"/>
<stop offset="0.28" stop-color="#86C239"/>
<stop offset="0.87" stop-color="#219F38"/>
</linearGradient>
<linearGradient id="paint3_linear_1735_5252" x1="10.0924" y1="0.84338" x2="16.7893" y2="2.85345" gradientUnits="userSpaceOnUse">
<stop offset="0.06" stop-color="#0290EA"/>
<stop offset="0.79" stop-color="#0C89CA"/>
</linearGradient>
<linearGradient id="paint4_linear_1735_5252" x1="3.3561" y1="17.9107" x2="10.6595" y2="20.5656" gradientUnits="userSpaceOnUse">
<stop offset="0.13" stop-color="#F1E813"/>
<stop offset="0.3" stop-color="#EAE616"/>
<stop offset="0.53" stop-color="#D8DF1F"/>
<stop offset="0.8" stop-color="#BAD52D"/>
<stop offset="0.98" stop-color="#A2CC39"/>
</linearGradient>
<linearGradient id="paint5_linear_1735_5252" x1="0.912719" y1="11.2073" x2="3.96869" y2="3.47527" gradientUnits="userSpaceOnUse">
<stop offset="0.07" stop-color="#A2CC39"/>
<stop offset="0.26" stop-color="#81C45E"/>
<stop offset="0.92" stop-color="#0FA7DF"/>
</linearGradient>
</defs>
</svg>
