<svg width="129" height="24" viewBox="0 0 129 24" fill="none" xmlns="http://www.w3.org/2000/svg">
<g clip-path="url(#clip0_1757_5117)">
<path d="M26.3158 11.2265L26.6668 10.1096L25.5055 10.1459C25.4074 10.1459 24.6941 10.1258 24.0023 9.62715C24.0539 9.6322 24.1054 9.6392 24.1581 9.6392C24.8702 9.6392 25.5591 9.213 25.8353 8.6038L26.335 7.5031C25.7088 7.5111 25.1363 7.4327 25.1363 7.4327C25.1312 7.4317 24.68 7.37435 24.1581 6.84465C23.7837 6.46465 23.3204 6.2636 22.8186 6.2636C22.5992 6.2636 22.4029 6.3028 22.234 6.3561C22.2603 6.26665 22.2856 6.17615 22.2998 6.08265C22.4596 5.0523 21.792 4.2662 21.792 4.26719L20.919 3.19259L20.3778 4.4552C20.3757 4.45923 20.2391 4.75474 19.9944 4.89952C19.9205 4.52858 19.7395 4.11137 19.352 3.71234C18.6216 2.96042 17.7325 2.84883 17.2671 2.84883C17.0516 2.84883 16.8979 2.87197 16.8604 2.87798L15.8064 3.08404C15.8671 2.84982 15.9966 2.44272 16.2333 2.07581L16.815 1.17508L15.3512 1.34095L14.8848 0.356855L13.9825 0.819285L13.148 0L12.3154 0.819285L11.41 0.356855L10.9447 1.34095L9.48195 1.17508L10.0646 2.07581C10.3013 2.44272 10.4308 2.84882 10.4905 3.08305L9.4849 2.88605L9.45055 2.87996C9.39995 2.87197 9.24725 2.84883 9.03075 2.84883C8.5654 2.84883 7.67625 2.96141 6.94785 3.71234C6.5594 4.11038 6.37835 4.52858 6.3035 4.89952C6.06075 4.75679 5.92515 4.46525 5.92515 4.46525L5.38295 3.19563L4.49583 4.27724C4.38754 4.41699 3.85246 5.1558 3.9981 6.08465C4.0133 6.17715 4.03756 6.26765 4.06387 6.3571C3.89596 6.3038 3.69968 6.2646 3.4802 6.2646C2.97843 6.2646 2.51515 6.46565 2.13985 6.84565C1.61983 7.3734 1.17069 7.4327 1.17479 7.4327C1.17479 7.4327 0.700325 7.51715 -0.034077 7.50405L0.4626 8.6048C0.7388 9.21495 1.42865 9.6402 2.13985 9.6402C2.19346 9.6402 2.24502 9.63315 2.29765 9.62815C1.60774 10.1267 0.894555 10.1469 0.808545 10.1479L-0.375 10.1096L-0.0168895 11.2255C0.16319 11.8004 0.765045 12.7534 1.91831 12.8559C1.79284 13.3787 1.51465 13.9637 0.903675 14.2161L0.0225775 14.5769L0.503055 15.4083C0.77417 15.8566 1.41047 16.3813 2.31682 16.3813C2.5131 16.3803 2.70223 16.3612 2.88436 16.323C2.9309 16.528 2.98954 16.7331 3.05836 16.9362C3.32841 17.7344 3.09577 18.2913 3.09274 18.2973L2.65774 19.203L3.62888 19.4573C3.64104 19.4614 3.93436 19.5408 4.3016 19.5408C4.46852 19.5408 4.6273 19.5237 4.77705 19.4885C4.8903 19.4624 4.9986 19.4272 5.10275 19.385C5.2282 19.6091 5.38095 19.8132 5.559 19.9961C6.18115 20.6304 7.06225 20.9521 8.179 20.9521H8.18305L8.9802 20.9421L7.3333 21.6216L8.58365 22.2218C9.03785 22.4419 9.577 22.7022 10.1253 22.9013L9.9695 23.3255L10.4005 23.5205C10.4389 23.5375 11.2674 23.9065 12.6452 23.9849C12.6452 23.9849 12.978 24 13.1611 24C13.3442 24 13.6729 23.9839 13.6729 23.9839C15.0417 23.9035 15.864 23.5386 15.9025 23.5205L16.3344 23.3245L16.1766 22.8992C16.7411 22.6942 17.2994 22.4237 17.7344 22.2127L18.9615 21.6206L17.3197 20.94L18.1199 20.9501C19.2377 20.9501 20.1198 20.6285 20.7409 19.9931C20.9179 19.8111 21.0707 19.607 21.1971 19.3829C21.3013 19.4251 21.4105 19.4603 21.5238 19.4865C21.6726 19.5217 21.8314 19.5387 21.9983 19.5387C22.3594 19.5387 22.6559 19.4593 22.6639 19.4573L23.6391 19.201L23.2142 18.3124C23.2041 18.2893 22.9715 17.7334 23.2416 16.9342C23.3103 16.7302 23.368 16.5251 23.4145 16.321C23.5977 16.3592 23.7888 16.3793 23.9861 16.3793C25.1402 16.3793 25.6936 15.5721 25.8009 15.3972L26.2763 14.5749L25.3952 14.215C24.7832 13.9627 24.5061 13.3766 24.3816 12.8549C25.5186 12.7584 26.1296 11.8055 26.3158 11.2265ZM10.5673 3.46807L10.5553 3.47104L10.5654 3.45802L10.5673 3.46807Z" fill="white"/>
<path d="M13.149 3.41895C12.2163 3.41994 11.5173 3.72351 11.3645 4.08037L13.149 4.77999L14.9334 4.08037C14.7817 3.72351 14.0827 3.41994 13.149 3.41895Z" fill="white"/>
<path d="M13.167 21.9399H13.165H13.1498H13.1326H13.1316C12.5661 21.9439 11.7882 21.8283 11.4129 21.7197L10.9617 22.933C11.2591 23.0386 12.2667 23.2396 13.1498 23.2396C14.0309 23.2396 15.0394 23.0376 15.3358 22.933L14.8856 21.7197C14.5094 21.8293 13.7324 21.9439 13.167 21.9399Z" fill="white"/>
<path d="M16.5813 20.7344C16.2454 20.9234 15.4958 21.2068 15.0598 21.3385L15.426 22.3407C16.1007 22.1577 16.6571 21.9437 17.1174 21.7145L16.3577 21.4631L16.5813 20.7344Z" fill="white"/>
<path d="M9.71755 20.7344L9.9421 21.4631L9.1814 21.7145C9.64065 21.9437 10.2001 22.1577 10.8718 22.3407L11.238 21.3385C10.804 21.2068 10.0534 20.9224 9.71755 20.7344Z" fill="white"/>
<path d="M13.1487 2.25885C13.8517 2.25885 14.5416 2.42571 15.0717 2.71923C15.1203 2.5574 15.188 2.36138 15.2801 2.15631L15.0798 2.18044L14.8694 2.20253L14.7804 2.01253L14.5123 1.44961L14.0237 1.70294L13.8335 1.79946L13.6818 1.65065L13.1507 1.12793L12.6206 1.65065L12.4689 1.79946L12.2787 1.70294L11.7871 1.44961L11.5221 2.01253L11.431 2.20253L11.2206 2.18044L11.0203 2.15631C11.1124 2.36238 11.1791 2.5574 11.2287 2.71923C11.7598 2.42571 12.4476 2.25885 13.1487 2.25885Z" fill="white"/>
<path d="M23.8829 8.76445C23.974 8.79565 24.067 8.80975 24.1591 8.80975C24.5566 8.80975 24.941 8.55435 25.0735 8.2619C25.0735 8.2619 24.3442 8.21765 23.5602 7.42655C23.3104 7.17015 23.0463 7.09375 22.8197 7.09375C22.4677 7.09375 22.2036 7.2787 22.2036 7.2787C23.1505 7.77935 23.3437 8.5835 23.8829 8.76445Z" fill="white"/>
<path d="M2.13895 8.80975C2.23098 8.80975 2.32406 8.79565 2.41311 8.76445C2.95427 8.5835 3.1485 7.77935 4.09538 7.2787C4.09538 7.2787 3.83028 7.09375 3.4803 7.09375C3.25269 7.09375 2.98865 7.17015 2.73776 7.42655C1.95484 8.21765 1.22546 8.2619 1.22546 8.2619C1.35596 8.55435 1.74137 8.80975 2.13895 8.80975Z" fill="white"/>
<path d="M24.1401 12.0322C24.1563 12.0332 24.1704 12.0332 24.1876 12.0332C25.18 12.0332 25.5169 10.9767 25.5169 10.9767H25.4976C25.3156 10.9767 23.8396 10.9345 22.7967 9.61663C22.1098 8.75013 21.5473 7.98812 20.4356 7.68862L20.3264 7.66952L20.3021 7.55892C20.2717 7.38997 20.3881 7.23217 20.6521 7.06132C22.1857 6.06312 21.1447 4.79046 21.1447 4.79046C21.1447 4.79046 20.7067 5.80882 19.7265 5.80882C19.7032 5.80882 19.6779 5.80782 19.6537 5.80782C19.5424 5.80172 19.4352 5.79767 19.3269 5.77462L19.1458 5.73947C19.1458 5.73947 19.4251 4.98449 18.7513 4.29088C18.2435 3.76717 17.6254 3.67871 17.2683 3.67871C17.0882 3.67871 16.9739 3.70178 16.9739 3.70178C17.3128 4.14213 17.5576 4.87191 17.1662 5.32222C16.8283 5.70922 16.0028 5.72837 16.0028 6.30532C16.0028 6.54962 16.2325 6.83512 16.6452 7.09142C17.8864 7.86847 19.1185 8.89888 19.6304 10.2801C20.2707 12.0031 19.5495 13.146 18.5197 13.8014C18.5197 13.8014 18.8424 14.0969 19.3108 14.1341C19.4058 14.1432 19.4989 14.1472 19.5859 14.1472C20.5742 14.1472 21.0851 13.6868 21.0851 13.6868C21.0851 13.6868 21.0011 14.3232 20.4862 14.9142C20.0118 15.46 19.3886 15.7807 18.4387 15.7948C18.4387 15.7948 18.4084 16.2331 18.8292 16.612C19.0983 16.8513 19.7204 16.9297 19.7204 16.9297C19.7204 16.9297 18.5561 17.1639 18.4276 18.8728C18.3578 19.7987 18.1201 20.1203 18.1201 20.1203H18.1414C20.8433 20.1203 20.7735 17.8173 20.7735 17.8173C20.7735 17.8173 20.9616 18.4988 21.7153 18.6768C21.8063 18.7009 21.9034 18.71 21.9965 18.71C22.2393 18.71 22.4497 18.6537 22.4497 18.6537C22.4497 18.6537 22.0552 17.8264 22.4466 16.6694C22.7714 15.7093 22.7188 14.9977 22.7188 14.9977C22.7188 14.9977 23.0829 15.5445 23.9853 15.5495H23.9944C24.746 15.5495 25.0737 14.9836 25.0737 14.9836C23.2721 14.2407 23.4502 11.8422 23.4502 11.8422C23.4502 11.8422 23.6839 12.0151 24.1401 12.0322ZM23.5978 14.5372C22.8654 14.1784 22.4021 13.2254 22.2899 12.8816C22.1684 14.7714 21.2398 16.0833 20.1544 17.3458C19.5909 18.0003 19.3947 18.6366 19.3947 18.6366C19.3947 18.6366 19.5029 17.9158 19.9905 17.3288C21.0031 16.1195 21.9652 14.6146 22.037 12.8746C22.0865 11.6603 21.7719 10.6751 21.2813 9.86393C21.5554 10.7093 21.517 11.7447 20.5853 12.7108C20.5853 12.7108 22.4396 10.5022 19.8469 8.23842C18.809 7.37697 17.674 6.84517 17.0893 6.46822C19.2015 7.15277 20.2323 6.39882 20.2323 6.39882C19.5575 6.97987 18.6846 6.96982 18.1433 6.88637C18.29 6.95777 18.4428 7.03212 18.6077 7.11962C20.3881 8.08062 21.9884 9.66183 22.2615 11.8523V11.8351C22.6763 13.9853 23.5978 14.5372 23.5978 14.5372Z" fill="white"/>
<path d="M6.57754 16.9297C6.57754 16.9297 7.19969 16.8523 7.46879 16.612C7.88854 16.2331 7.85929 15.7948 7.85929 15.7948C6.90839 15.7817 6.28624 15.46 5.80878 14.9152C5.29788 14.3241 5.21293 13.6878 5.21293 13.6878C5.21293 13.6878 5.72373 14.1482 6.71109 14.1482C6.80014 14.1482 6.89219 14.1442 6.98724 14.1351C7.45564 14.098 7.77934 13.8024 7.77934 13.8024C6.74949 13.147 6.02729 12.0031 6.66659 10.2801C7.17949 8.89988 8.41054 7.86847 9.65184 7.09142C10.0645 6.83512 10.2941 6.55067 10.2941 6.30532C10.2941 5.72837 9.46969 5.70922 9.13179 5.32222C8.74039 4.87191 8.98619 4.14108 9.32404 3.70178C9.32404 3.70178 9.21174 3.67871 9.03064 3.67871C8.67459 3.67871 8.05649 3.76717 7.54869 4.29088C6.87294 4.98449 7.15319 5.73947 7.15319 5.73947L6.97209 5.77462C6.86389 5.79767 6.75559 5.80172 6.64534 5.80782C6.62009 5.80782 6.59779 5.80882 6.57354 5.80882C5.59128 5.80882 5.15528 4.79145 5.15528 4.79145C5.15528 4.79145 4.11434 6.06412 5.64688 7.06227C5.91093 7.23317 6.02628 7.39107 5.99593 7.55987L5.97158 7.67047L5.86033 7.68957C4.75063 7.98912 4.18719 8.75112 3.50032 9.61758C2.45937 10.9335 0.985473 10.9767 0.801428 10.9767H0.781128C0.781128 10.9767 1.11802 12.0332 2.11038 12.0332C2.12658 12.0332 2.14072 12.0332 2.15791 12.0322C2.61413 12.0161 2.84882 11.8422 2.84882 11.8422C2.84882 11.8422 3.02487 14.2397 1.22525 14.9836C1.22525 14.9836 1.55302 15.5495 2.30461 15.5495H2.31373C3.21704 15.5445 3.58025 14.9977 3.58025 14.9977C3.58025 14.9977 3.52762 15.7093 3.85136 16.6694C4.24279 17.8264 3.8503 18.6537 3.8503 18.6537C3.8503 18.6537 4.06073 18.71 4.30249 18.71C4.39656 18.71 4.49268 18.7009 4.58272 18.6768C5.33528 18.4988 5.52448 17.8173 5.52448 17.8173C5.52448 17.8173 5.45568 20.1203 8.15769 20.1203H8.17684C8.17684 20.1203 7.94019 19.7987 7.87139 18.8728C7.74194 17.1639 6.57754 16.9297 6.57754 16.9297ZM6.14364 17.3458C5.05818 16.0833 4.13054 14.7714 4.0081 12.8816C3.89585 13.2244 3.43454 14.1784 2.70219 14.5372C2.70219 14.5372 3.62269 13.9853 4.03646 11.8351V11.8523C4.31062 9.66288 5.90993 8.08062 7.69129 7.11962C7.85419 7.03117 8.00894 6.95677 8.15464 6.88637C7.61344 6.96982 6.74044 6.97987 6.06568 6.39882C6.06568 6.39882 7.09649 7.15277 9.20769 6.46822C8.62304 6.84517 7.48899 7.37697 6.45109 8.23842C3.85737 10.5022 5.71263 12.7108 5.71263 12.7108C4.77998 11.7437 4.74258 10.7093 5.01668 9.86393C4.52507 10.6761 4.21145 11.6603 4.26203 12.8746C4.33283 14.6146 5.29483 16.1195 6.30544 17.3288C6.79409 17.9148 6.90434 18.6366 6.90434 18.6366C6.90434 18.6366 6.70599 18.0003 6.14364 17.3458Z" fill="white"/>
<path d="M11.1513 8.51018C11.1958 8.55748 11.2393 8.60868 11.2808 8.65998C11.2909 8.67203 11.3 8.68313 11.3101 8.69723C11.3486 8.74843 11.388 8.80273 11.4255 8.85798C11.4335 8.86908 11.4417 8.88213 11.4507 8.89523C11.4963 8.96358 11.5388 9.03388 11.5812 9.10628C11.9707 9.77478 12.5949 10.1739 13.1482 10.1749C13.7025 10.1739 14.3247 9.77478 14.7162 9.10628C14.7597 9.03193 14.8032 8.95953 14.8486 8.89218C14.8557 8.88213 14.8629 8.87313 14.8689 8.86303C14.9073 8.80578 14.9478 8.74943 14.9903 8.69518C14.9994 8.68313 15.0075 8.67308 15.0156 8.66303C15.0591 8.60973 15.1036 8.55748 15.1491 8.50918C15.1572 8.50113 15.1632 8.49413 15.1703 8.48813C15.3686 8.28603 15.6053 8.13223 15.9148 8.04678L15.7773 7.96738H15.7692L15.2209 7.65073L14.6575 7.33008L13.1522 8.14428L13.1482 8.14128L13.1451 8.14428L11.6389 7.33008L11.0765 7.64973L10.5272 7.96638H10.5211L10.3815 8.04578C10.692 8.13123 10.9277 8.28303 11.127 8.48508C11.1361 8.49313 11.1422 8.50218 11.1513 8.51018ZM12.5392 8.44488H13.1765H13.8128V8.87913C13.6631 8.69723 13.3718 8.73438 13.3718 8.73438V9.36063C13.3718 9.36063 13.3829 9.66823 13.4911 9.80198H13.1765H12.8609C12.9711 9.66928 12.9813 9.36063 12.9813 9.36063V8.73438C12.9813 8.73438 12.6909 8.69723 12.5392 8.87913V8.44488Z" fill="white"/>
<path d="M13.0187 7.60274V5.06054L11.39 4.51172L11.8199 6.97554L13.0187 7.60274ZM12.6687 5.68479V6.09289L12.5898 6.05674C12.5857 6.05369 12.4704 6.02759 12.2681 5.86874C11.9343 5.61144 11.9282 5.37419 11.9282 5.37419L12.6687 5.68479Z" fill="white"/>
<path d="M14.4795 6.97554L14.9074 4.51172L13.2798 5.06054V7.60274L14.4795 6.97554ZM13.6298 5.68479L14.3702 5.37514C14.3702 5.37514 14.3642 5.61244 14.0294 5.86979C13.8281 6.02859 13.7117 6.05469 13.7077 6.05774L13.6288 6.09389V5.68479H13.6298Z" fill="white"/>
<path d="M10.7153 13.4966C10.8741 13.554 11.0663 13.5661 11.1644 13.5661C11.1685 13.554 11.1735 13.5389 11.1786 13.5208C11.1877 13.4916 11.1958 13.4635 11.2019 13.4313C11.2292 13.2906 11.2393 13.1307 11.2413 13.0282C11.1745 12.987 11.0805 12.9136 11.0279 12.8041C10.9672 12.6774 10.8812 12.6191 10.7547 12.6191C10.5909 12.6191 10.4149 12.7166 10.34 12.7628C10.2804 13.1137 10.5403 13.4323 10.7153 13.4966Z" fill="white"/>
<path d="M14.3174 12.1475C14.015 12.4742 13.4232 13.0432 13.3938 13.0724L13.3584 13.1085L11.488 13.0794C11.487 13.2633 11.4566 13.4202 11.4273 13.5347C11.4223 13.5538 11.4172 13.5739 11.4121 13.5941L13.6376 13.9911C13.8693 13.8303 14.5066 13.3679 14.7534 13.1869C14.5733 12.9256 14.5561 12.6159 14.5966 12.3978C14.4793 12.3224 14.3892 12.238 14.3174 12.1475Z" fill="white"/>
<path d="M14.5714 9.91223C14.1404 10.3374 13.7267 10.4942 13.3575 10.5304C13.2907 10.5375 13.223 10.5415 13.1542 10.5415H13.1491H13.145C13.0763 10.5415 13.0075 10.5375 12.9407 10.5304C12.876 10.5244 12.8082 10.5143 12.7405 10.4993C12.7161 10.5947 12.6858 10.7948 12.7728 10.9838C12.8507 11.1557 13.0095 11.2833 13.2412 11.3678L13.319 11.3979L13.3201 11.4814C13.3201 11.5065 13.3383 12.0473 13.9321 12.1971C14.0292 12.0976 14.1172 12.0081 14.182 11.9338C14.0605 11.6503 14.1242 11.3607 14.3003 11.219C14.2922 11.2491 14.2153 11.9589 14.7879 12.2223L14.882 12.2665L14.8536 12.366C14.8445 12.3961 14.6533 13.0827 15.3463 13.338L15.4687 13.3843L15.414 13.5029C15.4019 13.529 15.1298 14.1523 15.7702 14.5061H17.159V13.4104C16.6654 13.3501 16.456 12.9561 16.4024 12.6766C16.1728 12.6374 15.9947 12.5389 15.8733 12.3781C15.5819 11.9971 15.8328 11.6482 15.8359 11.6291C15.8349 11.6322 15.8359 12.0041 16.0665 12.2333C16.1808 12.3439 16.3164 12.4293 16.5217 12.4484L16.6229 12.4575L16.632 12.56C16.634 12.5821 16.6897 13.0847 17.16 13.1641L17.159 10.9265C17.159 10.5797 17.2612 10.2309 17.3836 9.90918H14.5714V9.91223Z" fill="white"/>
<path d="M10.8338 10.9365L10.7964 12.3618L10.9592 12.386L11.3578 11.0188L11.1555 10.5986L10.8338 10.9365Z" fill="white"/>
<path d="M15.2277 17.4743C15.2399 17.4743 15.254 17.4763 15.2672 17.4793C15.515 17.5496 15.5777 18.4383 16.0127 18.5177C16.0552 18.5267 16.0946 18.5288 16.129 18.5288C16.2545 18.5288 16.3293 18.4755 16.4102 18.381C16.4102 18.381 16.1918 18.0392 16.0279 17.809C15.8104 17.5075 15.6415 17.1425 15.2368 17.1425C15.2277 17.1425 15.2156 17.1425 15.2055 17.1435C15.0719 17.1506 14.99 17.2149 14.99 17.2149C14.8261 17.1124 14.6734 17.0772 14.5347 17.0772C14.2809 17.0772 14.0836 17.1928 13.9854 17.1928H13.9814L13.077 17.1043C12.9354 17.0913 12.8242 16.9496 12.7837 16.8942C12.7736 16.8792 12.7685 16.8701 12.7685 16.8701C12.7685 16.846 12.7685 16.8209 12.7665 16.7988C12.7362 16.0639 12.1636 15.7493 11.9603 15.7443C11.9603 15.7443 11.9845 15.6045 11.9289 15.5512L11.7296 15.7915L11.0751 15.4648L11.5415 16.0067L11.1459 16.4479C11.0964 16.4982 11.1024 16.5665 11.1227 16.5947L11.2936 16.7445L11.5101 16.6138C11.5212 16.6057 11.5405 16.6038 11.5647 16.6038C11.6244 16.6038 11.7145 16.6188 11.7954 16.6188C11.8834 16.6188 11.9603 16.5997 11.9694 16.5173C11.9421 16.7897 11.6882 17.2632 11.8551 17.6351L11.9785 17.9156L11.1793 17.801L10.805 18.4292C10.6897 18.6383 10.6715 18.8645 10.7828 18.9872L10.9223 19.161C10.9223 19.161 11.1186 18.954 11.1631 18.8183L11.0994 18.7489C11.0457 18.6906 11.0488 18.6383 11.0812 18.575L11.3159 18.188L12.2597 18.4091L12.3093 18.3247C12.373 18.2191 12.4651 18.187 12.5662 18.187C12.6077 18.187 12.6502 18.192 12.6947 18.199C12.8697 18.2332 13.158 18.2795 13.4463 18.2795C13.7629 18.2795 14.0765 18.2232 14.2434 18.0372C14.5853 18.5408 15.2783 18.6213 15.2237 18.8766L15.0416 19.7391C15.162 19.7341 15.2783 19.726 15.3885 19.7109L15.5615 18.8132C15.5808 18.7157 15.599 18.584 15.599 18.584C15.5322 18.5167 15.3704 18.374 15.2793 18.2011C15.1569 17.9678 15.2237 17.8462 15.1094 17.5426C15.1134 17.5446 15.1478 17.4743 15.2277 17.4743ZM11.6973 16.2137C11.6507 16.2127 11.6174 16.1735 11.6193 16.1272C11.6234 16.083 11.6609 16.0478 11.7063 16.0519C11.7529 16.0539 11.7863 16.0941 11.7843 16.1383C11.7802 16.1826 11.7418 16.2168 11.6973 16.2137Z" fill="white"/>
<path d="M10.4088 18.2904C10.4088 18.2904 10.7214 18.1627 10.7497 18.0713L10.7082 17.9677C10.6789 17.9004 10.6829 17.827 10.7396 17.7868L11.0774 17.5546L11.6419 17.6621C11.6419 17.6621 11.5397 17.5354 11.5499 17.3656L11.0117 17.252L10.5039 17.5596C10.2864 17.7214 10.2702 17.9858 10.342 18.1427L10.4088 18.2904Z" fill="white"/>
<path d="M14.3984 19.7523C14.4996 19.7482 14.6108 19.7462 14.7333 19.7462C14.7333 19.7462 15.0236 18.9028 15.0397 18.8757C14.8769 18.8043 14.539 18.6264 14.4085 18.5449C14.4945 18.6727 14.7039 18.8194 14.6625 18.932L14.3984 19.7523Z" fill="white"/>
<path d="M17.1619 14.75H9.13696V17.7496C9.13696 18.976 10.0303 19.744 11.3483 19.744C12.45 19.744 12.7402 19.7862 13.15 20.1903C13.4322 19.9108 13.6659 19.8063 14.1454 19.7671L14.1565 19.7209L14.4094 18.9439C14.3952 18.9268 13.9815 18.4593 13.9815 18.4593C13.8176 18.5136 13.6801 18.5226 13.4484 18.5226C13.2107 18.5226 12.9426 18.4955 12.6523 18.4413C12.6229 18.4342 12.5956 18.4321 12.5683 18.4321C12.5329 18.4321 12.5299 18.4352 12.5208 18.4523L12.4702 18.5347L12.3781 18.6855L12.2052 18.6463L11.4353 18.4664L11.3301 18.6392L11.3463 18.6573L11.4404 18.7599L11.3989 18.8935C11.3422 19.0684 11.1581 19.2726 11.1025 19.3288L10.9103 19.5338L10.7353 19.3138L10.6038 19.1499C10.4652 18.9961 10.4329 18.7599 10.5107 18.5125C10.5087 18.5146 10.5056 18.5156 10.5027 18.5156L10.2852 18.6051L10.187 18.394L10.1182 18.2442C9.99991 17.9808 10.0433 17.5958 10.3621 17.3636L10.9822 17.0158L11.5719 17.1314C11.5861 17.0751 11.6073 16.8741 11.6245 16.8228C11.6134 16.8218 11.6023 16.8188 11.5911 16.8188L11.2512 16.9444L10.9234 16.7193C10.9234 16.7193 10.795 16.5966 10.9113 16.4739L11.2289 15.9965L10.4247 14.9933L11.6609 15.4978L11.7429 15.3963L11.9097 15.1984L12.0989 15.3772C12.1525 15.4285 12.1829 15.4919 12.198 15.5552C12.5389 15.6869 13.1489 16.0758 13.2025 16.7082L13.0114 16.7846V16.7896C13.0549 16.8408 13.0913 16.862 13.1024 16.864L13.9845 16.9504C14.0068 16.9465 14.0351 16.9364 14.0665 16.9274C14.1757 16.8901 14.3406 16.8368 14.5358 16.8368C14.6947 16.8368 14.8484 16.873 14.9961 16.9414C15.0507 16.9213 15.1175 16.9062 15.1944 16.9012L15.2368 16.9002C15.7093 16.9002 15.9439 17.251 16.1322 17.5305C16.1635 17.5787 16.1948 17.625 16.2272 17.6702C16.3921 17.9014 16.6075 18.2402 16.6167 18.2542L16.7138 18.405L16.5944 18.5427C16.5024 18.6483 16.3648 18.7719 16.1281 18.7719C16.0795 18.7719 16.0259 18.7669 15.9683 18.7558C15.9177 18.7468 15.8722 18.7317 15.8277 18.7136C15.8206 18.7598 15.8115 18.8152 15.8023 18.8624L15.6476 19.6646C16.5732 19.4384 17.1609 18.7438 17.1609 17.7506L17.1619 14.75Z" fill="#FFDD2D"/>
<path d="M9.13705 14.5091H15.3776C15.066 14.1895 15.0701 13.7844 15.15 13.521C15.0589 13.4777 14.9841 13.4254 14.9173 13.3692C14.6735 13.5481 13.929 14.0869 13.7348 14.2216L13.6933 14.2498L11.2442 13.8095H11.1947C11.136 13.8095 11.05 13.8075 10.9559 13.7964C10.9296 13.906 10.8346 13.9814 10.7253 13.9814C10.7131 13.9814 10.699 13.9804 10.6858 13.9773C10.6221 13.9663 10.5665 13.9341 10.5291 13.8809C10.4906 13.8286 10.4755 13.7662 10.4866 13.7019L10.4957 13.6496C10.2428 13.4727 10.0101 13.0776 10.1133 12.6615L10.1234 12.6173L10.1588 12.5921C10.1639 12.5881 10.2063 12.56 10.2691 12.5238L10.091 12.4966C10.0243 12.4846 9.97975 12.4232 9.9899 12.3579C10.001 12.2916 10.0637 12.2443 10.1295 12.2574L10.5533 12.3237L10.5918 10.84L11.223 10.1765L11.6165 10.9999L11.2007 12.4273L11.5751 12.4856C11.6408 12.4956 11.6863 12.557 11.6762 12.6243C11.6661 12.6836 11.6155 12.7248 11.5558 12.7248C11.5497 12.7248 11.5427 12.7248 11.5366 12.7238L11.2321 12.6746C11.2362 12.6836 11.2422 12.6886 11.2463 12.6987C11.2786 12.765 11.3505 12.8133 11.3929 12.8334L13.2604 12.8625C13.3392 12.7861 13.5355 12.5951 13.7368 12.3931C13.2776 12.2202 13.1106 11.8261 13.0823 11.5648C12.8254 11.4562 12.6483 11.2934 12.5502 11.0812C12.4308 10.8189 12.4733 10.5565 12.5047 10.4289C12.2558 10.3384 11.9939 10.1736 11.7268 9.91016H8.91455C9.03495 10.2319 9.13705 10.5807 9.13705 10.9275V14.5091Z" fill="#FFDD2D"/>
<path d="M11.7075 16.0511C11.662 16.047 11.6236 16.0822 11.6205 16.1264C11.6175 16.1726 11.6519 16.2119 11.6984 16.2129C11.7429 16.2169 11.7824 16.1827 11.7864 16.1375C11.7864 16.0932 11.7541 16.052 11.7075 16.0511Z" fill="black"/>
<path d="M17.151 21.4903L16.6887 21.3144L16.8162 20.84L16.9568 20.3223C16.9568 20.3223 16.1374 20.7635 14.9832 21.0953C14.6554 21.1887 14.4076 21.231 14.4076 21.231V21.5828C14.4076 21.5828 13.7905 21.6894 13.1664 21.6894H13.1592H13.1502H13.138H13.1309C12.5068 21.6894 11.8897 21.5828 11.8897 21.5828V21.231C11.8897 21.231 11.6408 21.1887 11.3141 21.0953C10.1599 20.7635 9.34152 20.3223 9.34152 20.3223L9.48007 20.84L9.61057 21.3144L9.14727 21.4903L8.63342 21.6813C9.22317 21.9638 10.0395 22.3759 10.7871 22.579L10.6111 23.0575C10.6111 23.0575 11.5589 23.4868 13.138 23.4907V23.4918H13.1431H13.1502H13.1563H13.1603V23.4907C14.7414 23.4868 15.6882 23.0575 15.6882 23.0575L15.5112 22.579C16.2587 22.3759 17.0772 21.9638 17.6639 21.6813L17.151 21.4903ZM9.18167 21.7135L9.94237 21.4622L9.71782 20.7334C10.0526 20.9224 10.8043 21.2059 11.2392 21.3376L10.8721 22.3398C10.2003 22.1558 9.64092 21.9417 9.18167 21.7135ZM13.1502 23.2394C12.267 23.2394 11.2585 23.0374 10.9621 22.9328L11.4132 21.7195C11.7875 21.8281 12.5665 21.9437 13.1319 21.9397H13.133H13.1502H13.1653H13.1674C13.7329 21.9437 14.5097 21.8281 14.8861 21.7195L15.3362 22.9328C15.0398 23.0384 14.0323 23.2394 13.1502 23.2394ZM15.4262 22.3398L15.0601 21.3376C15.496 21.2059 16.2456 20.9224 16.5815 20.7334L16.3579 21.4622L17.1176 21.7135C16.6573 21.9417 16.1009 22.1558 15.4262 22.3398Z" fill="black"/>
<path d="M13.1491 2.55242C14.0899 2.55242 14.8425 2.86201 15.2583 3.19275C15.2583 3.19275 15.3817 2.45392 15.8035 1.80149L15.0458 1.88697L14.6493 1.04957L13.8876 1.43961L13.1491 0.713867L12.4127 1.43961L11.65 1.04957L11.2544 1.88697L10.4967 1.80149C10.9185 2.45392 11.042 3.19275 11.042 3.19275C11.4587 2.86201 12.2093 2.55242 13.1491 2.55242ZM11.22 2.18049L11.4304 2.20257L11.5215 2.01264L11.7865 1.44966L12.2781 1.702L12.4683 1.79852L12.6201 1.64971L13.1501 1.12698L13.6812 1.64971L13.833 1.79852L14.0231 1.702L14.5118 1.44966L14.7798 2.01264L14.8688 2.20257L15.0792 2.18049L15.2795 2.15636C15.1875 2.36242 15.1197 2.55745 15.0711 2.71928C14.541 2.42576 13.8511 2.2589 13.1481 2.2589C12.4481 2.2589 11.7592 2.42576 11.2271 2.71928C11.1776 2.55745 11.1108 2.36143 11.0187 2.15636L11.22 2.18049Z" fill="black"/>
<path d="M24.1862 12.3563C25.4032 12.3563 25.8098 11.1259 25.827 11.0736L25.9625 10.6404L25.5063 10.6544H25.5043C25.3435 10.6544 24.0011 10.6193 23.0492 9.41704L22.9591 9.30544C22.337 8.51934 21.7473 7.77244 20.6932 7.43164C20.7235 7.40454 20.767 7.37034 20.8267 7.33214C21.3861 6.96624 21.7119 6.52194 21.7938 6.00629C21.9132 5.23024 21.4155 4.61197 21.3932 4.58685L21.0543 4.17069L20.8429 4.66426C20.8288 4.6954 20.4726 5.48554 19.7241 5.48554H19.6684C19.6169 5.48249 19.5683 5.48049 19.5198 5.47649C19.5461 5.12364 19.4813 4.57779 18.9836 4.06618C18.3857 3.44991 17.6513 3.35742 17.267 3.35742C17.0616 3.35742 16.9251 3.38261 16.9108 3.38459L16.399 3.48515L16.7146 3.89826C16.9625 4.2169 17.187 4.80501 16.921 5.11259C16.836 5.21014 16.661 5.28954 16.4931 5.36894C16.1481 5.52679 15.6777 5.74589 15.6777 6.30484C15.6777 6.66669 15.96 7.04464 16.4718 7.36634C17.9872 8.31329 18.9219 9.30139 19.3255 10.392C19.9497 12.0698 19.1353 13.0268 18.3443 13.5304L17.9892 13.7576L18.2998 14.0411C18.3412 14.0773 18.7216 14.41 19.283 14.4583C19.3893 14.4653 19.4914 14.4714 19.5865 14.4714C19.9466 14.4714 20.2532 14.415 20.502 14.3397C20.4332 14.4593 20.3492 14.5809 20.243 14.7035C19.7909 15.2243 19.2345 15.4615 18.4343 15.4736L18.1369 15.4786L18.1136 15.7751C18.1106 15.8345 18.0884 16.3843 18.6123 16.8517C18.6923 16.9241 18.7894 16.9834 18.8905 17.0327C18.5355 17.3503 18.1743 17.9032 18.1046 18.8511C18.0459 19.6423 17.8557 19.9348 17.8537 19.9378L17.5249 20.4364L18.1187 20.4444C19.1 20.4444 19.8516 20.175 20.3725 19.6423C20.68 19.3266 20.8561 18.9708 20.9603 18.6551C21.1312 18.7999 21.3518 18.9266 21.639 18.9939C21.7483 19.019 21.8677 19.0331 21.9961 19.0331C22.2733 19.0331 22.505 18.9748 22.5313 18.9687L22.9106 18.8683L22.7427 18.5164C22.7305 18.4883 22.4139 17.7825 22.7548 16.7753C22.9015 16.3401 22.9763 15.95 23.0127 15.6464C23.2515 15.7701 23.5712 15.8726 23.9849 15.8737C24.9236 15.8737 25.3374 15.177 25.3566 15.1478L25.5417 14.8282L25.1988 14.6875C24.08 14.226 23.8322 12.9866 23.7826 12.3151C23.8837 12.3342 23.9991 12.3523 24.1295 12.3563H24.1862ZM25.0734 14.984C25.0734 14.984 24.7456 15.5499 23.994 15.5499H23.9849C23.0826 15.5449 22.7184 14.998 22.7184 14.998C22.7184 14.998 22.771 15.7098 22.4453 16.6698C22.0538 17.8268 22.4483 18.6541 22.4483 18.6541C22.4483 18.6541 22.2379 18.7104 21.9951 18.7104C21.9021 18.7104 21.8049 18.7013 21.7139 18.6772C20.9603 18.4993 20.7721 17.8178 20.7721 17.8178C20.7721 17.8178 20.8419 20.1207 18.1399 20.1207H18.1187C18.1187 20.1207 18.3564 19.7991 18.4272 18.8733C18.5557 17.1644 19.7201 16.9301 19.7201 16.9301C19.7201 16.9301 19.0989 16.8527 18.8298 16.6125C18.409 16.2335 18.4383 15.7952 18.4383 15.7952C19.3893 15.7822 20.0114 15.4605 20.4858 14.9146C20.9997 14.3235 21.0847 13.6872 21.0847 13.6872C21.0847 13.6872 20.5738 14.1476 19.5855 14.1476C19.4985 14.1476 19.4055 14.1436 19.3103 14.1346C18.843 14.0974 18.5193 13.8018 18.5193 13.8018C19.548 13.1464 20.2704 12.0025 19.63 10.2795C19.1172 8.89934 17.885 7.86794 16.6448 7.09094C16.2321 6.83454 16.0024 6.55009 16.0024 6.30484C16.0024 5.72784 16.8279 5.70969 17.1668 5.32174C17.5572 4.87131 17.3124 4.14055 16.9736 3.70126C16.9736 3.70126 17.0879 3.67812 17.268 3.67812C17.625 3.67812 18.2431 3.76756 18.7509 4.29029C19.4257 4.9839 19.1454 5.73884 19.1454 5.73884L19.3265 5.77404C19.4348 5.79719 19.542 5.80119 19.6533 5.80624C19.6776 5.80624 19.7018 5.80724 19.7261 5.80724C20.7063 5.80724 21.1444 4.78888 21.1444 4.78888C21.1444 4.78888 22.1863 6.06254 20.6527 7.05974C20.3887 7.23059 20.2723 7.38849 20.3027 7.55734L20.327 7.66794L20.4362 7.68704C21.548 7.98654 22.1104 8.74854 22.7973 9.61504C23.8402 10.9329 25.3162 10.9751 25.4982 10.9751H25.5175C25.5175 10.9751 25.1806 12.0316 24.1882 12.0316C24.172 12.0316 24.1579 12.0316 24.1407 12.0306C23.6845 12.0146 23.4508 11.8406 23.4508 11.8406C23.4508 11.8406 23.2718 14.2401 25.0734 14.984Z" fill="black"/>
<path d="M22.0489 7.56471C22.5031 7.80491 22.7671 8.12661 22.9988 8.41216C23.2264 8.69061 23.4429 8.95891 23.7807 9.07051C23.9011 9.11176 24.0285 9.13086 24.158 9.13086C24.6658 9.13086 25.1757 8.82221 25.3689 8.39501L25.5631 7.96676L25.0928 7.93866C25.0705 7.93761 24.4656 7.88331 23.7919 7.19876C23.5147 6.91836 23.1798 6.77051 22.8187 6.77051C22.3777 6.77051 22.0509 6.98966 22.0145 7.01181L21.5815 7.31441L22.0489 7.56471ZM22.8197 7.09426C23.0463 7.09426 23.3103 7.17061 23.5602 7.42696C24.3441 8.21811 25.0735 8.26231 25.0735 8.26231C24.941 8.55386 24.5566 8.81016 24.159 8.81016C24.067 8.81016 23.9749 8.79611 23.8829 8.76496C23.3437 8.58401 23.1505 7.77981 22.2026 7.27921C22.2026 7.27921 22.4677 7.09426 22.8197 7.09426Z" fill="black"/>
<path d="M22.2611 11.8357V11.8518C21.988 9.66244 20.3877 8.08119 18.6073 7.11914C18.4424 7.03169 18.2907 6.95734 18.143 6.88594C18.6852 6.96934 19.5582 6.97939 20.2319 6.39844C20.2319 6.39844 19.2011 7.15234 17.0889 6.46779C17.6736 6.84474 18.8096 7.37654 19.8465 8.23799C22.4392 10.5017 20.5839 12.7103 20.5839 12.7103C21.5156 11.7442 21.554 10.7089 21.2799 9.86349C21.7705 10.6747 22.0841 11.6598 22.0355 12.8741C21.9638 14.6142 21.0017 16.119 19.9891 17.3284C19.5025 17.9154 19.3933 18.6362 19.3933 18.6362C19.3933 18.6362 19.5895 17.9998 20.153 17.3454C21.2384 16.0829 22.166 14.771 22.2874 12.8812C22.3997 13.224 22.862 14.178 23.5954 14.5368C23.5974 14.5379 22.6759 13.986 22.2611 11.8357Z" fill="black"/>
<path d="M8.44403 19.9368C8.44303 19.9338 8.25488 19.6413 8.19423 18.8502C8.12343 17.9022 7.76323 17.3494 7.40718 17.0317C7.51038 16.9835 7.60543 16.9242 7.68538 16.8508C8.20838 16.3833 8.18608 15.8334 8.18303 15.7741L8.16283 15.4776L7.86338 15.4725C7.06528 15.4595 6.50783 15.2223 6.05568 14.7026C5.95048 14.5799 5.86553 14.4583 5.79673 14.3387C6.04553 14.4141 6.35003 14.4703 6.71118 14.4703C6.80833 14.4703 6.90848 14.4643 7.01468 14.4573C7.57608 14.4091 7.95648 14.0773 7.99893 14.0401L8.30948 13.7566L7.95443 13.5295C7.16033 13.0248 6.34903 12.0679 6.97218 10.3911C7.37578 9.30041 8.30948 8.31231 9.82688 7.36536C10.3388 7.04366 10.6189 6.66571 10.6189 6.30386C10.6189 5.74491 10.1496 5.52476 9.80463 5.36796C9.63668 5.28856 9.46173 5.20916 9.37678 5.11161C9.10968 4.80502 9.33523 4.21592 9.58208 3.89728L9.89973 3.4841L9.38583 3.38362C9.37068 3.38157 9.23613 3.35645 9.02978 3.35645C8.64533 3.35645 7.91298 3.44893 7.31408 4.06513C6.81538 4.5778 6.74968 5.12366 6.77493 5.47551C6.72638 5.47951 6.67783 5.48151 6.62723 5.48456H6.57263C5.82203 5.48456 5.46698 4.69442 5.45283 4.66328L5.24133 4.16971L4.89943 4.58587C4.88023 4.61099 4.38052 5.23021 4.5019 6.00531C4.58282 6.52096 4.90853 6.96526 5.46793 7.33116C5.52863 7.36936 5.57113 7.40356 5.60148 7.43066C4.54844 7.77146 3.95968 8.51936 3.33753 9.30546L3.24749 9.41706C2.29664 10.6193 0.951194 10.6545 0.790354 10.6545L0.332153 10.6404L0.471708 11.0737C0.487903 11.126 0.893549 12.3564 2.11147 12.3564L2.17017 12.3543C2.29862 12.3503 2.41398 12.3332 2.51718 12.3131C2.46654 12.9836 2.2187 14.2231 1.09888 14.6855L0.756969 14.8262L0.942139 15.1459C0.960319 15.1751 1.37508 15.8716 2.31581 15.8716C2.72654 15.8707 3.04619 15.7681 3.28596 15.6445C3.32239 15.9481 3.39722 16.3381 3.54392 16.7734C3.88484 17.7806 3.56719 18.4863 3.55502 18.5144L3.38711 18.8662L3.7675 18.9668C3.79275 18.9728 4.02645 19.0311 4.30258 19.0311C4.43209 19.0311 4.55148 19.017 4.65873 18.9919C4.94703 18.9246 5.16953 18.7979 5.33843 18.6532C5.44163 18.9688 5.61868 19.3246 5.92523 19.6403C6.44713 20.1731 7.19773 20.4425 8.17903 20.4425L8.77383 20.4344L8.44403 19.9368ZM8.15673 20.1208C5.45478 20.1208 5.52363 17.8178 5.52363 17.8178C5.52363 17.8178 5.33548 18.4993 4.58183 18.6772C4.49179 18.7014 4.39566 18.7104 4.30159 18.7104C4.05884 18.7104 3.84941 18.6542 3.84941 18.6542C3.84941 18.6542 4.2419 17.8268 3.8504 16.6698C3.52673 15.7098 3.57935 14.9981 3.57935 14.9981C3.57935 14.9981 3.21615 15.5449 2.31284 15.55H2.30371C1.55212 15.55 1.22436 14.984 1.22436 14.984C3.02497 14.2411 2.84792 11.8426 2.84792 11.8426C2.84792 11.8426 2.61429 12.0156 2.15702 12.0326C2.14082 12.0337 2.12568 12.0337 2.10949 12.0337C1.11607 12.0337 0.780239 10.9772 0.780239 10.9772H0.800469C0.983589 10.9772 2.45748 10.935 3.50042 9.61706C4.18729 8.75061 4.75073 7.98961 5.86043 7.68901L5.97168 7.66991L5.99603 7.55936C6.02638 7.39046 5.91103 7.23266 5.64703 7.06176C4.11345 6.06351 5.15538 4.79094 5.15538 4.79094C5.15538 4.79094 5.59138 5.80821 6.57363 5.80821C6.59788 5.80821 6.62018 5.80721 6.64543 5.80721C6.75568 5.80121 6.86498 5.79716 6.97218 5.77406L7.15328 5.73886C7.15328 5.73886 6.87303 4.98391 7.54878 4.29036C8.05663 3.76659 8.67468 3.67813 9.03073 3.67813C9.21183 3.67813 9.32413 3.70127 9.32413 3.70127C8.98628 4.14155 8.74148 4.87133 9.13188 5.32171C9.46978 5.70871 10.2942 5.72781 10.2942 6.30481C10.2942 6.54911 10.0646 6.83456 9.65193 7.09091C8.41063 7.86796 7.17858 8.89936 6.66668 10.2795C6.02738 12.0025 6.74863 13.1455 7.77943 13.8018C7.77943 13.8018 7.45573 14.0974 6.98738 14.1346C6.89228 14.1436 6.80023 14.1477 6.71118 14.1477C5.72388 14.1477 5.21303 13.6873 5.21303 13.6873C5.21303 13.6873 5.29798 14.3236 5.80888 14.9147C6.28633 15.4605 6.90848 15.7822 7.85938 15.7953C7.85938 15.7953 7.88973 16.2335 7.46888 16.6125C7.19883 16.8518 6.57763 16.9302 6.57763 16.9302C6.57763 16.9302 7.74303 17.1644 7.87048 18.8733C7.94028 19.7991 8.17598 20.1208 8.17598 20.1208H8.15673Z" fill="black"/>
<path d="M2.13905 9.13176C2.26955 9.13176 2.39701 9.11266 2.51733 9.07146C2.85726 8.95986 3.07271 8.69146 3.30032 8.41301C3.53302 8.12756 3.79501 7.80591 4.24918 7.56566L4.71658 7.31636L4.28257 7.01376C4.24614 6.99061 3.92042 6.77246 3.4804 6.77246C3.11826 6.77246 2.78242 6.91926 2.50622 7.20071C1.83251 7.88431 1.2286 7.93956 1.20632 7.94056L0.735962 7.96771L0.929197 8.39696C1.12336 8.82216 1.6322 9.13176 2.13905 9.13176ZM2.73787 7.42786C2.98875 7.17156 3.25279 7.09516 3.4804 7.09516C3.83038 7.09516 4.09541 7.28011 4.09541 7.28011C3.1486 7.78176 2.95437 8.58491 2.41314 8.76586C2.32416 8.79706 2.23108 8.81116 2.13905 8.81116C1.74147 8.81116 1.35705 8.55576 1.22556 8.26321C1.22556 8.26226 1.95388 8.21801 2.73787 7.42786Z" fill="black"/>
<path d="M4.26231 12.8751C4.21174 11.6608 4.52536 10.6757 5.01695 9.86446C4.7428 10.7099 4.78025 11.7453 5.71295 12.7113C5.71295 12.7113 3.85766 10.5028 6.45135 8.23896C7.4893 7.37751 8.6243 6.84571 9.208 6.46876C7.0968 7.15331 6.06595 6.39941 6.06595 6.39941C6.73965 6.98046 7.6127 6.97036 8.15495 6.88591C8.00826 6.95731 7.85445 7.03171 7.69155 7.11916C5.9092 8.08116 4.30985 9.66241 4.03569 11.8518V11.8347C3.62199 13.9849 2.70142 14.5368 2.70142 14.5368C3.43384 14.1779 3.89515 13.225 4.0074 12.8811C4.12983 14.771 5.0574 16.0829 6.14285 17.3454C6.7063 17.9998 6.9046 18.6361 6.9046 18.6361C6.9046 18.6361 6.79435 17.9154 6.30575 17.3283C5.29515 16.1211 4.33312 14.6152 4.26231 12.8751Z" fill="black"/>
<path d="M12.5391 8.44531V8.87956C12.6898 8.69761 12.9812 8.73476 12.9812 8.73476V9.36101C12.9812 9.36101 12.971 9.66861 12.8608 9.80236H13.1764H13.491C13.3828 9.66971 13.3716 9.36101 13.3716 9.36101V8.73476C13.3716 8.73476 13.6629 8.69761 13.8127 8.87956V8.44531H13.1764H12.5391Z" fill="black"/>
<path d="M12.2678 5.86955C12.4691 6.02835 12.5855 6.05455 12.5895 6.0575L12.6684 6.09375V5.6846L11.928 5.375C11.928 5.376 11.935 5.6122 12.2678 5.86955Z" fill="black"/>
<path d="M14.0292 5.86955C14.364 5.6122 14.3701 5.375 14.3701 5.375L13.6296 5.6846V6.09375L13.7075 6.0575C13.7126 6.05455 13.8279 6.02835 14.0292 5.86955Z" fill="black"/>
<path d="M15.3631 4.20358C15.3631 3.58335 14.3121 3.02539 13.1518 3.02539H13.1508H13.1478H13.1447C11.9844 3.02539 10.9334 3.58335 10.9334 4.20358L10.9567 4.35636L11.4199 6.99911L10.9547 7.26751L9.75083 7.96616H9.75493C9.75493 7.96616 9.48383 8.10386 9.35833 8.18926C8.90013 8.50596 8.80303 8.96736 9.06903 9.15836C9.13483 8.78241 9.43423 8.38831 9.99463 8.38831C10.3983 8.38831 10.7058 8.59546 10.9547 8.90601C11.0184 8.98446 11.0791 9.06786 11.1357 9.15836C11.2055 9.27196 11.2753 9.37146 11.3451 9.46796H8.24463C8.47223 9.92331 8.68868 10.4059 8.68868 10.9296V17.7491C8.68868 19.3997 9.96633 20.1878 11.3481 20.1878C12.4164 20.1878 12.5601 20.1396 13.1498 20.7226C13.7365 20.1386 13.8802 20.1878 14.9494 20.1878C16.3322 20.1878 17.6079 19.3997 17.6079 17.7491V10.9296C17.6079 10.4059 17.8244 9.92331 18.053 9.46796H14.9514C15.0202 9.37251 15.09 9.27196 15.1598 9.15836C15.2175 9.06786 15.2771 8.98446 15.3399 8.90601C15.5907 8.59441 15.8972 8.38831 16.3009 8.38831C16.8613 8.38831 17.1597 8.78141 17.2265 9.15836C17.4926 8.96736 17.3964 8.50596 16.9351 8.18926C16.8117 8.10386 16.5406 7.96616 16.5406 7.96616H16.5447L15.3409 7.26751L14.8776 6.99911L15.3409 4.35636L15.3631 4.20358ZM11.3896 4.51119L13.0183 5.06001V7.60221L11.8196 6.97401L11.3896 4.51119ZM11.7265 9.91126C11.9936 10.1757 12.2556 10.3396 12.5044 10.43C12.472 10.5576 12.4296 10.821 12.5499 11.0834C12.648 11.2945 12.8261 11.4573 13.082 11.5659C13.1103 11.8273 13.2762 12.2203 13.7365 12.3942C13.5352 12.5963 13.3389 12.7862 13.259 12.8636L11.3926 12.8345C11.3502 12.8134 11.2783 12.7661 11.246 12.6988C11.2419 12.6898 11.2359 12.6848 11.2329 12.6747L11.5373 12.724C11.5444 12.725 11.5504 12.725 11.5565 12.725C11.6152 12.725 11.6668 12.6848 11.6769 12.6244C11.687 12.5571 11.6415 12.4958 11.5758 12.4857L11.2015 12.4274L11.6172 11.001L11.2237 10.1776L10.5925 10.8411L10.554 12.3249L10.1302 12.2585C10.0644 12.2455 10.0017 12.2937 9.99063 12.359C9.98048 12.4244 10.025 12.4857 10.0917 12.4977L10.2698 12.5249C10.2061 12.5611 10.1646 12.5892 10.1595 12.5933L10.1231 12.6184L10.113 12.6626C10.0098 13.0788 10.2435 13.4738 10.4954 13.6507L10.4863 13.703C10.4762 13.7674 10.4903 13.8297 10.5288 13.882C10.5652 13.9353 10.6218 13.9674 10.6845 13.9785C10.6977 13.9805 10.7118 13.9815 10.724 13.9815C10.8332 13.9815 10.9284 13.9061 10.9557 13.7965C11.0497 13.8076 11.1357 13.8096 11.1944 13.8096H11.244L13.693 14.2489L13.7345 14.2217C13.9297 14.0861 14.6732 13.5472 14.917 13.3693C14.9838 13.4266 15.0586 13.4789 15.1497 13.5221C15.0708 13.7855 15.0657 14.1906 15.3783 14.5102H9.13683V10.9306C9.13683 10.5838 9.03468 10.235 8.91428 9.91326H11.7265V9.91126ZM14.7531 13.1863C14.5053 13.3673 13.868 13.8297 13.6374 13.9905L11.4119 13.5935C11.417 13.5734 11.422 13.5543 11.4271 13.5342C11.4564 13.4196 11.4857 13.2627 11.4878 13.0788L13.3582 13.109L13.3936 13.0728C13.4219 13.0446 14.0147 12.4757 14.3172 12.148C14.389 12.2374 14.479 12.3229 14.5963 12.3982C14.5559 12.6153 14.5731 12.925 14.7531 13.1863ZM11.0275 12.8034C11.0801 12.9129 11.1751 12.9863 11.2409 13.0275C11.2389 13.1301 11.2288 13.2899 11.2015 13.4306C11.1954 13.4618 11.1873 13.491 11.1782 13.5201C11.1732 13.5382 11.1681 13.5532 11.164 13.5653C11.0659 13.5653 10.8727 13.5532 10.7149 13.496C10.5399 13.4317 10.2789 13.1129 10.3396 12.7622C10.4155 12.7159 10.5905 12.6184 10.7544 12.6184C10.8808 12.6174 10.9668 12.6767 11.0275 12.8034ZM10.7958 12.3621L10.8332 10.9376L11.1549 10.5989L11.3573 11.0191L10.9587 12.3862L10.7958 12.3621ZM14.7329 19.7465C14.6115 19.7465 14.4992 19.7485 14.3981 19.7525L14.6631 18.9333C14.7046 18.8197 14.4952 18.6739 14.4092 18.5463C14.5397 18.6277 14.8776 18.8056 15.0405 18.877C15.0233 18.9031 14.7329 19.7465 14.7329 19.7465ZM15.5644 18.8157L15.3915 19.7123C15.2812 19.7274 15.1639 19.7355 15.0435 19.7405L15.2256 18.878C15.2802 18.6217 14.5873 18.5423 14.2454 18.0386C14.0784 18.2256 13.7638 18.2809 13.4482 18.2809C13.1599 18.2809 12.8716 18.2347 12.6966 18.2005C12.6521 18.1934 12.6096 18.1884 12.5681 18.1884C12.467 18.1884 12.3749 18.2196 12.3112 18.3261L12.2606 18.4106L11.3168 18.1894L11.0821 18.5754C11.0487 18.6377 11.0467 18.691 11.1003 18.7493L11.164 18.8187C11.1205 18.9554 10.9243 19.1614 10.9243 19.1614L10.7837 18.9876C10.6724 18.8639 10.6906 18.6387 10.807 18.4297L11.1812 17.8014L11.9804 17.916L11.856 17.6345C11.6891 17.2626 11.943 16.7891 11.9703 16.5167C11.9612 16.5991 11.8853 16.6172 11.7963 16.6172C11.7154 16.6172 11.6253 16.6022 11.5656 16.6022C11.5424 16.6022 11.5221 16.6042 11.511 16.6122L11.2945 16.7428L11.1236 16.5931C11.1033 16.564 11.0963 16.4966 11.1468 16.4463L11.5424 16.0061L11.0751 15.4642L11.7295 15.7909L11.9288 15.5506C11.9835 15.6039 11.9602 15.7437 11.9602 15.7437C12.1645 15.7487 12.737 16.0633 12.7674 16.7972C12.7694 16.8193 12.7694 16.8444 12.7694 16.8685C12.7694 16.8685 12.7745 16.8776 12.7846 16.8926C12.8251 16.9479 12.9363 17.0897 13.0779 17.1027L13.9823 17.1912H13.9863C14.0855 17.1912 14.2828 17.0756 14.5356 17.0756C14.6732 17.0756 14.827 17.1108 14.9909 17.2133C14.9909 17.2133 15.0728 17.149 15.2063 17.1419C15.2164 17.141 15.2276 17.141 15.2377 17.141C15.6434 17.141 15.8113 17.5048 16.0288 17.8074C16.1927 18.0376 16.4112 18.3794 16.4112 18.3794C16.3302 18.4749 16.2553 18.5272 16.1299 18.5272C16.0956 18.5272 16.0561 18.5241 16.0136 18.5161C15.5786 18.4367 15.5159 17.5481 15.2681 17.4777C15.2549 17.4737 15.2408 17.4727 15.2286 17.4727C15.1487 17.4727 15.1133 17.543 15.1133 17.543C15.2265 17.8456 15.1608 17.9682 15.2822 18.2015C15.3732 18.3743 15.5351 18.5171 15.6018 18.5844C15.6018 18.5865 15.5837 18.7172 15.5644 18.8157ZM10.7078 17.9672L10.7493 18.0708C10.722 18.1613 10.4084 18.2899 10.4084 18.2899L10.3406 18.1432C10.2688 17.9864 10.2839 17.722 10.5025 17.5601L11.0103 17.2525L11.5485 17.3661C11.5383 17.536 11.6405 17.6627 11.6405 17.6627L11.076 17.5551L10.7382 17.7873C10.6815 17.8265 10.6775 17.8999 10.7078 17.9672ZM15.6494 19.6631L15.8042 18.8609C15.8123 18.8136 15.8224 18.7584 15.8295 18.7122C15.873 18.7302 15.9195 18.7453 15.9701 18.7543C16.0277 18.7654 16.0813 18.7704 16.1299 18.7704C16.3667 18.7704 16.5042 18.6468 16.5963 18.5413L16.7156 18.4035L16.6185 18.2527C16.6094 18.2376 16.395 17.8999 16.2291 17.6687C16.1967 17.6235 16.1653 17.5782 16.134 17.5289C15.9458 17.2495 15.7101 16.8987 15.2377 16.8987L15.1952 16.8997C15.1173 16.9047 15.0506 16.9198 14.997 16.9399C14.8482 16.8706 14.6955 16.8353 14.5366 16.8353C14.3414 16.8353 14.1765 16.8886 14.0673 16.9258C14.0359 16.9349 14.0076 16.9449 13.9854 16.949L13.1022 16.8625C13.0911 16.8605 13.0547 16.8394 13.0112 16.7871V16.7831L13.2024 16.7067C13.1487 16.0744 12.5378 15.6854 12.1969 15.5537C12.1817 15.4903 12.1514 15.427 12.0978 15.3758L11.9076 15.1968L11.7406 15.3959L11.6587 15.4974L10.4226 14.9927L11.2268 15.996L10.9091 16.4735C10.7928 16.5961 10.9213 16.7187 10.9213 16.7187L11.249 16.9429L11.5889 16.8173C11.601 16.8173 11.6112 16.8203 11.6223 16.8213C11.6061 16.8726 11.5849 17.0736 11.5707 17.1299L10.9809 17.0143L10.3608 17.3621C10.0422 17.5943 9.99868 17.9793 10.1171 18.2427L10.1858 18.3925L10.2839 18.6035L10.5004 18.5141C10.5035 18.5131 10.5065 18.5121 10.5085 18.5101C10.4306 18.7574 10.462 18.9926 10.6016 19.1474L10.7331 19.3122L10.9081 19.5324L11.1003 19.3273C11.157 19.271 11.3401 19.067 11.3967 18.892L11.4382 18.7584L11.3441 18.6558L11.3289 18.6377L11.4342 18.4648L12.2039 18.6448L12.3769 18.684L12.469 18.5332L12.5196 18.4508C12.5287 18.4337 12.5317 18.4307 12.5671 18.4307C12.5944 18.4307 12.6217 18.4337 12.6511 18.4397C12.9414 18.494 13.2094 18.5211 13.4472 18.5211C13.6778 18.5211 13.8154 18.5121 13.9803 18.4578C13.9803 18.4578 14.394 18.9242 14.4082 18.9424L14.1553 19.7183L14.1441 19.7656C13.6647 19.8038 13.431 19.9083 13.1488 20.1888C12.7391 19.7847 12.4487 19.7425 11.3472 19.7425C10.029 19.7425 9.13583 18.9745 9.13583 17.7481V14.7495H17.1597L17.1618 17.7481C17.1627 18.7433 16.575 19.4369 15.6494 19.6631ZM17.3843 9.91126C17.2619 10.233 17.1597 10.5818 17.1597 10.9286L17.1608 13.1662C16.6903 13.0878 16.6347 12.5842 16.6327 12.5621L16.6236 12.4596L16.5224 12.4505C16.3181 12.4314 16.1825 12.345 16.0682 12.2344C15.8376 12.0052 15.8365 11.6332 15.8376 11.6303C15.8346 11.6494 15.5837 11.9982 15.875 12.3791C15.9974 12.54 16.1744 12.6385 16.4041 12.6777C16.4577 12.9571 16.6671 13.3512 17.1608 13.4115V14.5072H15.7728C15.1325 14.1534 15.4036 13.5302 15.4167 13.504L15.4714 13.3854L15.349 13.3392C14.656 13.0838 14.8462 12.3963 14.8563 12.3671L14.8846 12.2666L14.7906 12.2223C14.218 11.959 14.2959 11.2483 14.303 11.2191C14.127 11.3609 14.0632 11.6504 14.1846 11.9338C14.1189 12.0082 14.0309 12.0987 13.9348 12.1972C13.342 12.0474 13.3238 11.5056 13.3238 11.4805L13.3227 11.397L13.2449 11.3669C13.0132 11.2814 12.8544 11.1537 12.7765 10.9819C12.6885 10.7919 12.7198 10.5928 12.7442 10.4974C12.8119 10.5124 12.8797 10.5235 12.9444 10.5285C13.0112 10.5356 13.08 10.5396 13.1488 10.5396H13.1528H13.1579C13.2267 10.5396 13.2945 10.5356 13.3612 10.5285C13.7304 10.4923 14.1442 10.3345 14.5751 9.91031H17.3843V9.91126ZM15.2215 7.64951L15.7698 7.96616H15.7779L15.9155 8.04556C15.6059 8.13106 15.3692 8.28481 15.171 8.48686C15.1639 8.49291 15.1568 8.50091 15.1497 8.50801C15.1042 8.55626 15.0586 8.60846 15.0162 8.66176C15.0081 8.67181 15 8.68286 14.9909 8.69396C14.9484 8.74821 14.909 8.80351 14.8705 8.86181C14.8644 8.87186 14.8573 8.88191 14.8503 8.89096C14.8047 8.95831 14.7613 9.03071 14.7178 9.10511C14.3273 9.77356 13.7041 10.1726 13.1498 10.1737C12.5965 10.1726 11.9733 9.77356 11.5828 9.10511C11.5403 9.03271 11.4979 8.96236 11.4523 8.89401C11.4432 8.88091 11.4351 8.86781 11.4271 8.85676C11.3886 8.80151 11.3502 8.74726 11.3107 8.69596C11.3006 8.68186 11.2915 8.67081 11.2814 8.65881C11.2389 8.60746 11.1954 8.55626 11.1519 8.50896C11.1428 8.50191 11.1367 8.49291 11.1276 8.48486C10.9284 8.28281 10.6926 8.12996 10.3821 8.04556L10.5217 7.96616H10.5277L11.076 7.64951L11.6395 7.32881L13.1447 8.14306L13.1478 8.14001L13.1518 8.14306L14.657 7.32881L15.2215 7.64951ZM14.479 6.97501L13.2793 7.60321V5.06001L14.9069 4.51119L14.479 6.97501ZM13.1488 4.78058L11.3643 4.0799C11.5161 3.72304 12.2161 3.41947 13.1488 3.41848C14.0825 3.41947 14.7825 3.72304 14.9332 4.0799L13.1488 4.78058Z" fill="black"/>
<path d="M39.8493 18.1131V9.11111H45.1628V5.83536H30.6667V9.11111H35.9802V18.1131H39.8493ZM50.5804 5.83536H46.7114V18.1131H50.5804V5.83536ZM53.4116 5.83536V18.1131H56.9712V11.3295L63.6002 18.1131H66.9018V5.83536H63.3421V12.5676L56.868 5.83536H53.4116ZM74.5066 13.4703L78.9683 18.1131H83.9467L77.7304 11.7162L83.7141 5.83536H79.0197L74.5066 10.4524H73.4744V5.83536H69.7342V18.1131H73.4744V13.4703H74.5066ZM91.6423 5.5C86.6125 5.5 83.5944 8.33729 83.5944 11.9999C83.5944 15.6627 86.6125 18.5 91.6423 18.5C96.6475 18.5 99.6645 15.6627 99.6645 11.9999C99.6645 8.33729 96.6475 5.5 91.6423 5.5ZM91.6423 15.5079C89.1409 15.5079 87.5407 14.0119 87.5407 11.9999C87.5407 9.98813 89.1409 8.51777 91.6423 8.51777C94.1192 8.51777 95.744 9.98813 95.744 11.9999C95.744 14.0119 94.1192 15.5079 91.6423 15.5079ZM113.848 5.83536H101.441V18.1131H105.181V13.8314H113.307V11.123H105.181V8.95634H113.848V5.83536ZM127.929 5.83536H115.521V18.1131H119.262V13.8314H127.388V11.123H119.262V8.95634H127.929V5.83536Z" fill="black"/>
</g>
<defs>
<clipPath id="clip0_1757_5117">
<rect width="128.3" height="24" fill="white"/>
</clipPath>
</defs>
</svg>
